<svg width="101" height="101" viewBox="0 0 101 101" fill="none" xmlns="http://www.w3.org/2000/svg">
<path fill-rule="evenodd" clip-rule="evenodd" d="M50.875 4C76.7625 4 97.75 24.9875 97.75 50.875C97.75 76.7625 76.7625 97.75 50.875 97.75C24.9875 97.75 4 76.7625 4 50.875C4 24.9875 24.9875 4 50.875 4Z" stroke="#0B2541" stroke-width="6.25" stroke-linecap="round" stroke-linejoin="round"/>
<path d="M41.5 72.75H60.25" stroke="#0B2541" stroke-width="6.25" stroke-linecap="round" stroke-linejoin="round"/>
<path d="M31.25 35.6875C32.1125 35.6875 32.8125 36.3875 32.8125 37.25C32.8125 38.1125 32.1125 38.8125 31.25 38.8125C30.3875 38.8125 29.6875 38.1125 29.6875 37.25C29.6875 36.3875 30.3875 35.6875 31.25 35.6875" stroke="#0B2541" stroke-width="6.25" stroke-linecap="round" stroke-linejoin="round"/>
<path fill-rule="evenodd" clip-rule="evenodd" d="M35.25 22.75C43.8792 22.75 50.875 29.7458 50.875 38.375C50.875 47.0042 43.8792 54 35.25 54C26.6208 54 19.625 47.0042 19.625 38.375C19.625 29.7458 26.6208 22.75 35.25 22.75Z" stroke="#0B2541" stroke-width="6.25" stroke-linecap="round" stroke-linejoin="round"/>
<path d="M62.5 35.6875C63.3625 35.6875 64.0625 36.3875 64.0625 37.25C64.0625 38.1125 63.3625 38.8125 62.5 38.8125C61.6375 38.8125 60.9375 38.1125 60.9375 37.25C60.9375 36.3875 61.6375 35.6875 62.5 35.6875" stroke="#0B2541" stroke-width="6.25" stroke-linecap="round" stroke-linejoin="round"/>
<path fill-rule="evenodd" clip-rule="evenodd" d="M66.5 22.75C75.1292 22.75 82.125 29.7458 82.125 38.375C82.125 47.0042 75.1292 54 66.5 54C57.8708 54 50.875 47.0042 50.875 38.375C50.875 29.7458 57.8708 22.75 66.5 22.75Z" stroke="#0B2541" stroke-width="6.25" stroke-linecap="round" stroke-linejoin="round"/>
</svg>
