<svg width="28" height="28" viewBox="0 0 28 28" fill="none" xmlns="http://www.w3.org/2000/svg">
<path fillRule="evenodd" clipRule="evenodd" d="M14.25 1.25C21.4295 1.25 27.25 7.07053 27.25 14.25C27.25 21.4295 21.4295 27.25 14.25 27.25C7.07053 27.25 1.25 21.4295 1.25 14.25C1.25 7.07053 7.07053 1.25 14.25 1.25Z" stroke="#0B2541" strokeWidth="1.5" strokeLinecap="round" strokeLinejoin="round"/>
<path d="M4.25 15.3629H7.88636L10.6258 8.79496C10.8136 8.34857 11.3421 8.13352 11.8076 8.3137C12.0476 8.4067 12.2355 8.59385 12.3227 8.82867L16.313 19.6686C16.4803 20.1231 16.9991 20.3603 17.473 20.1999C17.6779 20.1301 17.8512 19.9918 17.9591 19.8116L20.6136 15.3629H24.25" stroke="#0B2541" strokeWidth="1.5" strokeLinecap="round" strokeLinejoin="round"/>
</svg>
