<?xml version="1.0" encoding="UTF-8"?>
<svg width="40px" height="40px" viewBox="0 0 40 40" version="1.1" xmlns="http://www.w3.org/2000/svg" xmlns:xlink="http://www.w3.org/1999/xlink">
    <!-- Generator: Sketch 62 (91390) - https://sketch.com -->
    <title>Plus</title>
    <desc>Created with Sketch.</desc>
    <g id="Symbols" stroke="none" stroke-width="1" fill="none" fill-rule="evenodd" stroke-linecap="round" stroke-linejoin="round">
        <g id="New-content-(ver-2)" transform="translate(-19.000000, -12.000000)" stroke="#0B2541" stroke-width="2.5">
            <g id="Add-Article">
                <g transform="translate(20.000000, 13.000000)">
                    <g id="Plus">
                        <g id="streamline-icon-common-file-text-check@40x40">
                            <path d="M27.75,17.75 C33.2733333,17.75 37.75,22.2266667 37.75,27.75 C37.75,33.2733333 33.2733333,37.75 27.75,37.75 C22.2266667,37.75 17.75,33.2733333 17.75,27.75 C17.75,22.2266667 22.2266667,17.75 27.75,17.75 Z" id="Path"></path>
                            <path d="M32.2066667,24.8433333 L27.365,31.2983333 C26.9483333,31.8516667 26.1633333,31.9616667 25.61,31.5466667 C25.565,31.5116667 25.52,31.475 25.48,31.4333333 L22.98,28.9333333" id="Path"></path>
                            <line x1="5.25" y1="10.25" x2="22.75" y2="10.25" id="Path"></line>
                            <line x1="5.25" y1="17.75" x2="15.25" y2="17.75" id="Path"></line>
                            <line x1="5.25" y1="25.25" x2="11.5" y2="25.25" id="Path"></line>
                            <path d="M11.5,32.75 L2.75,32.75 C1.37,32.75 0.25,31.63 0.25,30.25 L0.25,2.75 C0.25,1.37 1.37,0.25 2.75,0.25 L20.465,0.25 C21.1283333,0.25 21.7633333,0.513333333 22.2316667,0.981666667 L27.0183333,5.76833333 C27.4866667,6.23666667 27.75,6.87166667 27.75,7.535 L27.75,11.5" id="Path"></path>
                        </g>
                    </g>
                </g>
            </g>
        </g>
    </g>
</svg>
