<svg width="40" height="40" viewBox="0 0 40 40" fill="none" xmlns="http://www.w3.org/2000/svg">
<path fillRule="evenodd" clipRule="evenodd" d="M28.75 18.75C34.2733 18.75 38.75 23.2267 38.75 28.75C38.75 34.2733 34.2733 38.75 28.75 38.75C23.2267 38.75 18.75 34.2733 18.75 28.75C18.75 23.2267 23.2267 18.75 28.75 18.75Z" stroke="#0B2541" strokeWidth="2.5" strokeLinecap="round" strokeLinejoin="round"/>
<path d="M33.2067 25.8433L28.365 32.2983C27.9483 32.8517 27.1633 32.9617 26.61 32.5467C26.565 32.5117 26.52 32.475 26.48 32.4333L23.98 29.9333" stroke="#0B2541" strokeWidth="2.5" strokeLinecap="round" strokeLinejoin="round"/>
<path d="M6 25L15 16" stroke="#0B2541" strokeWidth="2.5" strokeLinecap="round" strokeLinejoin="round"/>
<path fillRule="evenodd" clipRule="evenodd" d="M22.8997 8.08415C21.8559 7.97195 20.8037 7.97195 19.7599 8.08415L16.9578 12.5441L15.2331 9.33517C8.98582 12.4052 6.54659 19.823 8.85692 22.1399C11.9589 25.245 24.2293 19.802 22.8997 8.08415Z" stroke="#0B2541" strokeWidth="2.5" strokeLinecap="round" strokeLinejoin="round"/>
<path d="M12.5 33.75H3.75C2.37 33.75 1.25 32.63 1.25 31.25V3.75C1.25 2.37 2.37 1.25 3.75 1.25H21.465C22.1283 1.25 22.7633 1.51333 23.2317 1.98167L28.0183 6.76833C28.4867 7.23667 28.75 7.87167 28.75 8.535V12.5" stroke="#0B2541" strokeWidth="2.5" strokeLinecap="round" strokeLinejoin="round"/>
</svg>
