<svg width="60" height="60" viewBox="0 0 60 60" fill="none" xmlns="http://www.w3.org/2000/svg">
<path fill-rule="evenodd" clip-rule="evenodd" d="M26.6579 1.9921C27.4721 0.98006 28.7011 0.391479 30 0.391479C31.2989 0.391479 32.5279 0.98006 33.3421 1.9921L37.3211 6.9421C38.2369 8.08337 39.6716 8.67868 41.1263 8.52105L47.4421 7.83421C48.7372 7.69034 50.0274 8.14296 50.9488 9.06434C51.8702 9.98573 52.3228 11.276 52.179 12.571L51.4921 18.8868C51.3345 20.3416 51.9298 21.7763 53.0711 22.6921L58.0211 26.671C59.0331 27.4853 59.6217 28.7142 59.6217 30.0132C59.6217 31.3121 59.0331 32.541 58.0211 33.3553L53.0553 37.3158C51.9144 38.233 51.3193 39.6682 51.4763 41.1237L52.1632 47.4395C52.3081 48.7348 51.8558 50.0257 50.9342 50.9473C50.0125 51.8689 48.7216 52.3212 47.4263 52.1763L41.1105 51.4895C39.6557 51.3313 38.2208 51.9267 37.3053 53.0684L33.3421 58C32.5284 59.0129 31.2993 59.6022 30 59.6022C28.7007 59.6022 27.4716 59.0129 26.6579 58L22.6816 53.0526C21.7646 51.9113 20.3292 51.3161 18.8737 51.4737L12.5579 52.1605C11.2623 52.3065 9.97084 51.8545 9.04895 50.9326C8.12706 50.0107 7.67512 48.7192 7.82106 47.4237L8.5079 41.1079C8.66546 39.6524 8.07025 38.2169 6.92895 37.3L1.98159 33.3237C0.96865 32.51 0.379395 31.2808 0.379395 29.9816C0.379395 28.6823 0.96865 27.4531 1.98159 26.6395L6.92895 22.6605C8.07063 21.745 8.66603 20.3101 8.5079 18.8553L7.82106 12.5395C7.67616 11.2442 8.12844 9.95328 9.05007 9.03164C9.97171 8.11001 11.2626 7.65773 12.5579 7.80263L18.8737 8.48947C20.3291 8.64653 21.7643 8.05142 22.6816 6.91052L26.6579 1.9921Z" fill="#0A7B24"/>
<path d="M39.8684 24.0763L29.3921 38.0447C29.0487 38.502 28.5238 38.7879 27.9533 38.8283C27.3828 38.8687 26.8229 38.6596 26.4184 38.2553L20.1316 31.971" stroke="white" stroke-width="5" stroke-linecap="round" stroke-linejoin="round"/>
</svg>
