<?xml version="1.0" encoding="UTF-8"?>
<svg width="38px" height="38px" viewBox="0 0 38 38" version="1.1" xmlns="http://www.w3.org/2000/svg" xmlns:xlink="http://www.w3.org/1999/xlink">
    <title>app-window-link</title>
    <g id="Symbols" stroke="none" stroke-width="1" fill="none" fill-rule="evenodd">
        <g id="New-content-(ver-2)" transform="translate(-20.000000, -82.000000)" fill="#0B2541" fill-rule="nonzero">
            <g id="Add-link" transform="translate(1.000000, 70.000000)">
                <g id="app-window-link" transform="translate(19.000000, 12.000000)">
                    <path d="M3.515,33.25 C1.57628222,33.25 0,31.6524167 0,29.6875 L0,3.5625 C0,1.59758333 1.57628222,0 3.515,0 L31.635,0 C33.5737178,0 35.15,1.59758333 35.15,3.5625 L35.15,13.0625 C35.15,13.718 34.6250933,14.25 33.9783333,14.25 C33.3315733,14.25 32.8066667,13.718 32.8066667,13.0625 L32.8066667,9.5 L2.34333333,9.5 L2.34333333,29.6875 C2.34333333,30.343 2.86824,30.875 3.515,30.875 L12.8883333,30.875 C13.5350933,30.875 14.06,31.407 14.06,32.0625 C14.06,32.718 13.5350933,33.25 12.8883333,33.25 L3.515,33.25 Z M32.8066667,7.125 L32.8066667,3.5625 C32.8066667,2.907 32.28176,2.375 31.635,2.375 L3.515,2.375 C2.86824,2.375 2.34333333,2.907 2.34333333,3.5625 L2.34333333,7.125 L32.8066667,7.125 Z" id="Shape"></path>
                    <path d="M21.7277257,37.9974865 C20.4447242,37.9504584 19.2558601,37.4088768 18.3812934,36.4683149 C16.6731553,34.6342191 16.6731553,31.7609542 18.3797751,29.9268585 L20.3703253,27.9365081 C21.240337,27.0748321 22.3882058,26.6 23.6028817,26.6 C23.7896382,26.6 23.9794313,26.6121363 24.1646694,26.6333748 C24.7871908,26.7092265 25.2335842,27.2765978 25.157667,27.9000993 C25.0878231,28.4705046 24.6004344,28.8998256 24.0219449,28.8998256 C23.9809496,28.8998256 23.938436,28.8983085 23.8959223,28.8937574 C23.7941932,28.8816211 23.6985375,28.875553 23.6044001,28.875553 C22.9925071,28.875553 22.4140176,29.1137276 21.9767343,29.5475997 L20.0180693,31.5045752 C19.1419842,32.4466542 19.1480576,33.9530703 20.0469178,34.9179048 C20.5069764,35.4124583 21.1325345,35.6976609 21.8066796,35.7219335 L21.9053721,35.7234505 C22.5415586,35.7234505 23.1519333,35.4837589 23.6211019,35.0468528 L25.5524367,33.1156668 C26.0565272,32.6074599 26.2994624,31.8762489 26.20077,31.1632423 C26.1582563,30.8628693 26.2372102,30.5624963 26.42093,30.3197706 C26.6046497,30.077045 26.8718784,29.9207904 27.1725107,29.8798304 C27.2241345,29.8722452 27.2772765,29.8692112 27.3304186,29.8692112 C27.8952429,29.8692112 28.379595,30.290947 28.4570306,30.850733 C28.6528971,32.2615759 28.1715817,33.7073106 27.1679557,34.7206902 L25.2032173,36.6837339 C24.286137,37.5363078 23.120048,37.9990035 21.9038537,37.9990035 C21.8461566,38.0005206 21.7884595,38.0005206 21.7277257,37.9974865 Z" id="Path"></path>
                    <path d="M31.4748635,28.5 C31.2651413,28.5 31.0538994,28.4848 30.8472166,28.45592 C30.5463109,28.41336 30.2788391,28.2568 30.0949522,28.0136 C29.9110654,27.7704 29.8335593,27.47096 29.8761117,27.17 C29.9536177,26.61064 30.4399301,26.18808 31.0052682,26.18808 C31.0569388,26.18808 31.1101293,26.19112 31.1633197,26.19872 C31.266661,26.21392 31.3715221,26.22 31.477903,26.22 C32.0918723,26.22 32.6906444,25.97376 33.1237663,25.54664 L35.0811735,23.58584 C35.5142954,23.11616 35.7468135,22.47624 35.7194585,21.79984 C35.6921034,21.12344 35.4033554,20.49872 34.906405,20.0412 C34.4413688,19.61256 33.8319587,19.37544 33.1891145,19.37544 C32.5462704,19.37544 31.9368602,19.61256 31.4718241,20.0412 L29.55241,21.9716 C29.0493807,22.47776 28.8107837,23.17544 28.8974081,23.88376 C28.9733944,24.50696 28.5281146,25.07696 27.9050269,25.15448 C27.854876,25.16056 27.8108039,25.16208 27.7697713,25.16208 C27.1937951,25.16208 26.7059631,24.73192 26.6345359,24.16192 C26.4628069,22.75288 26.9369614,21.36968 27.9354215,20.36344 L29.8897892,18.3996 C30.8031446,17.556 31.9702942,17.1 33.1951934,17.1 C34.4109743,17.1 35.5674859,17.54992 36.4519664,18.36616 C37.3957163,19.23712 37.9443375,20.42576 37.9960081,21.71016 C38.0476788,22.99456 37.5963202,24.2212 36.7239974,25.16664 L34.7301168,27.1624 C33.8699518,28.01208 32.6845655,28.5 31.4748635,28.5 Z" id="Path"></path>
                    <path d="M23.9863121,32.3 C23.6695398,32.3 23.3701901,32.1765206 23.1468656,31.9517247 C22.6843781,31.4894684 22.6843781,30.7359273 23.1468656,30.272088 L30.2742414,23.1482753 C30.4991497,22.9234794 30.7969156,22.8 31.1136879,22.8 C31.4304602,22.8 31.7298099,22.9234794 31.9531344,23.1482753 C32.4156219,23.6105316 32.4156219,24.3640727 31.9531344,24.827912 L24.8257586,31.9517247 C24.6024341,32.1765206 24.3030844,32.3 23.9863121,32.3 Z" id="Path"></path>
                </g>
            </g>
        </g>
    </g>
</svg>
