<svg width="24" height="24" viewBox="0 0 24 24" fill="none" xmlns="http://www.w3.org/2000/svg">
<path fill-rule="evenodd" clip-rule="evenodd" d="M12 0.75C18.213 0.75 23.25 5.787 23.25 12C23.25 18.213 18.213 23.25 12 23.25C5.787 23.25 0.75 18.213 0.75 12C0.75 5.787 5.787 0.75 12 0.75Z" stroke="#0B2541" stroke-width="1.5" stroke-linecap="round" stroke-linejoin="round"/>
<path fill-rule="evenodd" clip-rule="evenodd" d="M4.26698 10.731C3.57898 11.439 3.57898 12.567 4.26698 13.275C5.81798 14.83 8.59098 17.258 12 17.258C15.409 17.258 18.182 14.831 19.734 13.276C20.422 12.568 20.422 11.44 19.734 10.732C18.183 9.17705 15.406 6.74805 12 6.74805C8.59398 6.74805 5.81898 9.17505 4.26698 10.731Z" stroke="#0B2541" stroke-width="1.5" stroke-linecap="round" stroke-linejoin="round"/>
<path fill-rule="evenodd" clip-rule="evenodd" d="M12 9.75C13.243 9.75 14.25 10.757 14.25 12C14.25 13.243 13.243 14.25 12 14.25C10.757 14.25 9.75 13.243 9.75 12C9.75 10.757 10.757 9.75 12 9.75Z" stroke="#0B2541" stroke-width="1.5" stroke-linecap="round" stroke-linejoin="round"/>
</svg>
