<svg width="33" height="36" viewBox="0 0 33 36" fill="none" xmlns="http://www.w3.org/2000/svg">
<path fillRule="evenodd" clipRule="evenodd" d="M16 30.5C24.2843 30.5 31 23.7843 31 15.5C31 7.21573 24.2843 0.5 16 0.5C7.71573 0.5 1 7.21573 1 15.5C1 23.7843 7.71573 30.5 16 30.5Z" fill="#0B2541" stroke="#0B2541"/>
<path d="M9.414 15.5L8 16.914L13.414 22.328L24.828 10.914L23.414 9.5L13.414 19.5L9.414 15.5Z" fill="white"/>
<path fillRule="evenodd" clipRule="evenodd" d="M25 34.5C28.866 34.5 32 31.366 32 27.5C32 23.634 28.866 20.5 25 20.5C21.134 20.5 18 23.634 18 27.5C18 31.366 21.134 34.5 25 34.5Z" fill="white" stroke="#0B2541"/>
<path fillRule="evenodd" clipRule="evenodd" d="M22 28.5C22.5523 28.5 23 28.0523 23 27.5C23 26.9477 22.5523 26.5 22 26.5C21.4477 26.5 21 26.9477 21 27.5C21 28.0523 21.4477 28.5 22 28.5Z" fill="#0B2541"/>
<path fillRule="evenodd" clipRule="evenodd" d="M25 28.5C25.5523 28.5 26 28.0523 26 27.5C26 26.9477 25.5523 26.5 25 26.5C24.4477 26.5 24 26.9477 24 27.5C24 28.0523 24.4477 28.5 25 28.5Z" fill="#0B2541"/>
<path fillRule="evenodd" clipRule="evenodd" d="M28 28.5C28.5523 28.5 29 28.0523 29 27.5C29 26.9477 28.5523 26.5 28 26.5C27.4477 26.5 27 26.9477 27 27.5C27 28.0523 27.4477 28.5 28 28.5Z" fill="#0B2541"/>
</svg>
