<?xml version="1.0" encoding="UTF-8"?>
<svg width="32px" height="32px" viewBox="0 0 32 32" version="1.1" xmlns="http://www.w3.org/2000/svg" xmlns:xlink="http://www.w3.org/1999/xlink">
    <title>Cogs</title>
    <g id="Teaching-Path---V3" stroke="none" stroke-width="1" fill="none" fill-rule="evenodd" stroke-linecap="round" stroke-linejoin="round">
        <g id="New-Teaching-Path---Create-(add-articles)---Filters-opened" transform="translate(-57.000000, -551.000000)" stroke="#0B2541" stroke-width="1.8">
            <g id="Velg-oppgaver" transform="translate(-1.000000, 77.000000)">
                <g id="Sub-Menu" transform="translate(57.000000, 34.000000)">
                    <g id="Cogs" transform="translate(2.000000, 441.000000)">
                        <path d="M8.57081205,11.795825 C8.89625819,12.1551924 9.35847332,12.3601937 9.84329089,12.3601937 C10.3281085,12.3601937 10.7903236,12.1551924 11.1157697,11.795825 L11.9387137,10.8770249 C12.4249035,10.3393549 13.1967242,10.1656465 13.8663693,10.4431806 C14.5360143,10.7207148 14.958702,11.3894867 14.9220499,12.1134674 L14.8603619,13.3394093 C14.8330583,13.8245324 15.0138579,14.2982883 15.3574187,14.641865 C15.7009794,14.9854418 16.1747132,15.1662499 16.6598137,15.138945 L17.8856984,15.0772541 C18.6101193,15.0396013 19.2797003,15.4623869 19.5571706,16.1326521 C19.834641,16.8029172 19.659822,17.5752925 19.1207707,18.0607294 L18.2098885,18.8837118 C17.8497877,19.2087448 17.644257,19.6711406 17.644257,20.15625 C17.644257,20.6413594 17.8497877,21.1037552 18.2098885,21.4287882 L19.1207707,22.2517706 C19.659822,22.7372075 19.834641,23.5095828 19.5571706,24.1798479 C19.2797003,24.8501131 18.6101193,25.2728987 17.8856984,25.2352459 L16.6598137,25.173555 C16.1752846,25.1483614 15.7028031,25.3298504 15.3597265,25.672943 C15.01665,26.0160355 14.8351694,26.4885391 14.8603619,26.9730907 L14.9220499,28.1990326 C14.958702,28.9230133 14.5360143,29.5917852 13.8663693,29.8693194 C13.1967242,30.1468535 12.4249035,29.9731451 11.9387137,29.4354751 L11.1157697,28.516675 C10.7903236,28.1573076 10.3281085,27.9523063 9.84329089,27.9523063 C9.35847332,27.9523063 8.89625819,28.1573076 8.57081205,28.516675 L7.74786802,29.4354751 C7.26167828,29.9731451 6.48985754,30.1468535 5.82021249,29.8693194 C5.15056744,29.5917852 4.72787979,28.9230133 4.76453187,28.1990326 L4.82621986,26.9730907 C4.85057676,26.4887669 4.66882678,26.0167585 4.32594127,25.673857 C3.98305576,25.3309555 3.51106933,25.149197 3.02676809,25.173555 L1.80088338,25.2352459 C1.07693647,25.2718997 0.408195717,24.8491923 0.130674539,24.179516 C-0.146846638,23.5098398 0.0268536833,22.737983 0.564498574,22.2517706 L1.47669331,21.4287882 C1.83604394,21.1033269 2.0410356,20.6410902 2.0410356,20.15625 C2.0410356,19.6714098 1.83604394,19.2091731 1.47669331,18.8837118 L0.564498574,18.0607294 C0.0268536833,17.574517 -0.146846638,16.8026602 0.130674539,16.132984 C0.408195717,15.4633077 1.07693647,15.0406003 1.80088338,15.0772541 L3.02676809,15.138945 C3.51129714,15.1641386 3.98377866,14.9826496 4.32685522,14.639557 C4.66993179,14.2964645 4.85141236,13.8239609 4.82621986,13.3394093 L4.76453187,12.1134674 C4.72787979,11.3894867 5.15056744,10.7207148 5.82021249,10.4431806 C6.48985754,10.1656465 7.26167828,10.3393549 7.74786802,10.8770249 L8.57081205,11.795825 Z" id="Path"></path>
                        <path d="M7.5,20.15625 C7.5,21.4506674 8.54933262,22.5 9.84375,22.5 C11.1381674,22.5 12.1875,21.4506674 12.1875,20.15625 C12.1875,18.8618326 11.1381674,17.8125 9.84375,17.8125 C8.54933262,17.8125 7.5,18.8618326 7.5,20.15625 L7.5,20.15625 Z" id="Path"></path>
                        <path d="M23.90625,5.7421875 C23.7120874,5.7421875 23.5546875,5.89958739 23.5546875,6.09375 C23.5546875,6.28791261 23.7120874,6.4453125 23.90625,6.4453125 C24.1004126,6.4453125 24.2578125,6.28791261 24.2578125,6.09375 C24.2578125,5.89958739 24.1004126,5.7421875 23.90625,5.7421875 L23.90625,5.7421875" id="Path"></path>
                        <path d="M27.2839363,1.43212891 C27.6502744,1.28950499 28.0662824,1.37689742 28.3442621,1.65487567 C28.6222417,1.93285391 28.7096346,2.34885988 28.56701,2.7151961 L27.9063129,4.41450031 C27.7494173,4.8171648 27.8719182,5.2750698 28.2089122,5.54560794 L29.6294108,6.68728667 C29.9357102,6.93323415 30.0678325,7.33687912 29.9662426,7.71633685 C29.8646528,8.09579457 29.548528,8.37943431 29.1603159,8.43944639 L27.3592558,8.71825913 C26.9321256,8.78357073 26.5967353,9.11842444 26.5307417,9.54544766 L26.2519276,11.3478201 C26.1919152,11.7360302 25.908274,12.0521534 25.5288144,12.1537428 C25.1493548,12.2553322 24.7457078,12.1232105 24.4997591,11.8169126 L23.3580746,10.3964212 C23.0873913,10.0596976 22.6299586,9.9367899 22.2269613,10.092502 L20.5276486,10.7531958 C20.1613105,10.8958197 19.7453025,10.8084272 19.4673228,10.530449 C19.1893432,10.2524708 19.1019503,9.83646479 19.244575,9.47012857 L19.905272,7.77082436 C20.0621676,7.36815987 19.9396667,6.91025487 19.6026728,6.63971673 L18.1821742,5.49671661 C17.8764642,5.25096806 17.7447272,4.84787108 17.8463089,4.46901594 C17.9478907,4.0901608 18.2636217,3.80704143 18.651269,3.74719967 L20.4523291,3.46838692 C20.8794661,3.40212664 21.2145826,3.06701181 21.2808432,2.63987701 L21.5596573,0.840147351 C21.6190386,0.451849273 21.9024383,0.135419345 22.2818701,0.0337607747 C22.6613019,-0.0678977955 23.0649429,0.0644579912 23.3105044,0.371054818 L24.4535103,1.79154629 C24.7242925,2.12816614 25.1819327,2.25059497 25.5846236,2.09414401 L27.2839363,1.43212891 Z" id="Path"></path>
                    </g>
                </g>
            </g>
        </g>
    </g>
</svg>