<svg width="50" height="50" viewBox="0 0 50 50" fill="none" xmlns="http://www.w3.org/2000/svg">
<path d="M48.4375 35.9375C48.4375 42.8417 42.8417 48.4375 35.9375 48.4375C29.0333 48.4375 23.4375 42.8417 23.4375 35.9375C23.4375 29.0333 29.0333 23.4375 35.9375 23.4375" stroke="#0B2541" stroke-width="3.125" stroke-linecap="round" stroke-linejoin="round"/>
<path d="M48.4375 26.5604L37.0417 37.9563C36.4333 38.5667 35.4437 38.5667 34.8354 37.9583L34.8333 37.9563L31.25 34.375" stroke="#0B2541" stroke-width="3.125" stroke-linecap="round" stroke-linejoin="round"/>
<path d="M22.4625 21.9021C20.1437 19.8563 17.1542 18.7354 14.0625 18.75C7.725 18.7 2.35417 23.4 1.5625 29.6875" stroke="#0B2541" stroke-width="3.125" stroke-linecap="round" stroke-linejoin="round"/>
<path fill-rule="evenodd" clip-rule="evenodd" d="M14.0625 1.5625C17.9458 1.5625 21.0938 4.71042 21.0938 8.59375C21.0938 12.4771 17.9458 15.625 14.0625 15.625C10.1792 15.625 7.03125 12.4771 7.03125 8.59375C7.03125 4.71042 10.1792 1.5625 14.0625 1.5625Z" stroke="#0B2541" stroke-width="3.125" stroke-linecap="round" stroke-linejoin="round"/>
<path fill-rule="evenodd" clip-rule="evenodd" d="M34.375 1.5625C37.3958 1.5625 39.8438 4.01042 39.8438 7.03125C39.8438 10.0521 37.3958 12.5 34.375 12.5C31.3542 12.5 28.9062 10.0521 28.9062 7.03125C28.9062 4.01042 31.3542 1.5625 34.375 1.5625Z" stroke="#0B2541" stroke-width="3.125" stroke-linecap="round" stroke-linejoin="round"/>
<path d="M42.4998 18.75C39.9103 14.2667 34.1748 12.7313 29.6915 15.3229C28.7998 15.8375 27.9998 16.4958 27.3228 17.2708" stroke="#0B2541" stroke-width="3.125" stroke-linecap="round" stroke-linejoin="round"/>
</svg>
