<?xml version="1.0" encoding="UTF-8"?>
<svg width="34px" height="33px" viewBox="0 0 34 33" version="1.1" xmlns="http://www.w3.org/2000/svg" xmlns:xlink="http://www.w3.org/1999/xlink">
    <title>Core</title>
    <g id="Teaching-Path---V3" stroke="none" stroke-width="1" fill="none" fill-rule="evenodd" stroke-linecap="round" stroke-linejoin="round">
        <g id="New-Teaching-Path---Create-(add-articles)---Filters-opened" transform="translate(-56.000000, -441.000000)" stroke="#0B2541" stroke-width="1.8">
            <g id="Velg-oppgaver" transform="translate(-1.000000, 77.000000)">
                <g id="Sub-Menu" transform="translate(57.000000, 34.000000)">
                    <g id="Core" transform="translate(2.094144, 331.745181)">
                        <path d="M12.7629987,14.9061587 C12.7629987,16.089626 13.7223886,17.0490158 14.9058559,17.0490158 C16.0893232,17.0490158 17.048713,16.089626 17.048713,14.9061587 C17.048713,13.7226913 16.0893232,12.7633015 14.9058559,12.7633015 C13.7223886,12.7633015 12.7629987,13.7226913 12.7629987,14.9061587 Z" id="Path"></path>
                        <path d="M-0.709466334,14.9155337 C-0.709466334,17.9358409 6.28608445,20.3842837 14.9155337,20.3842837 C23.5449829,20.3842837 30.5405337,17.9358409 30.5405337,14.9155337 C30.5405337,11.8952264 23.5449829,9.44678367 14.9155337,9.44678367 C6.28608445,9.44678367 -0.709466334,11.8952264 -0.709466334,14.9155337 Z" id="Path" transform="translate(14.915534, 14.915534) rotate(-45.000000) translate(-14.915534, -14.915534) "></path>
                        <path d="M9.44678367,14.9155337 C9.44678367,23.5449829 11.8952264,30.5405337 14.9155337,30.5405337 C17.9358409,30.5405337 20.3842837,23.5449829 20.3842837,14.9155337 C20.3842837,6.28608445 17.9358409,-0.709466334 14.9155337,-0.709466334 C11.8952264,-0.709466334 9.44678367,6.28608445 9.44678367,14.9155337 Z" id="Path" transform="translate(14.915534, 14.915534) rotate(-45.000000) translate(-14.915534, -14.915534) "></path>
                    </g>
                </g>
            </g>
        </g>
    </g>
</svg>
