<?xml version="1.0" encoding="UTF-8"?>
<svg width="40px" height="40px" viewBox="0 0 40 40" version="1.1" xmlns="http://www.w3.org/2000/svg" xmlns:xlink="http://www.w3.org/1999/xlink">
    <!-- Generator: Sketch 62 (91390) - https://sketch.com -->
    <title>Icon</title>
    <desc>Created with Sketch.</desc>
    <g id="Symbols" stroke="none" stroke-width="1" fill="none" fill-rule="evenodd" stroke-linecap="round" stroke-linejoin="round">
        <g id="New-content-(ver-2)" transform="translate(-19.000000, -136.000000)" stroke="#0B2541" stroke-width="2.5">
            <g id="Create-Assignment">
                <g transform="translate(20.000000, 137.000000)">
                    <g id="Icon">
                        <path d="M36.7166667,23.7833333 L24,36.5 L17.75,37.75 L19,31.5 L31.7166667,18.7833333 C33.0916667,17.4066667 35.3216667,17.405 36.7,18.78 C36.7016667,18.7816667 36.7033333,18.7833333 36.7033333,18.7833333 L36.7166667,18.7966667 C38.0466667,20.165 38.0083333,22.3783333 36.7166667,23.7833333 Z" id="Path"></path>
                        <g id="streamline-icon-quill-circle@24x24" transform="translate(5.000000, 7.000000)">
                            <line x1="0" y1="17" x2="9" y2="8" id="Path"></line>
                            <path d="M16.8996719,0.0841494583 C15.8558879,-0.0280498194 14.8036975,-0.0280498194 13.7599135,0.0841494583 L10.9578087,4.54407075 L9.23311327,1.33517141 C2.9858207,4.40522414 0.546588504,11.8229989 2.85692388,14.139914 C5.95885385,17.245029 18.2292706,11.8019615 16.8996719,0.0841494583 Z" id="Path"></path>
                        </g>
                        <path d="M11.5,32.75 L2.75,32.75 C1.37,32.75 0.25,31.63 0.25,30.25 L0.25,2.75 C0.25,1.37 1.37,0.25 2.75,0.25 L20.465,0.25 C21.1283333,0.25 21.7633333,0.513333333 22.2316667,0.981666667 L27.0183333,5.76833333 C27.4866667,6.23666667 27.75,6.87166667 27.75,7.535 L27.75,12.75" id="Path"></path>
                    </g>
                </g>
            </g>
        </g>
    </g>
</svg>