<?xml version="1.0" encoding="UTF-8"?>
<svg width="27px" height="30px" viewBox="0 0 27 30" version="1.1" xmlns="http://www.w3.org/2000/svg" xmlns:xlink="http://www.w3.org/1999/xlink">
    <title>Target</title>
    <g id="Teaching-Path---V3" stroke="none" stroke-width="1" fill="none" fill-rule="evenodd" stroke-linecap="round" stroke-linejoin="round">
        <g id="New-Teaching-Path---Create-(add-articles)---Filters-opened" transform="translate(-57.000000, -868.000000)" stroke="white" stroke-width="1.8">
            <g id="Velg-oppgaver" transform="translate(-1.000000, 77.000000)">
                <g id="Sub-Menu" transform="translate(57.000000, 34.000000)">
                    <g id="Target" transform="translate(2.000000, 758.000000)">
                        <line x1="11.6071429" y1="13.3928571" x2="16.9642857" y2="8.03571429" id="Path"></line>
                        <polygon id="Path" points="16.9642857 8.03571429 17.6217743 3.69490061 21.3814977 0 21.962588 3.03741203 25 3.61850228 21.3050994 7.37822571"></polygon>
                        <path d="M23.7075533,10.7649357 C25.0522339,15.8625221 22.9281786,21.2425467 18.4639238,24.0465369 C13.9996691,26.8505271 8.23122239,26.4277685 4.22342974,23.0028779 C0.215637089,19.5779873 -1.10142393,13.9457698 0.972017241,9.09869112 C3.04545841,4.25161243 8.02822388,1.31452102 13.2729097,1.84792932" id="Path"></path>
                        <path d="M18.5658301,12.781234 C19.2076436,15.3692619 18.136969,18.0794912 15.8997289,19.5300119 C13.6624889,20.9805326 10.7514341,20.8518686 8.65087281,19.2096239 C6.5503115,17.5673792 5.72289085,14.773257 6.59050169,12.2519433 C7.45811253,9.73062965 9.82966416,8.03744197 12.4959338,8.03571429" id="Path"></path>
                        <line x1="6.13839286" y1="24.1071429" x2="5.46875" y2="27.6785714" id="Path"></line>
                        <line x1="18.8616071" y1="24.1071429" x2="19.53125" y2="27.6785714" id="Path"></line>
                    </g>
                </g>
            </g>
        </g>
    </g>
</svg>