<svg width="30" height="31" viewBox="0 0 30 31" fill="none" xmlns="http://www.w3.org/2000/svg">
<path d="M14.96 15.7627C13.855 13.1127 11.3075 11.349 8.4375 11.2502C4.635 11.2202 1.4125 14.0402 0.9375 17.8127" stroke="#0B2541" stroke-width="1.875" stroke-linecap="round" stroke-linejoin="round"/>
<path fill-rule="evenodd" clip-rule="evenodd" d="M8.4375 0.936523C10.7675 0.936523 12.6562 2.82527 12.6562 5.15527C12.6562 7.48527 10.7675 9.37402 8.4375 9.37402C6.1075 9.37402 4.21875 7.48527 4.21875 5.15527C4.21875 2.82527 6.1075 0.936523 8.4375 0.936523Z" stroke="#0B2541" stroke-width="1.875" stroke-linecap="round" stroke-linejoin="round"/>
<path fill-rule="evenodd" clip-rule="evenodd" d="M20.625 0.936523C22.4375 0.936523 23.9062 2.40527 23.9062 4.21777C23.9062 6.03027 22.4375 7.49902 20.625 7.49902C18.8125 7.49902 17.3438 6.03027 17.3438 4.21777C17.3438 2.40527 18.8125 0.936523 20.625 0.936523Z" stroke="#0B2541" stroke-width="1.875" stroke-linecap="round" stroke-linejoin="round"/>
<path d="M25.5 11.2497C23.945 8.55973 20.5038 7.64098 17.815 9.19598C17.2813 9.50473 16.8013 9.89973 16.395 10.3635" stroke="#0B2541" stroke-width="1.875" stroke-linecap="round" stroke-linejoin="round"/>
<path fill-rule="evenodd" clip-rule="evenodd" d="M20.625 17.8838L12.1875 21.3588L20.625 24.4463L29.0625 21.3588L20.625 17.8838Z" stroke="#0B2541" stroke-width="1.875" stroke-linecap="round" stroke-linejoin="round"/>
<path d="M12.1875 21.3311V26.0461" stroke="#0B2541" stroke-width="1.875" stroke-linecap="round" stroke-linejoin="round"/>
<path d="M15.9375 22.7314V26.6252C15.935 27.0102 16.1688 27.3564 16.5263 27.5002L20.2763 29.0002C20.5 29.0889 20.7488 29.0889 20.9725 29.0002L24.7225 27.5002C25.08 27.3577 25.3138 27.0102 25.3125 26.6252V22.7314" stroke="#0B2541" stroke-width="1.875" stroke-linecap="round" stroke-linejoin="round"/>
</svg>
