<?xml version="1.0" encoding="UTF-8"?>
<svg width="27px" height="27px" viewBox="0 0 27 27" version="1.1" xmlns="http://www.w3.org/2000/svg" xmlns:xlink="http://www.w3.org/1999/xlink">
    <title>Teacher Guidance</title>
    <g id="Teaching-Path---Teacher-Guidance" stroke="none" stroke-width="1" fill="none" fill-rule="evenodd">
        <g id="New-TP---Teacher-Guidance-(Edit)" transform="translate(-707.000000, -550.000000)" stroke="#596A75">
            <g id="1-choice" transform="translate(559.000000, 468.000000)">
                <g id="Path-actions" transform="translate(109.000000, 83.000000)">
                    <g id="Teacher-Guidance" transform="translate(40.000000, 0.000000)">
                        <rect id="Rectangle" fill="#FFFFFF" x="0" y="0" width="25" height="25" rx="12.5"></rect>
                        <g id="Group" transform="translate(4.869565, 5.000000)" stroke-linecap="round" stroke-linejoin="round">
                            <line x1="7.30434783" y1="11.1304348" x2="7.30434783" y2="16" id="Path"></line>
                            <line x1="7.30434783" y1="0" x2="7.30434783" y2="1.39130435" id="Path"></line>
                            <line x1="7.30434783" y1="5.56521739" x2="7.30434783" y2="6.95652174" id="Path"></line>
                            <path d="M13.5367927,5.46365217 C13.4742176,5.52867405 13.3894476,5.56521739 13.3010647,5.56521739 L2.42084886,5.56521739 C2.23644521,5.56521739 2.08695652,5.40949035 2.08695652,5.2173913 L2.08695652,1.73913043 C2.08695652,1.54703139 2.23644521,1.39130435 2.42084886,1.39130435 L13.3010647,1.39130435 C13.3894476,1.39130435 13.4742176,1.42784768 13.5367927,1.49286957 L15.2062544,3.232 C15.269054,3.29725514 15.3043478,3.3858593 15.3043478,3.47826087 C15.3043478,3.57066244 15.269054,3.6592666 15.2062544,3.72452174 L13.5367927,5.46365217 Z" id="Path"></path>
                            <path d="M1.76755513,11.0288696 C1.83013025,11.0938914 1.91490018,11.1304348 2.00328312,11.1304348 L12.883499,11.1304348 C13.0679026,11.1304348 13.2173913,10.9747077 13.2173913,10.7826087 L13.2173913,7.30434783 C13.2173913,7.11224878 13.0679026,6.95652174 12.883499,6.95652174 L2.00328312,6.95652174 C1.91490018,6.95652174 1.83013025,6.99306508 1.76755513,7.05808696 L0.0980934188,8.79721739 C0.0352938115,8.86247253 0,8.95107669 0,9.04347826 C0,9.13587983 0.0352938115,9.22448399 0.0980934188,9.28973913 L1.76755513,11.0288696 Z" id="Path"></path>
                        </g>
                    </g>
                </g>
            </g>
        </g>
    </g>
</svg>