<svg width="27" height="27" viewBox="0 0 28 28" fill="none" xmlns="http://www.w3.org/2000/svg">
<path fillRule="evenodd" clipRule="evenodd" d="M14 27C21.1797 27 27 21.1797 27 14C27 6.8203 21.1797 1 14 1C6.8203 1 1 6.8203 1 14C1 21.1797 6.8203 27 14 27Z" stroke="#0B2541" strokeWidth="1.5"/>
<path fillRule="evenodd" clipRule="evenodd" d="M7.5 12.375C6.603 12.375 5.875 13.103 5.875 14C5.875 14.897 6.603 15.625 7.5 15.625C8.397 15.625 9.125 14.897 9.125 14C9.125 13.103 8.397 12.375 7.5 12.375Z" stroke="#0B2541" strokeWidth="1.625" strokeLinecap="round" strokeLinejoin="round"/>
<path fillRule="evenodd" clipRule="evenodd" d="M20.5 12.375C19.603 12.375 18.875 13.103 18.875 14C18.875 14.897 19.603 15.625 20.5 15.625C21.397 15.625 22.125 14.897 22.125 14C22.125 13.103 21.397 12.375 20.5 12.375Z" stroke="#0B2541" strokeWidth="1.625" strokeLinecap="round" strokeLinejoin="round"/>
<path fillRule="evenodd" clipRule="evenodd" d="M14 12.375C13.103 12.375 12.375 13.103 12.375 14C12.375 14.897 13.103 15.625 14 15.625C14.897 15.625 15.625 14.897 15.625 14C15.625 13.103 14.897 12.375 14 12.375Z" stroke="#0B2541" strokeWidth="1.625" strokeLinecap="round" strokeLinejoin="round"/>
</svg>
