<svg width="290" height="277" viewBox="0 0 290 277" fill="none" xmlns="http://www.w3.org/2000/svg">
<g clip-path="url(#clip0)">
<path d="M52.2184 138.508L50.5244 135.252H50.4584V147H48.0824V131.644H50.8544L55.8704 140.136L57.5644 143.392H57.6304V131.644H60.0064V147H57.2344L52.2184 138.508ZM68.0995 147.264C67.3075 147.264 66.5815 147.125 65.9215 146.846C65.2762 146.567 64.7262 146.171 64.2715 145.658C63.8168 145.13 63.4648 144.499 63.2155 143.766C62.9662 143.018 62.8415 142.189 62.8415 141.28C62.8415 140.371 62.9662 139.549 63.2155 138.816C63.4648 138.068 63.8168 137.437 64.2715 136.924C64.7262 136.396 65.2762 135.993 65.9215 135.714C66.5815 135.435 67.3075 135.296 68.0995 135.296C68.8915 135.296 69.6102 135.435 70.2555 135.714C70.9155 135.993 71.4728 136.396 71.9275 136.924C72.3822 137.437 72.7342 138.068 72.9835 138.816C73.2328 139.549 73.3575 140.371 73.3575 141.28C73.3575 142.189 73.2328 143.018 72.9835 143.766C72.7342 144.499 72.3822 145.13 71.9275 145.658C71.4728 146.171 70.9155 146.567 70.2555 146.846C69.6102 147.125 68.8915 147.264 68.0995 147.264ZM68.0995 145.284C68.9208 145.284 69.5808 145.035 70.0795 144.536C70.5782 144.023 70.8275 143.26 70.8275 142.248V140.312C70.8275 139.3 70.5782 138.545 70.0795 138.046C69.5808 137.533 68.9208 137.276 68.0995 137.276C67.2782 137.276 66.6182 137.533 66.1195 138.046C65.6208 138.545 65.3715 139.3 65.3715 140.312V142.248C65.3715 143.26 65.6208 144.023 66.1195 144.536C66.6182 145.035 67.2782 145.284 68.0995 145.284ZM79.133 147C78.297 147 77.6664 146.787 77.241 146.362C76.8157 145.922 76.603 145.306 76.603 144.514V137.518H74.821V135.56H75.789C76.185 135.56 76.4564 135.472 76.603 135.296C76.7644 135.12 76.845 134.834 76.845 134.438V132.436H79.001V135.56H81.399V137.518H79.001V145.042H81.223V147H79.133ZM84.0002 130.72H86.3982V137.452H86.5082C86.7575 136.836 87.1315 136.323 87.6302 135.912C88.1435 135.501 88.8402 135.296 89.7202 135.296C90.8935 135.296 91.8028 135.685 92.4482 136.462C93.1082 137.225 93.4382 138.317 93.4382 139.74V147H91.0402V140.026C91.0402 138.251 90.3215 137.364 88.8842 137.364C88.5762 137.364 88.2682 137.408 87.9602 137.496C87.6668 137.569 87.4028 137.687 87.1682 137.848C86.9335 138.009 86.7428 138.215 86.5962 138.464C86.4642 138.713 86.3982 138.999 86.3982 139.322V147H84.0002V130.72ZM97.9719 133.514C97.4732 133.514 97.1066 133.397 96.8719 133.162C96.6519 132.927 96.5419 132.627 96.5419 132.26V131.886C96.5419 131.519 96.6519 131.219 96.8719 130.984C97.1066 130.749 97.4732 130.632 97.9719 130.632C98.4706 130.632 98.8299 130.749 99.0499 130.984C99.2699 131.219 99.3799 131.519 99.3799 131.886V132.26C99.3799 132.627 99.2699 132.927 99.0499 133.162C98.8299 133.397 98.4706 133.514 97.9719 133.514ZM96.7619 135.56H99.1599V147H96.7619V135.56ZM102.584 147V135.56H104.982V137.452H105.092C105.341 136.836 105.715 136.323 106.214 135.912C106.727 135.501 107.424 135.296 108.304 135.296C109.477 135.296 110.387 135.685 111.032 136.462C111.692 137.225 112.022 138.317 112.022 139.74V147H109.624V140.048C109.624 138.259 108.905 137.364 107.468 137.364C107.16 137.364 106.852 137.408 106.544 137.496C106.251 137.569 105.987 137.687 105.752 137.848C105.517 138.009 105.327 138.215 105.18 138.464C105.048 138.713 104.982 139.007 104.982 139.344V147H102.584ZM125.378 148.078C125.378 149.266 124.923 150.161 124.014 150.762C123.105 151.363 121.623 151.664 119.57 151.664C118.631 151.664 117.832 151.598 117.172 151.466C116.527 151.349 115.991 151.173 115.566 150.938C115.155 150.703 114.855 150.417 114.664 150.08C114.473 149.743 114.378 149.354 114.378 148.914C114.378 148.283 114.547 147.792 114.884 147.44C115.236 147.088 115.72 146.846 116.336 146.714V146.472C115.471 146.193 115.038 145.607 115.038 144.712C115.038 144.125 115.236 143.678 115.632 143.37C116.028 143.047 116.505 142.82 117.062 142.688V142.6C116.387 142.277 115.867 141.83 115.5 141.258C115.148 140.671 114.972 139.989 114.972 139.212C114.972 138.039 115.361 137.093 116.138 136.374C116.93 135.655 118.059 135.296 119.526 135.296C120.333 135.296 121.022 135.413 121.594 135.648V135.34C121.594 134.827 121.711 134.431 121.946 134.152C122.195 133.859 122.577 133.712 123.09 133.712H124.85V135.648H122.518V136.11C123.031 136.447 123.427 136.887 123.706 137.43C123.985 137.958 124.124 138.552 124.124 139.212C124.124 140.371 123.728 141.309 122.936 142.028C122.144 142.732 121.015 143.084 119.548 143.084C118.991 143.084 118.492 143.025 118.052 142.908C117.759 143.011 117.502 143.157 117.282 143.348C117.062 143.524 116.952 143.759 116.952 144.052C116.952 144.36 117.091 144.58 117.37 144.712C117.649 144.844 118.045 144.91 118.558 144.91H121.374C122.782 144.91 123.801 145.196 124.432 145.768C125.063 146.325 125.378 147.095 125.378 148.078ZM123.134 148.342C123.134 147.946 122.98 147.631 122.672 147.396C122.379 147.161 121.836 147.044 121.044 147.044H117.172C116.644 147.352 116.38 147.792 116.38 148.364C116.38 148.833 116.563 149.207 116.93 149.486C117.311 149.779 117.949 149.926 118.844 149.926H120.34C122.203 149.926 123.134 149.398 123.134 148.342ZM119.548 141.346C120.252 141.346 120.795 141.192 121.176 140.884C121.572 140.561 121.77 140.07 121.77 139.41V138.97C121.77 138.31 121.572 137.826 121.176 137.518C120.795 137.195 120.252 137.034 119.548 137.034C118.844 137.034 118.294 137.195 117.898 137.518C117.517 137.826 117.326 138.31 117.326 138.97V139.41C117.326 140.07 117.517 140.561 117.898 140.884C118.294 141.192 118.844 141.346 119.548 141.346ZM135.53 147C134.694 147 134.063 146.787 133.638 146.362C133.212 145.922 133 145.306 133 144.514V137.518H131.218V135.56H132.186C132.582 135.56 132.853 135.472 133 135.296C133.161 135.12 133.242 134.834 133.242 134.438V132.436H135.398V135.56H137.796V137.518H135.398V145.042H137.62V147H135.53ZM144.799 147.264C144.007 147.264 143.281 147.125 142.621 146.846C141.975 146.567 141.425 146.171 140.971 145.658C140.516 145.13 140.164 144.499 139.915 143.766C139.665 143.018 139.541 142.189 139.541 141.28C139.541 140.371 139.665 139.549 139.915 138.816C140.164 138.068 140.516 137.437 140.971 136.924C141.425 136.396 141.975 135.993 142.621 135.714C143.281 135.435 144.007 135.296 144.799 135.296C145.591 135.296 146.309 135.435 146.955 135.714C147.615 135.993 148.172 136.396 148.627 136.924C149.081 137.437 149.433 138.068 149.683 138.816C149.932 139.549 150.057 140.371 150.057 141.28C150.057 142.189 149.932 143.018 149.683 143.766C149.433 144.499 149.081 145.13 148.627 145.658C148.172 146.171 147.615 146.567 146.955 146.846C146.309 147.125 145.591 147.264 144.799 147.264ZM144.799 145.284C145.62 145.284 146.28 145.035 146.779 144.536C147.277 144.023 147.527 143.26 147.527 142.248V140.312C147.527 139.3 147.277 138.545 146.779 138.046C146.28 137.533 145.62 137.276 144.799 137.276C143.977 137.276 143.317 137.533 142.819 138.046C142.32 138.545 142.071 139.3 142.071 140.312V142.248C142.071 143.26 142.32 144.023 142.819 144.536C143.317 145.035 143.977 145.284 144.799 145.284ZM161.558 147.264C160.473 147.264 159.563 147.073 158.83 146.692C158.097 146.311 157.459 145.783 156.916 145.108L158.456 143.7C158.881 144.213 159.351 144.617 159.864 144.91C160.392 145.189 161.001 145.328 161.69 145.328C162.394 145.328 162.915 145.196 163.252 144.932C163.604 144.653 163.78 144.272 163.78 143.788C163.78 143.421 163.655 143.113 163.406 142.864C163.171 142.6 162.753 142.431 162.152 142.358L161.096 142.226C159.923 142.079 158.999 141.742 158.324 141.214C157.664 140.671 157.334 139.872 157.334 138.816C157.334 138.259 157.437 137.767 157.642 137.342C157.847 136.902 158.133 136.535 158.5 136.242C158.881 135.934 159.329 135.699 159.842 135.538C160.37 135.377 160.949 135.296 161.58 135.296C162.607 135.296 163.443 135.457 164.088 135.78C164.748 136.103 165.335 136.55 165.848 137.122L164.374 138.53C164.081 138.178 163.692 137.877 163.208 137.628C162.739 137.364 162.196 137.232 161.58 137.232C160.92 137.232 160.429 137.364 160.106 137.628C159.798 137.892 159.644 138.237 159.644 138.662C159.644 139.102 159.783 139.432 160.062 139.652C160.341 139.872 160.788 140.033 161.404 140.136L162.46 140.268C163.721 140.459 164.638 140.833 165.21 141.39C165.797 141.933 166.09 142.666 166.09 143.59C166.09 144.147 165.98 144.653 165.76 145.108C165.555 145.548 165.254 145.929 164.858 146.252C164.462 146.575 163.985 146.824 163.428 147C162.871 147.176 162.247 147.264 161.558 147.264ZM173.287 147.264C172.466 147.264 171.732 147.125 171.087 146.846C170.442 146.567 169.892 146.171 169.437 145.658C168.982 145.13 168.63 144.499 168.381 143.766C168.146 143.018 168.029 142.189 168.029 141.28C168.029 140.371 168.146 139.549 168.381 138.816C168.63 138.068 168.982 137.437 169.437 136.924C169.892 136.396 170.442 135.993 171.087 135.714C171.732 135.435 172.466 135.296 173.287 135.296C174.123 135.296 174.856 135.443 175.487 135.736C176.132 136.029 176.668 136.44 177.093 136.968C177.518 137.481 177.834 138.083 178.039 138.772C178.259 139.461 178.369 140.202 178.369 140.994V141.896H170.515V142.27C170.515 143.15 170.772 143.876 171.285 144.448C171.813 145.005 172.561 145.284 173.529 145.284C174.233 145.284 174.827 145.13 175.311 144.822C175.795 144.514 176.206 144.096 176.543 143.568L177.951 144.954C177.526 145.658 176.91 146.223 176.103 146.648C175.296 147.059 174.358 147.264 173.287 147.264ZM173.287 137.166C172.876 137.166 172.495 137.239 172.143 137.386C171.806 137.533 171.512 137.738 171.263 138.002C171.028 138.266 170.845 138.581 170.713 138.948C170.581 139.315 170.515 139.718 170.515 140.158V140.312H175.839V140.092C175.839 139.212 175.612 138.508 175.157 137.98C174.702 137.437 174.079 137.166 173.287 137.166ZM185.512 147.264C184.69 147.264 183.957 147.125 183.312 146.846C182.666 146.567 182.116 146.171 181.662 145.658C181.207 145.13 180.855 144.499 180.606 143.766C180.371 143.018 180.254 142.189 180.254 141.28C180.254 140.371 180.371 139.549 180.606 138.816C180.855 138.068 181.207 137.437 181.662 136.924C182.116 136.396 182.666 135.993 183.312 135.714C183.957 135.435 184.69 135.296 185.512 135.296C186.348 135.296 187.081 135.443 187.712 135.736C188.357 136.029 188.892 136.44 189.318 136.968C189.743 137.481 190.058 138.083 190.264 138.772C190.484 139.461 190.594 140.202 190.594 140.994V141.896H182.74V142.27C182.74 143.15 182.996 143.876 183.51 144.448C184.038 145.005 184.786 145.284 185.754 145.284C186.458 145.284 187.052 145.13 187.536 144.822C188.02 144.514 188.43 144.096 188.768 143.568L190.176 144.954C189.75 145.658 189.134 146.223 188.328 146.648C187.521 147.059 186.582 147.264 185.512 147.264ZM185.512 137.166C185.101 137.166 184.72 137.239 184.368 137.386C184.03 137.533 183.737 137.738 183.488 138.002C183.253 138.266 183.07 138.581 182.938 138.948C182.806 139.315 182.74 139.718 182.74 140.158V140.312H188.064V140.092C188.064 139.212 187.836 138.508 187.382 137.98C186.927 137.437 186.304 137.166 185.512 137.166ZM198.447 130.72H200.845V137.452H200.955C201.205 136.836 201.579 136.323 202.077 135.912C202.591 135.501 203.287 135.296 204.167 135.296C205.341 135.296 206.25 135.685 206.895 136.462C207.555 137.225 207.885 138.317 207.885 139.74V147H205.487V140.026C205.487 138.251 204.769 137.364 203.331 137.364C203.023 137.364 202.715 137.408 202.407 137.496C202.114 137.569 201.85 137.687 201.615 137.848C201.381 138.009 201.19 138.215 201.043 138.464C200.911 138.713 200.845 138.999 200.845 139.322V147H198.447V130.72ZM215.697 147.264C214.876 147.264 214.142 147.125 213.497 146.846C212.852 146.567 212.302 146.171 211.847 145.658C211.392 145.13 211.04 144.499 210.791 143.766C210.556 143.018 210.439 142.189 210.439 141.28C210.439 140.371 210.556 139.549 210.791 138.816C211.04 138.068 211.392 137.437 211.847 136.924C212.302 136.396 212.852 135.993 213.497 135.714C214.142 135.435 214.876 135.296 215.697 135.296C216.533 135.296 217.266 135.443 217.897 135.736C218.542 136.029 219.078 136.44 219.503 136.968C219.928 137.481 220.244 138.083 220.449 138.772C220.669 139.461 220.779 140.202 220.779 140.994V141.896H212.925V142.27C212.925 143.15 213.182 143.876 213.695 144.448C214.223 145.005 214.971 145.284 215.939 145.284C216.643 145.284 217.237 145.13 217.721 144.822C218.205 144.514 218.616 144.096 218.953 143.568L220.361 144.954C219.936 145.658 219.32 146.223 218.513 146.648C217.706 147.059 216.768 147.264 215.697 147.264ZM215.697 137.166C215.286 137.166 214.905 137.239 214.553 137.386C214.216 137.533 213.922 137.738 213.673 138.002C213.438 138.266 213.255 138.581 213.123 138.948C212.991 139.315 212.925 139.718 212.925 140.158V140.312H218.249V140.092C218.249 139.212 218.022 138.508 217.567 137.98C217.112 137.437 216.489 137.166 215.697 137.166ZM223.434 147V135.56H225.832V137.76H225.942C226.103 137.173 226.44 136.66 226.954 136.22C227.467 135.78 228.178 135.56 229.088 135.56H229.726V137.87H228.78C227.826 137.87 227.093 138.024 226.58 138.332C226.081 138.64 225.832 139.095 225.832 139.696V147H223.434ZM236.236 147.264C235.415 147.264 234.682 147.125 234.036 146.846C233.391 146.567 232.841 146.171 232.386 145.658C231.932 145.13 231.58 144.499 231.33 143.766C231.096 143.018 230.978 142.189 230.978 141.28C230.978 140.371 231.096 139.549 231.33 138.816C231.58 138.068 231.932 137.437 232.386 136.924C232.841 136.396 233.391 135.993 234.036 135.714C234.682 135.435 235.415 135.296 236.236 135.296C237.072 135.296 237.806 135.443 238.436 135.736C239.082 136.029 239.617 136.44 240.042 136.968C240.468 137.481 240.783 138.083 240.988 138.772C241.208 139.461 241.318 140.202 241.318 140.994V141.896H233.464V142.27C233.464 143.15 233.721 143.876 234.234 144.448C234.762 145.005 235.51 145.284 236.478 145.284C237.182 145.284 237.776 145.13 238.26 144.822C238.744 144.514 239.155 144.096 239.492 143.568L240.9 144.954C240.475 145.658 239.859 146.223 239.052 146.648C238.246 147.059 237.307 147.264 236.236 147.264ZM236.236 137.166C235.826 137.166 235.444 137.239 235.092 137.386C234.755 137.533 234.462 137.738 234.212 138.002C233.978 138.266 233.794 138.581 233.662 138.948C233.53 139.315 233.464 139.718 233.464 140.158V140.312H238.788V140.092C238.788 139.212 238.561 138.508 238.106 137.98C237.652 137.437 237.028 137.166 236.236 137.166ZM244.985 142.6L244.215 136.022V131.644H246.811V136.022L246.085 142.6H244.985ZM245.535 147.264C244.978 147.264 244.567 147.132 244.303 146.868C244.054 146.589 243.929 146.237 243.929 145.812V145.438C243.929 145.013 244.054 144.668 244.303 144.404C244.567 144.125 244.978 143.986 245.535 143.986C246.092 143.986 246.496 144.125 246.745 144.404C247.009 144.668 247.141 145.013 247.141 145.438V145.812C247.141 146.237 247.009 146.589 246.745 146.868C246.496 147.132 246.092 147.264 245.535 147.264Z" fill="#0B2541"/>
<path d="M4.34346 180V179.15H6.07746V168.984H4.34346V168.134H8.83146V168.984H7.09746V179.15H8.83146V180H4.34346ZM12.9735 180C12.6222 180 12.3558 179.904 12.1745 179.711C11.9932 179.518 11.9025 179.258 11.9025 178.929V172.146H10.3895V171.296H11.3755C11.6135 171.296 11.7722 171.251 11.8515 171.16C11.9422 171.058 11.9875 170.882 11.9875 170.633V168.865H12.8715V171.296H14.8435V172.146H12.8715V179.15H14.7075V180H12.9735ZM23.6544 180.204C22.8951 180.204 22.2434 180.062 21.6994 179.779C21.1667 179.496 20.7021 179.082 20.3054 178.538L21.0194 177.977C21.3821 178.453 21.7787 178.804 22.2094 179.031C22.6401 179.258 23.1444 179.371 23.7224 179.371C24.3911 179.371 24.9067 179.229 25.2694 178.946C25.6321 178.663 25.8134 178.255 25.8134 177.722C25.8134 177.257 25.6717 176.895 25.3884 176.634C25.1164 176.362 24.6631 176.181 24.0284 176.09L23.3144 175.971C22.9177 175.914 22.5551 175.829 22.2264 175.716C21.8977 175.603 21.6144 175.45 21.3764 175.257C21.1497 175.064 20.9684 174.832 20.8324 174.56C20.7077 174.277 20.6454 173.937 20.6454 173.54C20.6454 173.132 20.7191 172.775 20.8664 172.469C21.0251 172.163 21.2347 171.908 21.4954 171.704C21.7561 171.5 22.0677 171.347 22.4304 171.245C22.7931 171.143 23.1841 171.092 23.6034 171.092C24.3287 171.092 24.9237 171.217 25.3884 171.466C25.8531 171.715 26.2497 172.038 26.5784 172.435L25.9324 173.03C25.7057 172.758 25.3997 172.509 25.0144 172.282C24.6404 172.044 24.1531 171.925 23.5524 171.925C22.9291 171.925 22.4417 172.061 22.0904 172.333C21.7504 172.605 21.5804 172.99 21.5804 173.489C21.5804 173.999 21.7334 174.367 22.0394 174.594C22.3567 174.821 22.8271 174.985 23.4504 175.087L24.1474 175.189C25.0314 175.325 25.6831 175.591 26.1024 175.988C26.5331 176.373 26.7484 176.917 26.7484 177.62C26.7484 178.436 26.4707 179.071 25.9154 179.524C25.3714 179.977 24.6177 180.204 23.6544 180.204ZM32.402 180.204C31.824 180.204 31.297 180.102 30.821 179.898C30.3563 179.694 29.954 179.399 29.614 179.014C29.2853 178.617 29.0303 178.136 28.849 177.569C28.679 177.002 28.594 176.362 28.594 175.648C28.594 174.934 28.679 174.299 28.849 173.744C29.0303 173.177 29.2853 172.701 29.614 172.316C29.954 171.919 30.3563 171.619 30.821 171.415C31.2856 171.2 31.807 171.092 32.385 171.092C32.9403 171.092 33.4446 171.2 33.898 171.415C34.3513 171.619 34.7366 171.908 35.054 172.282C35.3713 172.656 35.615 173.109 35.785 173.642C35.9663 174.163 36.057 174.741 36.057 175.376V175.835H29.614V176.26C29.614 176.713 29.6763 177.133 29.801 177.518C29.937 177.892 30.124 178.215 30.362 178.487C30.6113 178.759 30.9116 178.974 31.263 179.133C31.6143 179.28 32.011 179.354 32.453 179.354C33.7223 179.354 34.6006 178.77 35.088 177.603L35.802 178.079C35.53 178.725 35.0993 179.241 34.51 179.626C33.932 180.011 33.2293 180.204 32.402 180.204ZM32.385 171.908C31.9656 171.908 31.586 171.987 31.246 172.146C30.906 172.293 30.6113 172.503 30.362 172.775C30.124 173.047 29.937 173.376 29.801 173.761C29.6763 174.135 29.614 174.549 29.614 175.002V175.087H35.003V174.951C35.003 174.498 34.9406 174.084 34.816 173.71C34.6913 173.325 34.51 173.002 34.272 172.741C34.0453 172.48 33.7676 172.276 33.439 172.129C33.1216 171.982 32.7703 171.908 32.385 171.908ZM41.6324 180.204C41.0544 180.204 40.5274 180.102 40.0514 179.898C39.5868 179.694 39.1844 179.399 38.8444 179.014C38.5158 178.617 38.2608 178.136 38.0794 177.569C37.9094 177.002 37.8244 176.362 37.8244 175.648C37.8244 174.934 37.9094 174.299 38.0794 173.744C38.2608 173.177 38.5158 172.701 38.8444 172.316C39.1844 171.919 39.5868 171.619 40.0514 171.415C40.5161 171.2 41.0374 171.092 41.6154 171.092C42.1708 171.092 42.6751 171.2 43.1284 171.415C43.5818 171.619 43.9671 171.908 44.2844 172.282C44.6018 172.656 44.8454 173.109 45.0154 173.642C45.1968 174.163 45.2874 174.741 45.2874 175.376V175.835H38.8444V176.26C38.8444 176.713 38.9068 177.133 39.0314 177.518C39.1674 177.892 39.3544 178.215 39.5924 178.487C39.8418 178.759 40.1421 178.974 40.4934 179.133C40.8448 179.28 41.2414 179.354 41.6834 179.354C42.9528 179.354 43.8311 178.77 44.3184 177.603L45.0324 178.079C44.7604 178.725 44.3298 179.241 43.7404 179.626C43.1624 180.011 42.4598 180.204 41.6324 180.204ZM41.6154 171.908C41.1961 171.908 40.8164 171.987 40.4764 172.146C40.1364 172.293 39.8418 172.503 39.5924 172.775C39.3544 173.047 39.1674 173.376 39.0314 173.761C38.9068 174.135 38.8444 174.549 38.8444 175.002V175.087H44.2334V174.951C44.2334 174.498 44.1711 174.084 44.0464 173.71C43.9218 173.325 43.7404 173.002 43.5024 172.741C43.2758 172.48 42.9981 172.276 42.6694 172.129C42.3521 171.982 42.0008 171.908 41.6154 171.908ZM47.7519 180V171.296H48.7209V172.673H48.7719C48.8626 172.458 48.9759 172.259 49.1119 172.078C49.2479 171.885 49.4122 171.715 49.6049 171.568C49.7976 171.421 50.0242 171.307 50.2849 171.228C50.5569 171.137 50.8742 171.092 51.2369 171.092C51.8602 171.092 52.4099 171.239 52.8859 171.534C53.3619 171.829 53.7076 172.293 53.9229 172.928H53.9739C54.1326 172.418 54.4329 171.987 54.8749 171.636C55.3282 171.273 55.9402 171.092 56.7109 171.092C57.6402 171.092 58.3542 171.381 58.8529 171.959C59.3516 172.526 59.6009 173.342 59.6009 174.407V180H58.6319V174.577C58.6319 172.832 57.9009 171.959 56.4389 171.959C56.1329 171.959 55.8439 171.999 55.5719 172.078C55.2999 172.157 55.0562 172.282 54.8409 172.452C54.6369 172.611 54.4726 172.815 54.3479 173.064C54.2232 173.302 54.1609 173.58 54.1609 173.897V180H53.1919V174.577C53.1919 172.832 52.4666 171.959 51.0159 171.959C50.7212 171.959 50.4322 171.999 50.1489 172.078C49.8769 172.157 49.6332 172.276 49.4179 172.435C49.2026 172.594 49.0326 172.798 48.9079 173.047C48.7832 173.285 48.7209 173.563 48.7209 173.88V180H47.7519ZM65.1085 180.204C64.3492 180.204 63.6975 180.062 63.1535 179.779C62.6208 179.496 62.1562 179.082 61.7595 178.538L62.4735 177.977C62.8362 178.453 63.2328 178.804 63.6635 179.031C64.0942 179.258 64.5985 179.371 65.1765 179.371C65.8452 179.371 66.3608 179.229 66.7235 178.946C67.0862 178.663 67.2675 178.255 67.2675 177.722C67.2675 177.257 67.1258 176.895 66.8425 176.634C66.5705 176.362 66.1172 176.181 65.4825 176.09L64.7685 175.971C64.3718 175.914 64.0092 175.829 63.6805 175.716C63.3518 175.603 63.0685 175.45 62.8305 175.257C62.6038 175.064 62.4225 174.832 62.2865 174.56C62.1618 174.277 62.0995 173.937 62.0995 173.54C62.0995 173.132 62.1732 172.775 62.3205 172.469C62.4792 172.163 62.6888 171.908 62.9495 171.704C63.2102 171.5 63.5218 171.347 63.8845 171.245C64.2472 171.143 64.6382 171.092 65.0575 171.092C65.7828 171.092 66.3778 171.217 66.8425 171.466C67.3072 171.715 67.7038 172.038 68.0325 172.435L67.3865 173.03C67.1598 172.758 66.8538 172.509 66.4685 172.282C66.0945 172.044 65.6072 171.925 65.0065 171.925C64.3832 171.925 63.8958 172.061 63.5445 172.333C63.2045 172.605 63.0345 172.99 63.0345 173.489C63.0345 173.999 63.1875 174.367 63.4935 174.594C63.8108 174.821 64.2812 174.985 64.9045 175.087L65.6015 175.189C66.4855 175.325 67.1372 175.591 67.5565 175.988C67.9872 176.373 68.2025 176.917 68.2025 177.62C68.2025 178.436 67.9248 179.071 67.3695 179.524C66.8255 179.977 66.0718 180.204 65.1085 180.204ZM75.8336 180C75.4823 180 75.216 179.904 75.0346 179.711C74.8533 179.518 74.7626 179.263 74.7626 178.946V167.42H75.7316V179.15H77.0746V180H75.8336ZM79.7211 168.933C79.4944 168.933 79.3244 168.876 79.2111 168.763C79.1091 168.65 79.0581 168.502 79.0581 168.321V168.151C79.0581 167.97 79.1091 167.822 79.2111 167.709C79.3244 167.596 79.4944 167.539 79.7211 167.539C79.9477 167.539 80.1121 167.596 80.2141 167.709C80.3274 167.822 80.3841 167.97 80.3841 168.151V168.321C80.3841 168.502 80.3274 168.65 80.2141 168.763C80.1121 168.876 79.9477 168.933 79.7211 168.933ZM79.2451 171.296H80.2141V180H79.2451V171.296ZM83.3789 167.42H84.3479V175.733H84.3989L85.7589 174.288L88.6489 171.296H89.8389L86.4219 174.832L90.2129 180H89.0229L85.7249 175.444L84.3479 176.838V180H83.3789V167.42ZM94.9733 180.204C94.3953 180.204 93.8683 180.102 93.3923 179.898C92.9276 179.694 92.5253 179.399 92.1853 179.014C91.8566 178.617 91.6016 178.136 91.4203 177.569C91.2503 177.002 91.1653 176.362 91.1653 175.648C91.1653 174.934 91.2503 174.299 91.4203 173.744C91.6016 173.177 91.8566 172.701 92.1853 172.316C92.5253 171.919 92.9276 171.619 93.3923 171.415C93.8569 171.2 94.3783 171.092 94.9563 171.092C95.5116 171.092 96.0159 171.2 96.4693 171.415C96.9226 171.619 97.3079 171.908 97.6253 172.282C97.9426 172.656 98.1863 173.109 98.3563 173.642C98.5376 174.163 98.6283 174.741 98.6283 175.376V175.835H92.1853V176.26C92.1853 176.713 92.2476 177.133 92.3723 177.518C92.5083 177.892 92.6953 178.215 92.9333 178.487C93.1826 178.759 93.4829 178.974 93.8343 179.133C94.1856 179.28 94.5823 179.354 95.0243 179.354C96.2936 179.354 97.1719 178.77 97.6593 177.603L98.3733 178.079C98.1013 178.725 97.6706 179.241 97.0813 179.626C96.5033 180.011 95.8006 180.204 94.9733 180.204ZM94.9563 171.908C94.5369 171.908 94.1573 171.987 93.8173 172.146C93.4773 172.293 93.1826 172.503 92.9333 172.775C92.6953 173.047 92.5083 173.376 92.3723 173.761C92.2476 174.135 92.1853 174.549 92.1853 175.002V175.087H97.5743V174.951C97.5743 174.498 97.5119 174.084 97.3873 173.71C97.2626 173.325 97.0813 173.002 96.8433 172.741C96.6166 172.48 96.3389 172.276 96.0103 172.129C95.6929 171.982 95.3416 171.908 94.9563 171.908ZM106.606 180C106.255 180 105.989 179.904 105.807 179.711C105.626 179.518 105.535 179.258 105.535 178.929V172.146H104.022V171.296H105.008C105.246 171.296 105.405 171.251 105.484 171.16C105.575 171.058 105.62 170.882 105.62 170.633V168.865H106.504V171.296H108.476V172.146H106.504V179.15H108.34V180H106.606ZM110.805 167.42H111.774V172.673H111.825C112.017 172.22 112.318 171.846 112.726 171.551C113.134 171.245 113.689 171.092 114.392 171.092C115.321 171.092 116.041 171.381 116.551 171.959C117.072 172.526 117.333 173.342 117.333 174.407V180H116.364V174.577C116.364 173.693 116.171 173.036 115.786 172.605C115.412 172.174 114.862 171.959 114.137 171.959C113.831 171.959 113.536 171.999 113.253 172.078C112.969 172.157 112.714 172.276 112.488 172.435C112.272 172.594 112.097 172.798 111.961 173.047C111.836 173.285 111.774 173.563 111.774 173.88V180H110.805V167.42ZM123.495 180.204C122.917 180.204 122.39 180.102 121.914 179.898C121.449 179.694 121.047 179.399 120.707 179.014C120.378 178.617 120.123 178.136 119.942 177.569C119.772 177.002 119.687 176.362 119.687 175.648C119.687 174.934 119.772 174.299 119.942 173.744C120.123 173.177 120.378 172.701 120.707 172.316C121.047 171.919 121.449 171.619 121.914 171.415C122.378 171.2 122.9 171.092 123.478 171.092C124.033 171.092 124.537 171.2 124.991 171.415C125.444 171.619 125.829 171.908 126.147 172.282C126.464 172.656 126.708 173.109 126.878 173.642C127.059 174.163 127.15 174.741 127.15 175.376V175.835H120.707V176.26C120.707 176.713 120.769 177.133 120.894 177.518C121.03 177.892 121.217 178.215 121.455 178.487C121.704 178.759 122.004 178.974 122.356 179.133C122.707 179.28 123.104 179.354 123.546 179.354C124.815 179.354 125.693 178.77 126.181 177.603L126.895 178.079C126.623 178.725 126.192 179.241 125.603 179.626C125.025 180.011 124.322 180.204 123.495 180.204ZM123.478 171.908C123.058 171.908 122.679 171.987 122.339 172.146C121.999 172.293 121.704 172.503 121.455 172.775C121.217 173.047 121.03 173.376 120.894 173.761C120.769 174.135 120.707 174.549 120.707 175.002V175.087H126.096V174.951C126.096 174.498 126.033 174.084 125.909 173.71C125.784 173.325 125.603 173.002 125.365 172.741C125.138 172.48 124.86 172.276 124.532 172.129C124.214 171.982 123.863 171.908 123.478 171.908ZM133.632 171.296H134.601V172.69H134.652C134.867 172.203 135.196 171.817 135.638 171.534C136.08 171.239 136.635 171.092 137.304 171.092C138.426 171.092 139.304 171.489 139.939 172.282C140.573 173.075 140.891 174.197 140.891 175.648C140.891 177.099 140.573 178.221 139.939 179.014C139.304 179.807 138.426 180.204 137.304 180.204C136.635 180.204 136.085 180.062 135.655 179.779C135.224 179.484 134.89 179.093 134.652 178.606H134.601V183.4H133.632V171.296ZM137.083 179.337C137.955 179.337 138.635 179.059 139.123 178.504C139.61 177.949 139.854 177.201 139.854 176.26V175.036C139.854 174.095 139.61 173.347 139.123 172.792C138.635 172.237 137.955 171.959 137.083 171.959C136.743 171.959 136.42 172.01 136.114 172.112C135.819 172.203 135.558 172.333 135.332 172.503C135.105 172.673 134.924 172.877 134.788 173.115C134.663 173.353 134.601 173.614 134.601 173.897V177.348C134.601 177.654 134.663 177.932 134.788 178.181C134.924 178.419 135.105 178.629 135.332 178.81C135.558 178.98 135.819 179.11 136.114 179.201C136.42 179.292 136.743 179.337 137.083 179.337ZM149.378 180C149.004 180 148.732 179.904 148.562 179.711C148.392 179.518 148.295 179.258 148.273 178.929V178.623H148.188C147.995 179.11 147.678 179.496 147.236 179.779C146.794 180.062 146.233 180.204 145.553 180.204C144.635 180.204 143.926 179.983 143.428 179.541C142.929 179.088 142.68 178.453 142.68 177.637C142.68 176.866 142.952 176.254 143.496 175.801C144.051 175.348 144.958 175.121 146.216 175.121H148.222V174.101C148.222 172.662 147.479 171.942 145.995 171.942C145.417 171.942 144.935 172.067 144.55 172.316C144.164 172.554 143.853 172.9 143.615 173.353L143.003 172.843C143.241 172.333 143.603 171.914 144.091 171.585C144.589 171.256 145.235 171.092 146.029 171.092C147.049 171.092 147.831 171.347 148.375 171.857C148.919 172.367 149.191 173.081 149.191 173.999V179.15H150.364V180H149.378ZM145.689 179.371C146.04 179.371 146.369 179.326 146.675 179.235C146.981 179.144 147.247 179.02 147.474 178.861C147.712 178.691 147.893 178.493 148.018 178.266C148.154 178.028 148.222 177.762 148.222 177.467V175.852H146.181C145.309 175.852 144.674 175.994 144.278 176.277C143.892 176.549 143.7 176.929 143.7 177.416V177.824C143.7 178.334 143.881 178.719 144.244 178.98C144.606 179.241 145.088 179.371 145.689 179.371ZM159.498 181.02C159.498 181.904 159.141 182.556 158.427 182.975C157.725 183.394 156.688 183.604 155.316 183.604C153.99 183.604 153.033 183.411 152.443 183.026C151.854 182.641 151.559 182.108 151.559 181.428C151.559 180.929 151.69 180.533 151.95 180.238C152.211 179.943 152.579 179.728 153.055 179.592V179.456C152.511 179.241 152.239 178.844 152.239 178.266C152.239 177.835 152.381 177.507 152.664 177.28C152.948 177.053 153.299 176.883 153.718 176.77V176.702C153.208 176.475 152.812 176.135 152.528 175.682C152.245 175.229 152.103 174.685 152.103 174.05C152.103 173.608 152.177 173.206 152.324 172.843C152.472 172.48 152.681 172.169 152.953 171.908C153.237 171.647 153.571 171.449 153.956 171.313C154.353 171.166 154.789 171.092 155.265 171.092C155.934 171.092 156.518 171.234 157.016 171.517V171.092C157.016 170.831 157.079 170.622 157.203 170.463C157.328 170.293 157.532 170.208 157.815 170.208H159.311V171.058H157.543V171.891C157.838 172.152 158.065 172.469 158.223 172.843C158.382 173.206 158.461 173.608 158.461 174.05C158.461 174.492 158.382 174.894 158.223 175.257C158.076 175.62 157.861 175.937 157.577 176.209C157.305 176.47 156.971 176.674 156.574 176.821C156.189 176.957 155.758 177.025 155.282 177.025C155.124 177.025 154.971 177.014 154.823 176.991C154.676 176.968 154.529 176.946 154.381 176.923C154.007 177.025 153.696 177.167 153.446 177.348C153.208 177.518 153.089 177.75 153.089 178.045C153.089 178.566 153.554 178.827 154.483 178.827H156.506C157.56 178.827 158.32 179.025 158.784 179.422C159.26 179.807 159.498 180.34 159.498 181.02ZM158.563 181.088C158.563 180.669 158.41 180.334 158.104 180.085C157.81 179.847 157.277 179.728 156.506 179.728H153.684C153.31 179.853 153.016 180.04 152.8 180.289C152.585 180.538 152.477 180.85 152.477 181.224C152.477 181.677 152.664 182.051 153.038 182.346C153.412 182.652 153.979 182.805 154.738 182.805H155.826C156.676 182.805 157.345 182.663 157.832 182.38C158.32 182.108 158.563 181.677 158.563 181.088ZM155.282 176.243C155.951 176.243 156.472 176.079 156.846 175.75C157.232 175.41 157.424 174.934 157.424 174.322V173.778C157.424 173.177 157.232 172.713 156.846 172.384C156.472 172.044 155.951 171.874 155.282 171.874C154.602 171.874 154.075 172.044 153.701 172.384C153.327 172.713 153.14 173.177 153.14 173.778V174.322C153.14 174.934 153.327 175.41 153.701 175.75C154.087 176.079 154.614 176.243 155.282 176.243ZM164.368 180.204C163.79 180.204 163.263 180.102 162.787 179.898C162.322 179.694 161.92 179.399 161.58 179.014C161.251 178.617 160.996 178.136 160.815 177.569C160.645 177.002 160.56 176.362 160.56 175.648C160.56 174.934 160.645 174.299 160.815 173.744C160.996 173.177 161.251 172.701 161.58 172.316C161.92 171.919 162.322 171.619 162.787 171.415C163.251 171.2 163.773 171.092 164.351 171.092C164.906 171.092 165.41 171.2 165.864 171.415C166.317 171.619 166.702 171.908 167.02 172.282C167.337 172.656 167.581 173.109 167.751 173.642C167.932 174.163 168.023 174.741 168.023 175.376V175.835H161.58V176.26C161.58 176.713 161.642 177.133 161.767 177.518C161.903 177.892 162.09 178.215 162.328 178.487C162.577 178.759 162.877 178.974 163.229 179.133C163.58 179.28 163.977 179.354 164.419 179.354C165.688 179.354 166.566 178.77 167.054 177.603L167.768 178.079C167.496 178.725 167.065 179.241 166.476 179.626C165.898 180.011 165.195 180.204 164.368 180.204ZM164.351 171.908C163.931 171.908 163.552 171.987 163.212 172.146C162.872 172.293 162.577 172.503 162.328 172.775C162.09 173.047 161.903 173.376 161.767 173.761C161.642 174.135 161.58 174.549 161.58 175.002V175.087H166.969V174.951C166.969 174.498 166.906 174.084 166.782 173.71C166.657 173.325 166.476 173.002 166.238 172.741C166.011 172.48 165.733 172.276 165.405 172.129C165.087 171.982 164.736 171.908 164.351 171.908ZM179.707 171.296H180.693L176.664 182.448C176.528 182.811 176.363 183.06 176.171 183.196C175.978 183.332 175.661 183.4 175.219 183.4H174.233V182.55H175.695L176.528 180.255L173.298 171.296H174.318L176.987 178.963H177.055L179.707 171.296ZM185.617 180.204C185.039 180.204 184.518 180.102 184.053 179.898C183.589 179.694 183.192 179.399 182.863 179.014C182.535 178.617 182.28 178.136 182.098 177.569C181.917 177.002 181.826 176.362 181.826 175.648C181.826 174.934 181.917 174.299 182.098 173.744C182.28 173.177 182.535 172.701 182.863 172.316C183.192 171.919 183.589 171.619 184.053 171.415C184.518 171.2 185.039 171.092 185.617 171.092C186.195 171.092 186.717 171.2 187.181 171.415C187.646 171.619 188.043 171.919 188.371 172.316C188.7 172.701 188.955 173.177 189.136 173.744C189.318 174.299 189.408 174.934 189.408 175.648C189.408 176.362 189.318 177.002 189.136 177.569C188.955 178.136 188.7 178.617 188.371 179.014C188.043 179.399 187.646 179.694 187.181 179.898C186.717 180.102 186.195 180.204 185.617 180.204ZM185.617 179.337C186.467 179.337 187.136 179.071 187.623 178.538C188.122 178.005 188.371 177.223 188.371 176.192V175.104C188.371 174.084 188.122 173.308 187.623 172.775C187.136 172.231 186.467 171.959 185.617 171.959C184.767 171.959 184.093 172.225 183.594 172.758C183.107 173.291 182.863 174.073 182.863 175.104V176.192C182.863 177.212 183.107 177.994 183.594 178.538C184.093 179.071 184.767 179.337 185.617 179.337ZM197.31 178.623H197.242C197.163 178.827 197.055 179.025 196.919 179.218C196.783 179.411 196.613 179.581 196.409 179.728C196.205 179.864 195.961 179.977 195.678 180.068C195.406 180.159 195.083 180.204 194.709 180.204C193.78 180.204 193.054 179.921 192.533 179.354C192.012 178.776 191.751 177.954 191.751 176.889V171.296H192.72V176.702C192.72 177.597 192.913 178.26 193.298 178.691C193.683 179.122 194.239 179.337 194.964 179.337C195.27 179.337 195.559 179.297 195.831 179.218C196.114 179.139 196.364 179.02 196.579 178.861C196.806 178.702 196.981 178.504 197.106 178.266C197.242 178.017 197.31 177.728 197.31 177.399V171.296H198.279V180H197.31V178.623ZM211.451 180C211.077 180 210.805 179.904 210.635 179.711C210.465 179.518 210.368 179.258 210.346 178.929V178.623H210.261C210.068 179.11 209.751 179.496 209.309 179.779C208.867 180.062 208.306 180.204 207.626 180.204C206.708 180.204 205.999 179.983 205.501 179.541C205.002 179.088 204.753 178.453 204.753 177.637C204.753 176.866 205.025 176.254 205.569 175.801C206.124 175.348 207.031 175.121 208.289 175.121H210.295V174.101C210.295 172.662 209.552 171.942 208.068 171.942C207.49 171.942 207.008 172.067 206.623 172.316C206.237 172.554 205.926 172.9 205.688 173.353L205.076 172.843C205.314 172.333 205.676 171.914 206.164 171.585C206.662 171.256 207.308 171.092 208.102 171.092C209.122 171.092 209.904 171.347 210.448 171.857C210.992 172.367 211.264 173.081 211.264 173.999V179.15H212.437V180H211.451ZM207.762 179.371C208.113 179.371 208.442 179.326 208.748 179.235C209.054 179.144 209.32 179.02 209.547 178.861C209.785 178.691 209.966 178.493 210.091 178.266C210.227 178.028 210.295 177.762 210.295 177.467V175.852H208.255C207.382 175.852 206.747 175.994 206.351 176.277C205.965 176.549 205.773 176.929 205.773 177.416V177.824C205.773 178.334 205.954 178.719 206.317 178.98C206.679 179.241 207.161 179.371 207.762 179.371ZM214.432 180V171.296H215.401V172.86H215.469C215.639 172.452 215.928 172.089 216.336 171.772C216.744 171.455 217.322 171.296 218.07 171.296H218.648V172.248H217.883C217.157 172.248 216.562 172.407 216.098 172.724C215.633 173.041 215.401 173.483 215.401 174.05V180H214.432ZM223.569 180.204C222.991 180.204 222.464 180.102 221.988 179.898C221.523 179.694 221.121 179.399 220.781 179.014C220.452 178.617 220.197 178.136 220.016 177.569C219.846 177.002 219.761 176.362 219.761 175.648C219.761 174.934 219.846 174.299 220.016 173.744C220.197 173.177 220.452 172.701 220.781 172.316C221.121 171.919 221.523 171.619 221.988 171.415C222.453 171.2 222.974 171.092 223.552 171.092C224.107 171.092 224.612 171.2 225.065 171.415C225.518 171.619 225.904 171.908 226.221 172.282C226.538 172.656 226.782 173.109 226.952 173.642C227.133 174.163 227.224 174.741 227.224 175.376V175.835H220.781V176.26C220.781 176.713 220.843 177.133 220.968 177.518C221.104 177.892 221.291 178.215 221.529 178.487C221.778 178.759 222.079 178.974 222.43 179.133C222.781 179.28 223.178 179.354 223.62 179.354C224.889 179.354 225.768 178.77 226.255 177.603L226.969 178.079C226.697 178.725 226.266 179.241 225.677 179.626C225.099 180.011 224.396 180.204 223.569 180.204ZM223.552 171.908C223.133 171.908 222.753 171.987 222.413 172.146C222.073 172.293 221.778 172.503 221.529 172.775C221.291 173.047 221.104 173.376 220.968 173.761C220.843 174.135 220.781 174.549 220.781 175.002V175.087H226.17V174.951C226.17 174.498 226.108 174.084 225.983 173.71C225.858 173.325 225.677 173.002 225.439 172.741C225.212 172.48 224.935 172.276 224.606 172.129C224.289 171.982 223.937 171.908 223.552 171.908ZM234.777 180C234.426 180 234.159 179.904 233.978 179.711C233.797 179.518 233.706 179.263 233.706 178.946V167.42H234.675V179.15H236.018V180H234.777ZM241.282 180.204C240.704 180.204 240.183 180.102 239.718 179.898C239.254 179.694 238.857 179.399 238.528 179.014C238.2 178.617 237.945 178.136 237.763 177.569C237.582 177.002 237.491 176.362 237.491 175.648C237.491 174.934 237.582 174.299 237.763 173.744C237.945 173.177 238.2 172.701 238.528 172.316C238.857 171.919 239.254 171.619 239.718 171.415C240.183 171.2 240.704 171.092 241.282 171.092C241.86 171.092 242.382 171.2 242.846 171.415C243.311 171.619 243.708 171.919 244.036 172.316C244.365 172.701 244.62 173.177 244.801 173.744C244.983 174.299 245.073 174.934 245.073 175.648C245.073 176.362 244.983 177.002 244.801 177.569C244.62 178.136 244.365 178.617 244.036 179.014C243.708 179.399 243.311 179.694 242.846 179.898C242.382 180.102 241.86 180.204 241.282 180.204ZM241.282 179.337C242.132 179.337 242.801 179.071 243.288 178.538C243.787 178.005 244.036 177.223 244.036 176.192V175.104C244.036 174.084 243.787 173.308 243.288 172.775C242.801 172.231 242.132 171.959 241.282 171.959C240.432 171.959 239.758 172.225 239.259 172.758C238.772 173.291 238.528 174.073 238.528 175.104V176.192C238.528 177.212 238.772 177.994 239.259 178.538C239.758 179.071 240.432 179.337 241.282 179.337ZM250.629 180.204C250.051 180.204 249.53 180.102 249.065 179.898C248.6 179.694 248.204 179.399 247.875 179.014C247.546 178.617 247.291 178.136 247.11 177.569C246.929 177.002 246.838 176.362 246.838 175.648C246.838 174.934 246.929 174.299 247.11 173.744C247.291 173.177 247.546 172.701 247.875 172.316C248.204 171.919 248.6 171.619 249.065 171.415C249.53 171.2 250.051 171.092 250.629 171.092C251.207 171.092 251.728 171.2 252.193 171.415C252.658 171.619 253.054 171.919 253.383 172.316C253.712 172.701 253.967 173.177 254.148 173.744C254.329 174.299 254.42 174.934 254.42 175.648C254.42 176.362 254.329 177.002 254.148 177.569C253.967 178.136 253.712 178.617 253.383 179.014C253.054 179.399 252.658 179.694 252.193 179.898C251.728 180.102 251.207 180.204 250.629 180.204ZM250.629 179.337C251.479 179.337 252.148 179.071 252.635 178.538C253.134 178.005 253.383 177.223 253.383 176.192V175.104C253.383 174.084 253.134 173.308 252.635 172.775C252.148 172.231 251.479 171.959 250.629 171.959C249.779 171.959 249.105 172.225 248.606 172.758C248.119 173.291 247.875 174.073 247.875 175.104V176.192C247.875 177.212 248.119 177.994 248.606 178.538C249.105 179.071 249.779 179.337 250.629 179.337ZM256.882 167.42H257.851V175.733H257.902L259.262 174.288L262.152 171.296H263.342L259.925 174.832L263.716 180H262.526L259.228 175.444L257.851 176.838V180H256.882V167.42ZM266.074 168.933C265.847 168.933 265.677 168.876 265.564 168.763C265.462 168.65 265.411 168.502 265.411 168.321V168.151C265.411 167.97 265.462 167.822 265.564 167.709C265.677 167.596 265.847 167.539 266.074 167.539C266.3 167.539 266.465 167.596 266.567 167.709C266.68 167.822 266.737 167.97 266.737 168.151V168.321C266.737 168.502 266.68 168.65 266.567 168.763C266.465 168.876 266.3 168.933 266.074 168.933ZM265.598 171.296H266.567V180H265.598V171.296ZM269.731 180V171.296H270.7V172.673H270.751C270.944 172.22 271.244 171.846 271.652 171.551C272.06 171.245 272.616 171.092 273.318 171.092C274.248 171.092 274.967 171.381 275.477 171.959C275.999 172.526 276.259 173.342 276.259 174.407V180H275.29V174.577C275.29 173.693 275.098 173.036 274.712 172.605C274.338 172.174 273.789 171.959 273.063 171.959C272.757 171.959 272.463 171.999 272.179 172.078C271.896 172.157 271.641 172.276 271.414 172.435C271.199 172.594 271.023 172.798 270.887 173.047C270.763 173.285 270.7 173.563 270.7 173.88V180H269.731ZM286.45 181.02C286.45 181.904 286.093 182.556 285.379 182.975C284.677 183.394 283.64 183.604 282.268 183.604C280.942 183.604 279.985 183.411 279.395 183.026C278.806 182.641 278.511 182.108 278.511 181.428C278.511 180.929 278.642 180.533 278.902 180.238C279.163 179.943 279.531 179.728 280.007 179.592V179.456C279.463 179.241 279.191 178.844 279.191 178.266C279.191 177.835 279.333 177.507 279.616 177.28C279.9 177.053 280.251 176.883 280.67 176.77V176.702C280.16 176.475 279.764 176.135 279.48 175.682C279.197 175.229 279.055 174.685 279.055 174.05C279.055 173.608 279.129 173.206 279.276 172.843C279.424 172.48 279.633 172.169 279.905 171.908C280.189 171.647 280.523 171.449 280.908 171.313C281.305 171.166 281.741 171.092 282.217 171.092C282.886 171.092 283.47 171.234 283.968 171.517V171.092C283.968 170.831 284.031 170.622 284.155 170.463C284.28 170.293 284.484 170.208 284.767 170.208H286.263V171.058H284.495V171.891C284.79 172.152 285.017 172.469 285.175 172.843C285.334 173.206 285.413 173.608 285.413 174.05C285.413 174.492 285.334 174.894 285.175 175.257C285.028 175.62 284.813 175.937 284.529 176.209C284.257 176.47 283.923 176.674 283.526 176.821C283.141 176.957 282.71 177.025 282.234 177.025C282.076 177.025 281.923 177.014 281.775 176.991C281.628 176.968 281.481 176.946 281.333 176.923C280.959 177.025 280.648 177.167 280.398 177.348C280.16 177.518 280.041 177.75 280.041 178.045C280.041 178.566 280.506 178.827 281.435 178.827H283.458C284.512 178.827 285.272 179.025 285.736 179.422C286.212 179.807 286.45 180.34 286.45 181.02ZM285.515 181.088C285.515 180.669 285.362 180.334 285.056 180.085C284.762 179.847 284.229 179.728 283.458 179.728H280.636C280.262 179.853 279.968 180.04 279.752 180.289C279.537 180.538 279.429 180.85 279.429 181.224C279.429 181.677 279.616 182.051 279.99 182.346C280.364 182.652 280.931 182.805 281.69 182.805H282.778C283.628 182.805 284.297 182.663 284.784 182.38C285.272 182.108 285.515 181.677 285.515 181.088ZM282.234 176.243C282.903 176.243 283.424 176.079 283.798 175.75C284.184 175.41 284.376 174.934 284.376 174.322V173.778C284.376 173.177 284.184 172.713 283.798 172.384C283.424 172.044 282.903 171.874 282.234 171.874C281.554 171.874 281.027 172.044 280.653 172.384C280.279 172.713 280.092 173.177 280.092 173.778V174.322C280.092 174.934 280.279 175.41 280.653 175.75C281.039 176.079 281.566 176.243 282.234 176.243ZM65.7908 194.146H64.2948V193.296H65.7908V190.865C65.7908 190.423 65.8984 190.072 66.1138 189.811C66.3404 189.55 66.6861 189.42 67.1508 189.42H68.6808V190.27H66.7598V193.296H68.6808V194.146H66.7598V202H65.7908V194.146ZM73.6564 202.204C73.0784 202.204 72.5571 202.102 72.0924 201.898C71.6278 201.694 71.2311 201.399 70.9024 201.014C70.5738 200.617 70.3188 200.136 70.1374 199.569C69.9561 199.002 69.8654 198.362 69.8654 197.648C69.8654 196.934 69.9561 196.299 70.1374 195.744C70.3188 195.177 70.5738 194.701 70.9024 194.316C71.2311 193.919 71.6278 193.619 72.0924 193.415C72.5571 193.2 73.0784 193.092 73.6564 193.092C74.2344 193.092 74.7558 193.2 75.2204 193.415C75.6851 193.619 76.0818 193.919 76.4104 194.316C76.7391 194.701 76.9941 195.177 77.1754 195.744C77.3568 196.299 77.4474 196.934 77.4474 197.648C77.4474 198.362 77.3568 199.002 77.1754 199.569C76.9941 200.136 76.7391 200.617 76.4104 201.014C76.0818 201.399 75.6851 201.694 75.2204 201.898C74.7558 202.102 74.2344 202.204 73.6564 202.204ZM73.6564 201.337C74.5064 201.337 75.1751 201.071 75.6624 200.538C76.1611 200.005 76.4104 199.223 76.4104 198.192V197.104C76.4104 196.084 76.1611 195.308 75.6624 194.775C75.1751 194.231 74.5064 193.959 73.6564 193.959C72.8064 193.959 72.1321 194.225 71.6334 194.758C71.1461 195.291 70.9024 196.073 70.9024 197.104V198.192C70.9024 199.212 71.1461 199.994 71.6334 200.538C72.1321 201.071 72.8064 201.337 73.6564 201.337ZM79.9091 202V193.296H80.8781V194.86H80.9461C81.1161 194.452 81.4051 194.089 81.8131 193.772C82.2211 193.455 82.7991 193.296 83.5471 193.296H84.1251V194.248H83.3601C82.6348 194.248 82.0398 194.407 81.5751 194.724C81.1105 195.041 80.8781 195.483 80.8781 196.05V202H79.9091ZM90.4789 190.933C90.2522 190.933 90.0822 190.876 89.9689 190.763C89.8669 190.65 89.8159 190.502 89.8159 190.321V190.151C89.8159 189.97 89.8669 189.822 89.9689 189.709C90.0822 189.596 90.2522 189.539 90.4789 189.539C90.7055 189.539 90.8699 189.596 90.9719 189.709C91.0852 189.822 91.1419 189.97 91.1419 190.151V190.321C91.1419 190.502 91.0852 190.65 90.9719 190.763C90.8699 190.876 90.7055 190.933 90.4789 190.933ZM90.0029 193.296H90.9719V202H90.0029V193.296ZM96.6017 202.204C95.8423 202.204 95.1907 202.062 94.6467 201.779C94.114 201.496 93.6493 201.082 93.2527 200.538L93.9667 199.977C94.3293 200.453 94.726 200.804 95.1567 201.031C95.5873 201.258 96.0917 201.371 96.6697 201.371C97.3383 201.371 97.854 201.229 98.2167 200.946C98.5793 200.663 98.7607 200.255 98.7607 199.722C98.7607 199.257 98.619 198.895 98.3357 198.634C98.0637 198.362 97.6103 198.181 96.9757 198.09L96.2617 197.971C95.865 197.914 95.5023 197.829 95.1737 197.716C94.845 197.603 94.5617 197.45 94.3237 197.257C94.097 197.064 93.9157 196.832 93.7797 196.56C93.655 196.277 93.5927 195.937 93.5927 195.54C93.5927 195.132 93.6663 194.775 93.8137 194.469C93.9723 194.163 94.182 193.908 94.4427 193.704C94.7033 193.5 95.015 193.347 95.3777 193.245C95.7403 193.143 96.1313 193.092 96.5507 193.092C97.276 193.092 97.871 193.217 98.3357 193.466C98.8003 193.715 99.197 194.038 99.5257 194.435L98.8797 195.03C98.653 194.758 98.347 194.509 97.9617 194.282C97.5877 194.044 97.1003 193.925 96.4997 193.925C95.8763 193.925 95.389 194.061 95.0377 194.333C94.6977 194.605 94.5277 194.99 94.5277 195.489C94.5277 195.999 94.6807 196.367 94.9867 196.594C95.304 196.821 95.7743 196.985 96.3977 197.087L97.0947 197.189C97.9787 197.325 98.6303 197.591 99.0497 197.988C99.4803 198.373 99.6957 198.917 99.6957 199.62C99.6957 200.436 99.418 201.071 98.8627 201.524C98.3187 201.977 97.565 202.204 96.6017 202.204ZM106.256 202V193.296H107.225V194.673H107.276C107.468 194.22 107.769 193.846 108.177 193.551C108.585 193.245 109.14 193.092 109.843 193.092C110.772 193.092 111.492 193.381 112.002 193.959C112.523 194.526 112.784 195.342 112.784 196.407V202H111.815V196.577C111.815 195.693 111.622 195.036 111.237 194.605C110.863 194.174 110.313 193.959 109.588 193.959C109.282 193.959 108.987 193.999 108.704 194.078C108.42 194.157 108.165 194.276 107.939 194.435C107.723 194.594 107.548 194.798 107.412 195.047C107.287 195.285 107.225 195.563 107.225 195.88V202H106.256ZM118.929 202.204C118.351 202.204 117.83 202.102 117.365 201.898C116.9 201.694 116.504 201.399 116.175 201.014C115.846 200.617 115.591 200.136 115.41 199.569C115.229 199.002 115.138 198.362 115.138 197.648C115.138 196.934 115.229 196.299 115.41 195.744C115.591 195.177 115.846 194.701 116.175 194.316C116.504 193.919 116.9 193.619 117.365 193.415C117.83 193.2 118.351 193.092 118.929 193.092C119.507 193.092 120.028 193.2 120.493 193.415C120.958 193.619 121.354 193.919 121.683 194.316C122.012 194.701 122.267 195.177 122.448 195.744C122.629 196.299 122.72 196.934 122.72 197.648C122.72 198.362 122.629 199.002 122.448 199.569C122.267 200.136 122.012 200.617 121.683 201.014C121.354 201.399 120.958 201.694 120.493 201.898C120.028 202.102 119.507 202.204 118.929 202.204ZM118.929 201.337C119.779 201.337 120.448 201.071 120.935 200.538C121.434 200.005 121.683 199.223 121.683 198.192V197.104C121.683 196.084 121.434 195.308 120.935 194.775C120.448 194.231 119.779 193.959 118.929 193.959C118.079 193.959 117.405 194.225 116.906 194.758C116.419 195.291 116.175 196.073 116.175 197.104V198.192C116.175 199.212 116.419 199.994 116.906 200.538C117.405 201.071 118.079 201.337 118.929 201.337ZM130.27 202C129.919 202 129.652 201.904 129.471 201.711C129.29 201.518 129.199 201.263 129.199 200.946V189.42H130.168V201.15H131.511V202H130.27ZM136.776 202.204C136.198 202.204 135.676 202.102 135.212 201.898C134.747 201.694 134.35 201.399 134.022 201.014C133.693 200.617 133.438 200.136 133.257 199.569C133.075 199.002 132.985 198.362 132.985 197.648C132.985 196.934 133.075 196.299 133.257 195.744C133.438 195.177 133.693 194.701 134.022 194.316C134.35 193.919 134.747 193.619 135.212 193.415C135.676 193.2 136.198 193.092 136.776 193.092C137.354 193.092 137.875 193.2 138.34 193.415C138.804 193.619 139.201 193.919 139.53 194.316C139.858 194.701 140.113 195.177 140.295 195.744C140.476 196.299 140.567 196.934 140.567 197.648C140.567 198.362 140.476 199.002 140.295 199.569C140.113 200.136 139.858 200.617 139.53 201.014C139.201 201.399 138.804 201.694 138.34 201.898C137.875 202.102 137.354 202.204 136.776 202.204ZM136.776 201.337C137.626 201.337 138.294 201.071 138.782 200.538C139.28 200.005 139.53 199.223 139.53 198.192V197.104C139.53 196.084 139.28 195.308 138.782 194.775C138.294 194.231 137.626 193.959 136.776 193.959C135.926 193.959 135.251 194.225 134.753 194.758C134.265 195.291 134.022 196.073 134.022 197.104V198.192C134.022 199.212 134.265 199.994 134.753 200.538C135.251 201.071 135.926 201.337 136.776 201.337ZM143.028 202V193.296H143.997V194.673H144.048C144.241 194.22 144.541 193.846 144.949 193.551C145.357 193.245 145.913 193.092 146.615 193.092C147.545 193.092 148.264 193.381 148.774 193.959C149.296 194.526 149.556 195.342 149.556 196.407V202H148.587V196.577C148.587 195.693 148.395 195.036 148.009 194.605C147.635 194.174 147.086 193.959 146.36 193.959C146.054 193.959 145.76 193.999 145.476 194.078C145.193 194.157 144.938 194.276 144.711 194.435C144.496 194.594 144.32 194.798 144.184 195.047C144.06 195.285 143.997 195.563 143.997 195.88V202H143.028ZM159.747 203.02C159.747 203.904 159.39 204.556 158.676 204.975C157.974 205.394 156.937 205.604 155.565 205.604C154.239 205.604 153.282 205.411 152.692 205.026C152.103 204.641 151.808 204.108 151.808 203.428C151.808 202.929 151.939 202.533 152.199 202.238C152.46 201.943 152.828 201.728 153.304 201.592V201.456C152.76 201.241 152.488 200.844 152.488 200.266C152.488 199.835 152.63 199.507 152.913 199.28C153.197 199.053 153.548 198.883 153.967 198.77V198.702C153.457 198.475 153.061 198.135 152.777 197.682C152.494 197.229 152.352 196.685 152.352 196.05C152.352 195.608 152.426 195.206 152.573 194.843C152.721 194.48 152.93 194.169 153.202 193.908C153.486 193.647 153.82 193.449 154.205 193.313C154.602 193.166 155.038 193.092 155.514 193.092C156.183 193.092 156.767 193.234 157.265 193.517V193.092C157.265 192.831 157.328 192.622 157.452 192.463C157.577 192.293 157.781 192.208 158.064 192.208H159.56V193.058H157.792V193.891C158.087 194.152 158.314 194.469 158.472 194.843C158.631 195.206 158.71 195.608 158.71 196.05C158.71 196.492 158.631 196.894 158.472 197.257C158.325 197.62 158.11 197.937 157.826 198.209C157.554 198.47 157.22 198.674 156.823 198.821C156.438 198.957 156.007 199.025 155.531 199.025C155.373 199.025 155.22 199.014 155.072 198.991C154.925 198.968 154.778 198.946 154.63 198.923C154.256 199.025 153.945 199.167 153.695 199.348C153.457 199.518 153.338 199.75 153.338 200.045C153.338 200.566 153.803 200.827 154.732 200.827H156.755C157.809 200.827 158.569 201.025 159.033 201.422C159.509 201.807 159.747 202.34 159.747 203.02ZM158.812 203.088C158.812 202.669 158.659 202.334 158.353 202.085C158.059 201.847 157.526 201.728 156.755 201.728H153.933C153.559 201.853 153.265 202.04 153.049 202.289C152.834 202.538 152.726 202.85 152.726 203.224C152.726 203.677 152.913 204.051 153.287 204.346C153.661 204.652 154.228 204.805 154.987 204.805H156.075C156.925 204.805 157.594 204.663 158.081 204.38C158.569 204.108 158.812 203.677 158.812 203.088ZM155.531 198.243C156.2 198.243 156.721 198.079 157.095 197.75C157.481 197.41 157.673 196.934 157.673 196.322V195.778C157.673 195.177 157.481 194.713 157.095 194.384C156.721 194.044 156.2 193.874 155.531 193.874C154.851 193.874 154.324 194.044 153.95 194.384C153.576 194.713 153.389 195.177 153.389 195.778V196.322C153.389 196.934 153.576 197.41 153.95 197.75C154.336 198.079 154.863 198.243 155.531 198.243ZM164.617 202.204C164.039 202.204 163.512 202.102 163.036 201.898C162.571 201.694 162.169 201.399 161.829 201.014C161.5 200.617 161.245 200.136 161.064 199.569C160.894 199.002 160.809 198.362 160.809 197.648C160.809 196.934 160.894 196.299 161.064 195.744C161.245 195.177 161.5 194.701 161.829 194.316C162.169 193.919 162.571 193.619 163.036 193.415C163.5 193.2 164.022 193.092 164.6 193.092C165.155 193.092 165.659 193.2 166.113 193.415C166.566 193.619 166.951 193.908 167.269 194.282C167.586 194.656 167.83 195.109 168 195.642C168.181 196.163 168.272 196.741 168.272 197.376V197.835H161.829V198.26C161.829 198.713 161.891 199.133 162.016 199.518C162.152 199.892 162.339 200.215 162.577 200.487C162.826 200.759 163.126 200.974 163.478 201.133C163.829 201.28 164.226 201.354 164.668 201.354C165.937 201.354 166.815 200.77 167.303 199.603L168.017 200.079C167.745 200.725 167.314 201.241 166.725 201.626C166.147 202.011 165.444 202.204 164.617 202.204ZM164.6 193.908C164.18 193.908 163.801 193.987 163.461 194.146C163.121 194.293 162.826 194.503 162.577 194.775C162.339 195.047 162.152 195.376 162.016 195.761C161.891 196.135 161.829 196.549 161.829 197.002V197.087H167.218V196.951C167.218 196.498 167.155 196.084 167.031 195.71C166.906 195.325 166.725 195.002 166.487 194.741C166.26 194.48 165.982 194.276 165.654 194.129C165.336 193.982 164.985 193.908 164.6 193.908ZM170.736 202V193.296H171.705V194.86H171.773C171.943 194.452 172.232 194.089 172.64 193.772C173.048 193.455 173.626 193.296 174.374 193.296H174.952V194.248H174.187C173.462 194.248 172.867 194.407 172.402 194.724C171.938 195.041 171.705 195.483 171.705 196.05V202H170.736ZM180.83 189.42H181.799V194.673H181.85C182.043 194.22 182.343 193.846 182.751 193.551C183.159 193.245 183.714 193.092 184.417 193.092C185.346 193.092 186.066 193.381 186.576 193.959C187.097 194.526 187.358 195.342 187.358 196.407V202H186.389V196.577C186.389 195.693 186.196 195.036 185.811 194.605C185.437 194.174 184.887 193.959 184.162 193.959C183.856 193.959 183.561 193.999 183.278 194.078C182.995 194.157 182.74 194.276 182.513 194.435C182.298 194.594 182.122 194.798 181.986 195.047C181.861 195.285 181.799 195.563 181.799 195.88V202H180.83V189.42ZM193.52 202.204C192.942 202.204 192.415 202.102 191.939 201.898C191.474 201.694 191.072 201.399 190.732 201.014C190.403 200.617 190.148 200.136 189.967 199.569C189.797 199.002 189.712 198.362 189.712 197.648C189.712 196.934 189.797 196.299 189.967 195.744C190.148 195.177 190.403 194.701 190.732 194.316C191.072 193.919 191.474 193.619 191.939 193.415C192.404 193.2 192.925 193.092 193.503 193.092C194.058 193.092 194.563 193.2 195.016 193.415C195.469 193.619 195.855 193.908 196.172 194.282C196.489 194.656 196.733 195.109 196.903 195.642C197.084 196.163 197.175 196.741 197.175 197.376V197.835H190.732V198.26C190.732 198.713 190.794 199.133 190.919 199.518C191.055 199.892 191.242 200.215 191.48 200.487C191.729 200.759 192.03 200.974 192.381 201.133C192.732 201.28 193.129 201.354 193.571 201.354C194.84 201.354 195.719 200.77 196.206 199.603L196.92 200.079C196.648 200.725 196.217 201.241 195.628 201.626C195.05 202.011 194.347 202.204 193.52 202.204ZM193.503 193.908C193.084 193.908 192.704 193.987 192.364 194.146C192.024 194.293 191.729 194.503 191.48 194.775C191.242 195.047 191.055 195.376 190.919 195.761C190.794 196.135 190.732 196.549 190.732 197.002V197.087H196.121V196.951C196.121 196.498 196.059 196.084 195.934 195.71C195.809 195.325 195.628 195.002 195.39 194.741C195.163 194.48 194.886 194.276 194.557 194.129C194.24 193.982 193.888 193.908 193.503 193.908ZM199.64 202V193.296H200.609V194.86H200.677C200.847 194.452 201.136 194.089 201.544 193.772C201.952 193.455 202.53 193.296 203.278 193.296H203.856V194.248H203.091C202.365 194.248 201.77 194.407 201.306 194.724C200.841 195.041 200.609 195.483 200.609 196.05V202H199.64ZM208.777 202.204C208.199 202.204 207.672 202.102 207.196 201.898C206.731 201.694 206.329 201.399 205.989 201.014C205.66 200.617 205.405 200.136 205.224 199.569C205.054 199.002 204.969 198.362 204.969 197.648C204.969 196.934 205.054 196.299 205.224 195.744C205.405 195.177 205.66 194.701 205.989 194.316C206.329 193.919 206.731 193.619 207.196 193.415C207.661 193.2 208.182 193.092 208.76 193.092C209.315 193.092 209.82 193.2 210.273 193.415C210.726 193.619 211.112 193.908 211.429 194.282C211.746 194.656 211.99 195.109 212.16 195.642C212.341 196.163 212.432 196.741 212.432 197.376V197.835H205.989V198.26C205.989 198.713 206.051 199.133 206.176 199.518C206.312 199.892 206.499 200.215 206.737 200.487C206.986 200.759 207.287 200.974 207.638 201.133C207.989 201.28 208.386 201.354 208.828 201.354C210.097 201.354 210.976 200.77 211.463 199.603L212.177 200.079C211.905 200.725 211.474 201.241 210.885 201.626C210.307 202.011 209.604 202.204 208.777 202.204ZM208.76 193.908C208.341 193.908 207.961 193.987 207.621 194.146C207.281 194.293 206.986 194.503 206.737 194.775C206.499 195.047 206.312 195.376 206.176 195.761C206.051 196.135 205.989 196.549 205.989 197.002V197.087H211.378V196.951C211.378 196.498 211.316 196.084 211.191 195.71C211.066 195.325 210.885 195.002 210.647 194.741C210.42 194.48 210.143 194.276 209.814 194.129C209.497 193.982 209.145 193.908 208.76 193.908ZM215.144 202.153C214.86 202.153 214.651 202.085 214.515 201.949C214.39 201.802 214.328 201.615 214.328 201.388V201.201C214.328 200.974 214.39 200.793 214.515 200.657C214.651 200.51 214.86 200.436 215.144 200.436C215.416 200.436 215.62 200.51 215.756 200.657C215.892 200.793 215.96 200.974 215.96 201.201V201.388C215.96 201.615 215.892 201.802 215.756 201.949C215.62 202.085 215.416 202.153 215.144 202.153ZM219.564 202.153C219.28 202.153 219.071 202.085 218.935 201.949C218.81 201.802 218.748 201.615 218.748 201.388V201.201C218.748 200.974 218.81 200.793 218.935 200.657C219.071 200.51 219.28 200.436 219.564 200.436C219.836 200.436 220.04 200.51 220.176 200.657C220.312 200.793 220.38 200.974 220.38 201.201V201.388C220.38 201.615 220.312 201.802 220.176 201.949C220.04 202.085 219.836 202.153 219.564 202.153ZM223.984 202.153C223.7 202.153 223.491 202.085 223.355 201.949C223.23 201.802 223.168 201.615 223.168 201.388V201.201C223.168 200.974 223.23 200.793 223.355 200.657C223.491 200.51 223.7 200.436 223.984 200.436C224.256 200.436 224.46 200.51 224.596 200.657C224.732 200.793 224.8 200.974 224.8 201.201V201.388C224.8 201.615 224.732 201.802 224.596 201.949C224.46 202.085 224.256 202.153 223.984 202.153Z" fill="#0B2541"/>
<rect x="69" y="237" width="159" height="40" rx="20" fill="#0B2541"/>
<path d="M96.504 252.834V263H94.583V252.834H91.047V251.134H100.04V252.834H96.504ZM107.058 263C106.571 263 106.197 262.864 105.936 262.592C105.676 262.309 105.517 261.952 105.46 261.521H105.375C105.205 262.076 104.894 262.496 104.44 262.779C103.987 263.062 103.437 263.204 102.791 263.204C101.873 263.204 101.165 262.966 100.666 262.49C100.179 262.014 99.9352 261.374 99.9352 260.569C99.9352 259.685 100.253 259.022 100.887 258.58C101.533 258.138 102.474 257.917 103.709 257.917H105.307V257.169C105.307 256.625 105.16 256.206 104.865 255.911C104.571 255.616 104.112 255.469 103.488 255.469C102.967 255.469 102.542 255.582 102.213 255.809C101.885 256.036 101.607 256.325 101.38 256.676L100.275 255.673C100.57 255.174 100.984 254.766 101.516 254.449C102.049 254.12 102.746 253.956 103.607 253.956C104.752 253.956 105.63 254.222 106.242 254.755C106.854 255.288 107.16 256.053 107.16 257.05V261.487H108.095V263H107.058ZM103.318 261.793C103.896 261.793 104.372 261.668 104.746 261.419C105.12 261.158 105.307 260.813 105.307 260.382V259.107H103.743C102.463 259.107 101.822 259.504 101.822 260.297V260.603C101.822 261 101.953 261.3 102.213 261.504C102.485 261.697 102.854 261.793 103.318 261.793ZM109.911 250.42H111.764V258.138H111.849L113.073 256.557L115.198 254.16H117.357L114.263 257.577L117.731 263H115.521L112.988 258.784L111.764 260.11V263H109.911V250.42ZM122.311 263.204C121.676 263.204 121.11 263.096 120.611 262.881C120.112 262.666 119.687 262.36 119.336 261.963C118.985 261.555 118.713 261.068 118.52 260.501C118.339 259.923 118.248 259.283 118.248 258.58C118.248 257.877 118.339 257.243 118.52 256.676C118.713 256.098 118.985 255.611 119.336 255.214C119.687 254.806 120.112 254.494 120.611 254.279C121.11 254.064 121.676 253.956 122.311 253.956C122.957 253.956 123.524 254.069 124.011 254.296C124.51 254.523 124.923 254.84 125.252 255.248C125.581 255.645 125.824 256.109 125.983 256.642C126.153 257.175 126.238 257.747 126.238 258.359V259.056H120.169V259.345C120.169 260.025 120.367 260.586 120.764 261.028C121.172 261.459 121.75 261.674 122.498 261.674C123.042 261.674 123.501 261.555 123.875 261.317C124.249 261.079 124.566 260.756 124.827 260.348L125.915 261.419C125.586 261.963 125.11 262.399 124.487 262.728C123.864 263.045 123.138 263.204 122.311 263.204ZM122.311 255.401C121.994 255.401 121.699 255.458 121.427 255.571C121.166 255.684 120.94 255.843 120.747 256.047C120.566 256.251 120.424 256.495 120.322 256.778C120.22 257.061 120.169 257.373 120.169 257.713V257.832H124.283V257.662C124.283 256.982 124.107 256.438 123.756 256.03C123.405 255.611 122.923 255.401 122.311 255.401ZM132.307 263V254.16H134.16V255.622H134.245C134.336 255.395 134.443 255.18 134.568 254.976C134.704 254.772 134.863 254.596 135.044 254.449C135.237 254.29 135.458 254.171 135.707 254.092C135.968 254.001 136.268 253.956 136.608 253.956C137.209 253.956 137.741 254.103 138.206 254.398C138.671 254.693 139.011 255.146 139.226 255.758H139.277C139.436 255.259 139.742 254.834 140.195 254.483C140.648 254.132 141.232 253.956 141.946 253.956C142.83 253.956 143.516 254.256 144.003 254.857C144.49 255.446 144.734 256.291 144.734 257.39V263H142.881V257.611C142.881 256.931 142.751 256.421 142.49 256.081C142.229 255.73 141.816 255.554 141.249 255.554C141.011 255.554 140.784 255.588 140.569 255.656C140.354 255.713 140.161 255.803 139.991 255.928C139.832 256.053 139.702 256.211 139.6 256.404C139.498 256.597 139.447 256.818 139.447 257.067V263H137.594V257.611C137.594 256.24 137.056 255.554 135.979 255.554C135.752 255.554 135.526 255.588 135.299 255.656C135.084 255.713 134.891 255.803 134.721 255.928C134.551 256.053 134.415 256.211 134.313 256.404C134.211 256.597 134.16 256.818 134.16 257.067V263H132.307ZM150.766 263.204C150.131 263.204 149.565 263.096 149.066 262.881C148.567 262.666 148.142 262.36 147.791 261.963C147.44 261.555 147.168 261.068 146.975 260.501C146.794 259.923 146.703 259.283 146.703 258.58C146.703 257.877 146.794 257.243 146.975 256.676C147.168 256.098 147.44 255.611 147.791 255.214C148.142 254.806 148.567 254.494 149.066 254.279C149.565 254.064 150.131 253.956 150.766 253.956C151.412 253.956 151.979 254.069 152.466 254.296C152.965 254.523 153.378 254.84 153.707 255.248C154.036 255.645 154.279 256.109 154.438 256.642C154.608 257.175 154.693 257.747 154.693 258.359V259.056H148.624V259.345C148.624 260.025 148.822 260.586 149.219 261.028C149.627 261.459 150.205 261.674 150.953 261.674C151.497 261.674 151.956 261.555 152.33 261.317C152.704 261.079 153.021 260.756 153.282 260.348L154.37 261.419C154.041 261.963 153.565 262.399 152.942 262.728C152.319 263.045 151.593 263.204 150.766 263.204ZM150.766 255.401C150.449 255.401 150.154 255.458 149.882 255.571C149.621 255.684 149.395 255.843 149.202 256.047C149.021 256.251 148.879 256.495 148.777 256.778C148.675 257.061 148.624 257.373 148.624 257.713V257.832H152.738V257.662C152.738 256.982 152.562 256.438 152.211 256.03C151.86 255.611 151.378 255.401 150.766 255.401ZM160.762 250.42H162.615V255.622H162.7C162.893 255.146 163.182 254.749 163.567 254.432C163.964 254.115 164.502 253.956 165.182 253.956C166.089 253.956 166.791 254.256 167.29 254.857C167.8 255.446 168.055 256.291 168.055 257.39V263H166.202V257.611C166.202 256.24 165.647 255.554 164.536 255.554C164.298 255.554 164.06 255.588 163.822 255.656C163.595 255.713 163.391 255.803 163.21 255.928C163.029 256.053 162.881 256.211 162.768 256.404C162.666 256.597 162.615 256.818 162.615 257.067V263H160.762V250.42ZM174.091 263.204C173.479 263.204 172.918 263.096 172.408 262.881C171.91 262.666 171.485 262.36 171.133 261.963C170.782 261.555 170.51 261.068 170.317 260.501C170.125 259.923 170.028 259.283 170.028 258.58C170.028 257.877 170.125 257.243 170.317 256.676C170.51 256.098 170.782 255.611 171.133 255.214C171.485 254.806 171.91 254.494 172.408 254.279C172.918 254.064 173.479 253.956 174.091 253.956C174.703 253.956 175.259 254.064 175.757 254.279C176.267 254.494 176.698 254.806 177.049 255.214C177.401 255.611 177.673 256.098 177.865 256.676C178.058 257.243 178.154 257.877 178.154 258.58C178.154 259.283 178.058 259.923 177.865 260.501C177.673 261.068 177.401 261.555 177.049 261.963C176.698 262.36 176.267 262.666 175.757 262.881C175.259 263.096 174.703 263.204 174.091 263.204ZM174.091 261.674C174.726 261.674 175.236 261.481 175.621 261.096C176.007 260.699 176.199 260.11 176.199 259.328V257.832C176.199 257.05 176.007 256.466 175.621 256.081C175.236 255.684 174.726 255.486 174.091 255.486C173.457 255.486 172.947 255.684 172.561 256.081C172.176 256.466 171.983 257.05 171.983 257.832V259.328C171.983 260.11 172.176 260.699 172.561 261.096C172.947 261.481 173.457 261.674 174.091 261.674ZM180.219 263V254.16H182.072V255.622H182.157C182.248 255.395 182.355 255.18 182.48 254.976C182.616 254.772 182.775 254.596 182.956 254.449C183.149 254.29 183.37 254.171 183.619 254.092C183.88 254.001 184.18 253.956 184.52 253.956C185.121 253.956 185.653 254.103 186.118 254.398C186.583 254.693 186.923 255.146 187.138 255.758H187.189C187.348 255.259 187.654 254.834 188.107 254.483C188.56 254.132 189.144 253.956 189.858 253.956C190.742 253.956 191.428 254.256 191.915 254.857C192.402 255.446 192.646 256.291 192.646 257.39V263H190.793V257.611C190.793 256.931 190.663 256.421 190.402 256.081C190.141 255.73 189.728 255.554 189.161 255.554C188.923 255.554 188.696 255.588 188.481 255.656C188.266 255.713 188.073 255.803 187.903 255.928C187.744 256.053 187.614 256.211 187.512 256.404C187.41 256.597 187.359 256.818 187.359 257.067V263H185.506V257.611C185.506 256.24 184.968 255.554 183.891 255.554C183.664 255.554 183.438 255.588 183.211 255.656C182.996 255.713 182.803 255.803 182.633 255.928C182.463 256.053 182.327 256.211 182.225 256.404C182.123 256.597 182.072 256.818 182.072 257.067V263H180.219ZM198.678 263.204C198.043 263.204 197.477 263.096 196.978 262.881C196.479 262.666 196.054 262.36 195.703 261.963C195.352 261.555 195.08 261.068 194.887 260.501C194.706 259.923 194.615 259.283 194.615 258.58C194.615 257.877 194.706 257.243 194.887 256.676C195.08 256.098 195.352 255.611 195.703 255.214C196.054 254.806 196.479 254.494 196.978 254.279C197.477 254.064 198.043 253.956 198.678 253.956C199.324 253.956 199.891 254.069 200.378 254.296C200.877 254.523 201.29 254.84 201.619 255.248C201.948 255.645 202.191 256.109 202.35 256.642C202.52 257.175 202.605 257.747 202.605 258.359V259.056H196.536V259.345C196.536 260.025 196.734 260.586 197.131 261.028C197.539 261.459 198.117 261.674 198.865 261.674C199.409 261.674 199.868 261.555 200.242 261.317C200.616 261.079 200.933 260.756 201.194 260.348L202.282 261.419C201.953 261.963 201.477 262.399 200.854 262.728C200.231 263.045 199.505 263.204 198.678 263.204ZM198.678 255.401C198.361 255.401 198.066 255.458 197.794 255.571C197.533 255.684 197.307 255.843 197.114 256.047C196.933 256.251 196.791 256.495 196.689 256.778C196.587 257.061 196.536 257.373 196.536 257.713V257.832H200.65V257.662C200.65 256.982 200.474 256.438 200.123 256.03C199.772 255.611 199.29 255.401 198.678 255.401Z" fill="#E7ECEF"/>
<path fill-rule="evenodd" clip-rule="evenodd" d="M148 0.125C173.888 0.125 194.875 21.1125 194.875 47C194.875 72.8875 173.888 93.875 148 93.875C122.112 93.875 101.125 72.8875 101.125 47C101.125 21.1125 122.112 0.125 148 0.125Z" stroke="#0B2541" stroke-width="6.25" stroke-linecap="round" stroke-linejoin="round"/>
<path d="M138.625 68.875H157.375" stroke="#0B2541" stroke-width="6.25" stroke-linecap="round" stroke-linejoin="round"/>
<path d="M128.375 31.8125C129.237 31.8125 129.937 32.5125 129.937 33.375C129.937 34.2375 129.237 34.9375 128.375 34.9375C127.512 34.9375 126.812 34.2375 126.812 33.375C126.812 32.5125 127.512 31.8125 128.375 31.8125" stroke="#0B2541" stroke-width="6.25" stroke-linecap="round" stroke-linejoin="round"/>
<path fill-rule="evenodd" clip-rule="evenodd" d="M132.375 18.875C141.004 18.875 148 25.8708 148 34.5C148 43.1292 141.004 50.125 132.375 50.125C123.746 50.125 116.75 43.1292 116.75 34.5C116.75 25.8708 123.746 18.875 132.375 18.875Z" stroke="#0B2541" stroke-width="6.25" stroke-linecap="round" stroke-linejoin="round"/>
<path d="M159.625 31.8125C160.487 31.8125 161.187 32.5125 161.187 33.375C161.187 34.2375 160.487 34.9375 159.625 34.9375C158.762 34.9375 158.062 34.2375 158.062 33.375C158.062 32.5125 158.762 31.8125 159.625 31.8125" stroke="#0B2541" stroke-width="6.25" stroke-linecap="round" stroke-linejoin="round"/>
<path fill-rule="evenodd" clip-rule="evenodd" d="M163.625 18.875C172.254 18.875 179.25 25.8708 179.25 34.5C179.25 43.1292 172.254 50.125 163.625 50.125C154.996 50.125 148 43.1292 148 34.5C148 25.8708 154.996 18.875 163.625 18.875Z" stroke="#0B2541" stroke-width="6.25" stroke-linecap="round" stroke-linejoin="round"/>
</g>
<defs>
<clipPath id="clip0">
<rect width="290" height="277" fill="white"/>
</clipPath>
</defs>
</svg>
