<svg width="20" height="20" viewBox="0 0 20 20" fill="none" xmlns="http://www.w3.org/2000/svg">
<path d="M18.4754 2.36051C16.459 0.238797 13.1803 0.238797 11.1639 2.36051L10 3.6025L8.81967 2.36051C6.80328 0.238797 3.52459 0.238797 1.5082 2.36051C0.508197 3.43 0 4.80998 0 6.20721C0 7.96668 0.885246 9.51916 1.85246 10.8819C2.91803 12.3826 4.04918 13.8316 5.27869 15.1771C6.52459 16.5398 7.85246 17.8163 9.31148 18.9203C9.5082 19.11 9.7541 19.2135 10 19.2308C10.2459 19.2308 10.4918 19.11 10.6885 18.9203C12.1475 17.8163 13.4754 16.5398 14.7213 15.1771C15.9508 13.8316 17.0984 12.3826 18.1475 10.8819C19.1148 9.51916 20 7.96668 20 6.20721C20 4.80998 19.4918 3.43 18.4754 2.36051Z" fill="#E2017B"/>
</svg>
