<svg width="30" height="23" viewBox="0 0 30 23" fill="none" xmlns="http://www.w3.org/2000/svg">
<path d="M11.705 19.1254L10.54 20.2904C8.34375 22.4866 4.78125 22.4866 2.585 20.2904C0.38875 18.0941 0.38875 14.5316 2.585 12.3354L8.55125 6.36786C10.745 4.16911 14.3075 4.16411 16.5063 6.35911C18.4675 8.31536 18.7113 11.4091 17.0825 13.6491" stroke="#0B2541" stroke-width="1.875" stroke-linecap="round" stroke-linejoin="round"/>
<path d="M18.5225 2.95871L19.46 2.02121C21.6563 -0.175039 25.2188 -0.175039 27.415 2.02121C29.6113 4.21746 29.6113 7.77996 27.415 9.97621V9.97621L21.4488 15.9425C19.2538 18.1412 15.6925 18.1437 13.4938 15.9487C11.5338 13.9925 11.29 10.9 12.9188 8.65996" stroke="#0B2541" stroke-width="1.875" stroke-linecap="round" stroke-linejoin="round"/>
</svg>
