<svg width="20" height="24" viewBox="0 0 20 24" fill="none" xmlns="http://www.w3.org/2000/svg">
<rect x="17" y="12.725" width="3" height="6" fill="white"/>
<path d="M10.7468 14.4758H8.24728V21.2255H2.49953V12.725H0V21.7266H0.0117903V23.725H19V21.2255H10.7468V14.4758Z" fill="white"/>
<path d="M9.5 11.725C10.3284 11.725 11 11.0534 11 10.225C11 9.39658 10.3284 8.72501 9.5 8.72501C8.67157 8.72501 8 9.39658 8 10.225C8 11.0534 8.67157 11.725 9.5 11.725Z" fill="white"/>
<path d="M9.49116 3.10547C11.3469 3.10251 13.1278 3.79844 14.4416 5.04C15.7555 6.28156 16.4946 7.96695 16.4961 9.72501H19C19 4.75444 14.7467 0.725006 9.5 0.725006C4.25329 0.725006 0 4.75444 0 9.72501H2.50388C2.50712 6.07041 5.63354 3.10855 9.49116 3.10547Z" fill="white"/>
</svg>
