<svg width="184" height="34" viewBox="0 0 184 34" fill="none" xmlns="http://www.w3.org/2000/svg">
<path d="M63.7202 16.916H60.8085L60.3456 14.8696C60.0075 14.607 59.6284 14.4038 59.2242 14.2683C58.7439 14.1014 58.239 14.0194 57.7314 14.0257C57.0873 13.9882 56.4492 14.1698 55.9182 14.5418C55.4973 14.8378 55.2471 15.3253 55.2494 15.8451C55.2477 16.3367 55.4869 16.7971 55.8877 17.0734C56.3133 17.402 57.1609 17.6911 58.4308 17.9405C60.4228 18.3431 61.8986 18.9341 62.8582 19.7134C63.8177 20.4928 64.2983 21.5663 64.3 22.9341C64.3 24.3999 63.6787 25.5982 62.436 26.5289C61.1933 27.4597 59.5641 27.9268 57.5483 27.9302C56.3891 27.9424 55.2361 27.7556 54.1381 27.378C53.1317 27.0297 52.1972 26.4961 51.3815 25.8038L51.3357 22.1392H54.367L54.9621 24.2657C55.271 24.511 55.6326 24.679 56.0174 24.756C56.4753 24.8629 56.9438 24.9157 57.4135 24.9134C58.2968 24.9134 58.9682 24.7526 59.4276 24.4309C59.8676 24.1464 60.129 23.6492 60.1168 23.1199C60.1036 22.6112 59.8426 22.1423 59.42 21.8683C58.9546 21.5147 58.0976 21.2051 56.849 20.9315C54.957 20.5393 53.5278 19.9595 52.5615 19.1922C51.6052 18.4433 51.0652 17.2712 51.1119 16.0463C51.1119 14.6786 51.6672 13.5001 52.7776 12.5109C53.8881 11.5216 55.4681 11.0261 57.5178 11.0242C58.7172 11.0189 59.9108 11.1928 61.0602 11.5405C62.011 11.7995 62.9026 12.2449 63.6846 12.8515L63.7202 16.916Z" fill="#404041"/>
<path d="M65.8005 6.74311V4.09021H72.4429V17.7212H73.4093L75.9065 14.147L74.4951 13.9509V11.298H82.3988V13.9509L80.4967 14.387L77.6002 18.4283L81.6563 24.6218L83.3067 24.9676V27.6076H75.876V24.9728L76.7686 24.8231L74.3019 20.787H72.4429V24.5263L74.3171 24.978V27.618H66.0243V24.9728L68.1198 24.5212V7.19473L65.8005 6.74311Z" fill="#404041"/>
<path fillRule="evenodd" clipRule="evenodd" d="M86.8338 13.3237C85.4928 14.879 84.8223 16.8721 84.8223 19.303V19.6256C84.8189 22.0738 85.4894 24.0721 86.8338 25.6205C88.1782 27.1689 90.0431 27.943 92.4285 27.943C94.7867 27.9362 96.6372 27.162 97.9799 25.6205C99.3226 24.079 99.994 22.0807 99.994 19.6256V19.3082C99.9974 16.8669 99.326 14.8721 97.9799 13.3237C96.6338 11.7753 94.774 11.001 92.4005 11.001C90.0304 10.9942 88.1749 11.7684 86.8338 13.3237ZM89.9236 23.2024C89.415 22.3026 89.1607 21.1086 89.1607 19.6205V19.303C89.1539 17.8562 89.4082 16.6751 89.9236 15.7598C90.439 14.8446 91.2612 14.3869 92.3903 14.3869C93.5211 14.3869 94.3485 14.8446 94.8723 15.7598C95.3962 16.6751 95.6581 17.8562 95.6581 19.303V19.6205C95.6581 21.0992 95.3962 22.2914 94.8774 23.1947C94.3586 24.0979 93.5652 24.5521 92.4183 24.5521C91.2714 24.5521 90.4322 24.1005 89.9236 23.2024Z" fill="#404041"/>
<path d="M101.123 6.74311V4.09021H107.778V24.5212L109.874 24.9728V27.6128H101.344V24.9728L103.44 24.5212V7.19473L101.123 6.74311Z" fill="#404041"/>
<path fillRule="evenodd" clipRule="evenodd" d="M113.426 25.6669C114.815 27.1758 116.667 27.9302 118.983 27.9302C120.181 27.9436 121.374 27.7571 122.512 27.3779C123.441 27.0838 124.314 26.6298 125.091 26.036L123.916 23.3211C123.256 23.7031 122.559 24.0144 121.836 24.2502C121.056 24.4653 120.25 24.5644 119.443 24.5444C118.365 24.5444 117.51 24.2003 116.88 23.5121C116.235 22.7776 115.86 21.8394 115.819 20.8566L115.847 20.7663H125.447V18.3689C125.449 16.1151 124.849 14.325 123.649 12.9986C122.449 11.6721 120.764 11.0089 118.596 11.0089C116.387 10.99 114.626 11.7642 113.314 13.3315C112.002 14.8988 111.346 16.8945 111.346 19.3186V19.9224C111.344 22.2433 112.038 24.1581 113.426 25.6669ZM116.694 15.3237C117.136 14.7109 117.848 14.3601 118.596 14.3869C119.468 14.3869 120.119 14.6682 120.552 15.2257C121.01 15.8758 121.238 16.6646 121.198 17.4631V17.8553H115.878L115.832 17.7805C115.894 16.8973 116.192 16.0479 116.694 15.3237Z" fill="#404041"/>
<path d="M127.825 24.9728L129.905 24.5212V14.4025L127.601 13.9509V11.298H133.946L134.139 13.6799C134.459 12.9106 134.959 12.2321 135.596 11.7031C136.182 11.2352 136.908 10.9855 137.653 10.996C137.894 10.9973 138.135 11.0146 138.373 11.0477C138.587 11.0748 138.799 11.1179 139.006 11.1767L138.554 15.187L136.774 15.1431C136.225 15.1214 135.681 15.2516 135.199 15.5199C134.783 15.7706 134.451 16.1442 134.248 16.5909V24.5212L136.328 24.9728V27.6128H127.825V24.9728Z" fill="#404041"/>
<path fillRule="evenodd" clipRule="evenodd" d="M142.022 13.3237C140.68 14.879 140.008 16.8721 140.008 19.303V19.6256C140.008 22.0738 140.68 24.0721 142.022 25.6205C143.365 27.1689 145.23 27.943 147.617 27.943C149.974 27.9362 151.823 27.162 153.166 25.6205C154.509 24.079 155.18 22.0807 155.18 19.6256V19.3082C155.183 16.8669 154.512 14.8721 153.166 13.3237C151.82 11.7753 149.96 11.001 147.587 11.001C145.22 10.9942 143.365 11.7684 142.022 13.3237ZM145.112 23.2024C144.604 22.3026 144.349 21.1086 144.349 19.6205V19.303C144.342 17.8562 144.597 16.6751 145.112 15.7598C145.628 14.8446 146.45 14.3869 147.579 14.3869C148.708 14.3869 149.535 14.8446 150.061 15.7598C150.586 16.6751 150.849 17.8562 150.849 19.303V19.6205C150.849 21.0983 150.589 22.2897 150.068 23.1947C149.548 24.0996 148.728 24.5521 147.609 24.5521C146.453 24.5521 145.621 24.1022 145.112 23.2024Z" fill="#404041"/>
<path d="M156.563 13.9509V11.298H162.908L163.086 13.4528C163.576 12.698 164.241 12.0775 165.024 11.6464C165.856 11.2068 166.784 10.9867 167.722 11.0064C168.651 10.9783 169.568 11.219 170.367 11.7006C171.129 12.1988 171.713 12.9339 172.03 13.796C172.49 12.9519 173.156 12.2412 173.963 11.7315C174.809 11.2244 175.778 10.9687 176.76 10.9935C178.345 10.9935 179.596 11.5483 180.511 12.658C181.427 13.7677 181.884 15.4597 181.884 17.7341V24.5186L183.98 24.9702V27.6102H175.672V24.9728L177.543 24.5212V17.7212C177.543 16.4842 177.346 15.624 176.951 15.1406C176.556 14.6571 175.962 14.4154 175.171 14.4154C174.611 14.4016 174.058 14.5454 173.574 14.8309C173.12 15.1115 172.748 15.5097 172.496 15.9844C172.496 16.1754 172.496 16.338 172.511 16.4748C172.526 16.6115 172.526 16.7483 172.526 16.8877V24.5186L174.281 24.9702V27.6102H166.448V24.9728L168.203 24.5212V17.7212C168.203 16.5169 168.005 15.6644 167.608 15.1638C167.211 14.6683 166.616 14.418 165.828 14.418C165.295 14.4059 164.768 14.5227 164.289 14.7586C163.853 14.9806 163.478 15.3097 163.198 15.716V24.5212L165.07 24.9728V27.6128H156.785V24.9728L158.88 24.5212V14.4025L156.563 13.9509Z" fill="#404041"/>
<path fillRule="evenodd" clipRule="evenodd" d="M28.3975 0.564908C22.1188 -0.789979 15.2362 0.368066 9.55876 3.23889C1.74198 7.18852 7.38585 8.92431 14.3923 6.44461C15.9758 5.88637 17.733 4.84967 19.5201 3.79529C22.6434 1.95262 25.8582 0.0559712 28.3975 0.564908ZM22.6832 12.2699C21.7642 12.9487 21.0098 13.506 20.5059 13.8351C7.22328 22.5218 -7.44769 18.3548 4.2865 7.13739C2.42327 9.08536 5.48134 11.7108 14.2942 8.58942C16.5228 7.79717 18.6896 6.48646 20.8201 5.19767C26.5816 1.71235 32.0782 -1.61266 37.8168 5.91032C35.3529 2.91067 27.1094 9.00018 22.6832 12.2699ZM21.9562 15.801C15.9304 19.743 6.78198 22.7493 2.60134 19.2393C5.78872 22.1808 9.96489 22.8841 14.0618 23.5741H14.0618C15.8328 23.8723 17.5889 24.1681 19.2439 24.641C22.5136 24.5771 24.8155 23.056 27.853 20.7527C34.8 15.4866 38.142 17.8691 37.1097 19.8938C38.9007 17.1789 40.2917 14.0141 39.6 9.94175C38.4714 3.28462 29.1384 10.3897 24.2333 14.1238L24.2333 14.1239C23.2729 14.855 22.4823 15.4569 21.9562 15.801ZM21.76 25.6329C24.302 25.5818 26.2194 24.2627 28.5807 22.4732C33.9691 18.3778 36.5652 20.2082 35.7755 21.7932C35.5519 22.0932 35.3283 22.3887 35.1076 22.6804C32.2164 26.5012 29.8185 29.6702 34.2013 33.9667C30.3862 34.119 28.9795 32.5134 26.895 30.1344C26.4245 29.5975 25.9195 29.0212 25.3446 28.4168C24.3139 27.2983 23.1025 26.3575 21.76 25.6329Z" fill="url(#paint0_linear)"/>
<path d="M25.0711 13.9451C20.0415 17.7618 12.4027 22.0616 5.86597 21.0161C8.35371 22.2304 11.1692 22.7135 13.9692 23.1864C19.3679 22.3198 24.4879 18.7613 28.6427 15.0699C32.3537 11.7696 41.2673 7.71005 38.1008 17.4346C39.2764 15.142 39.6746 12.5351 39.2363 10.0006C38.1292 3.44088 27.4195 12.1607 25.0711 13.9451Z" fill="url(#paint1_linear)"/>
<path d="M19.5097 10.2383C11.4297 15.9059 -1.9819 17.9791 2.47746 9.64782C-2.11351 15.3895 1.36778 18.5952 7.93294 18.0839C12.2658 17.749 16.7071 15.8905 20.32 13.5386C23.8581 11.2379 32.0929 4.21293 36.4 4.783C30.4929 0.779695 24.3381 6.84601 19.5097 10.2383Z" fill="url(#paint2_linear)"/>
<path d="M9.45043 3.59171C8.94733 3.84838 8.45807 4.13081 7.98462 4.43788C5.69301 5.93592 6.14462 6.95336 8.68914 6.92269C11.4272 6.88945 14.1808 5.96915 16.5653 4.66795C19.1124 3.27727 21.7549 1.36509 24.5395 0.521484C21.5459 0.682537 16.5059 3.82945 12.7278 5.05652C9.88914 5.97427 6.21946 5.80554 9.45043 3.59171Z" fill="url(#paint3_linear)"/>
<path d="M27.8994 20.1213C33.853 15.1517 38.7588 15.6374 37.5433 18.9735C38.9033 15.2667 35.9046 12.9353 27.8994 20.1213Z" fill="url(#paint4_linear)"/>
<path d="M5.91242 11.5599C3.36017 11.4295 2.48017 9.98261 3.31113 8.34652C1.8892 10.6677 2.79501 12.9071 6.83113 12.2961C10.0002 11.8155 14.2402 9.66562 16.9498 7.9375C14.0544 9.58893 9.15372 11.7261 5.91242 11.5599Z" fill="url(#paint5_linear)"/>
<defs>
<linearGradient id="paint0_linear" x1="-16.9596" y1="10.5251" x2="8.96936" y2="56.7825" gradientUnits="userSpaceOnUse">
<stop offset="0.1" stop-color="#FDBD48"/>
<stop offset="0.4" stop-color="#E43B43"/>
<stop offset="0.6" stop-color="#E2499A"/>
<stop offset="0.9" stop-color="#6652A2"/>
</linearGradient>
<linearGradient id="paint1_linear" x1="41.2075" y1="-17.0137" x2="26.9817" y2="19.8223" gradientUnits="userSpaceOnUse">
<stop stop-color="white" stop-opacity="0.635626"/>
<stop offset="1" stop-color="white" stop-opacity="0.01"/>
</linearGradient>
<linearGradient id="paint2_linear" x1="3.81736" y1="37.7021" x2="13.1156" y2="7.43701" gradientUnits="userSpaceOnUse">
<stop stop-color="white"/>
<stop offset="1" stop-color="white" stop-opacity="0.01"/>
</linearGradient>
<linearGradient id="paint3_linear" x1="-20.4583" y1="10.3321" x2="16.813" y2="10.3321" gradientUnits="userSpaceOnUse">
<stop stop-color="white"/>
<stop offset="1" stop-color="white" stop-opacity="0.01"/>
</linearGradient>
<linearGradient id="paint4_linear" x1="33.6388" y1="15.3583" x2="43.8091" y2="15.3583" gradientUnits="userSpaceOnUse">
<stop stop-color="white" stop-opacity="0.0401278"/>
<stop offset="1" stop-color="white" stop-opacity="0.460473"/>
</linearGradient>
<linearGradient id="paint5_linear" x1="2.68091" y1="9.7655" x2="9.81538" y2="9.7655" gradientUnits="userSpaceOnUse">
<stop stop-color="white" stop-opacity="0.32594"/>
<stop offset="1" stop-color="white" stop-opacity="0.01"/>
</linearGradient>
</defs>
</svg>
