<svg width="31" height="31" viewBox="0 0 31 31" fill="none" xmlns="http://www.w3.org/2000/svg">
<path d="M26.3112 23.4425V25.3175C26.3112 26.3525 25.4712 27.1925 24.4362 27.1925H18.8112" stroke="#0B2541" strokeWidth="1.875" strokeLinecap="round" strokeLinejoin="round"/>
<path d="M18.8112 4.6925H24.4362C25.4712 4.6925 26.3112 5.5325 26.3112 6.5675V8.4425" stroke="#0B2541" strokeWidth="1.875" strokeLinecap="round" strokeLinejoin="round"/>
<path fillRule="evenodd" clipRule="evenodd" d="M13.9912 29.0575L2.74125 27.45C2.28 27.3837 1.93625 26.9887 1.93625 26.5225V4.65625C1.93625 4.21375 2.245 3.83125 2.6775 3.73875L13.9275 0.962499C14.4337 0.853749 14.9325 1.17625 15.04 1.6825C15.0537 1.7475 15.0612 1.81375 15.0612 1.88V28.13C15.0612 28.6475 14.6412 29.0675 14.1237 29.0675C14.0787 29.0675 14.035 29.0637 13.9912 29.0575Z" stroke="#0B2541" strokeWidth="1.875" strokeLinecap="round" strokeLinejoin="round"/>
<path d="M26.3112 12.1912L30.0612 15.9412H19.7487" stroke="#0B2541" strokeWidth="1.875" strokeLinecap="round" strokeLinejoin="round"/>
<path d="M26.3125 19.6912L30.0625 15.9412" stroke="#0B2541" strokeWidth="1.875" strokeLinecap="round" strokeLinejoin="round"/>
<path d="M10.8425 14.5363C10.5837 14.5363 10.3737 14.7463 10.3737 15.005C10.3737 15.2638 10.5837 15.4738 10.8425 15.4738C11.1012 15.4738 11.3112 15.2638 11.3112 15.005C11.3112 15.0038 11.3112 15.0013 11.3112 15C11.3125 14.7413 11.1037 14.5325 10.845 14.5313C10.8437 14.5313 10.8437 14.5313 10.8425 14.5313V14.5313" stroke="#0B2541" strokeWidth="1.875" strokeLinecap="round" strokeLinejoin="round"/>
</svg>
