<svg width="32" height="32" viewBox="0 0 32 32" fill="none" xmlns="http://www.w3.org/2000/svg">
<path fillRule="evenodd" clipRule="evenodd" d="M7 17.75C8.243 17.75 9.25 18.757 9.25 20C9.25 21.243 8.243 22.25 7 22.25C5.757 22.25 4.75 21.243 4.75 20C4.75 18.757 5.757 17.75 7 17.75Z" stroke="#939FA7" strokeWidth="1.5" strokeLinecap="round" strokeLinejoin="round"/>
<path fillRule="evenodd" clipRule="evenodd" d="M16 17.75C17.243 17.75 18.25 18.757 18.25 20C18.25 21.243 17.243 22.25 16 22.25C14.757 22.25 13.75 21.243 13.75 20C13.75 18.757 14.757 17.75 16 17.75Z" stroke="#939FA7" strokeWidth="1.5" strokeLinecap="round" strokeLinejoin="round"/>
<path fillRule="evenodd" clipRule="evenodd" d="M25 17.75C26.243 17.75 27.25 18.757 27.25 20C27.25 21.243 26.243 22.25 25 22.25C23.757 22.25 22.75 21.243 22.75 20C22.75 18.757 23.757 17.75 25 17.75Z" stroke="#939FA7" strokeWidth="1.5" strokeLinecap="round" strokeLinejoin="round"/>
<path d="M16 17.75V6.75" stroke="#939FA7" strokeWidth="1.5" strokeLinecap="round" strokeLinejoin="round"/>
<path d="M7 17.75V14.75H25V17.75" stroke="#939FA7" strokeWidth="1.5" strokeLinecap="round" strokeLinejoin="round"/>
<path fillRule="evenodd" clipRule="evenodd" d="M16 31C24.2843 31 31 24.2843 31 16C31 7.71573 24.2843 1 16 1C7.71573 1 1 7.71573 1 16C1 24.2843 7.71573 31 16 31Z" stroke="#939FA7" strokeWidth="1.5"/>
</svg>
