<?xml version="1.0" encoding="UTF-8"?>
<svg width="31px" height="31px" viewBox="0 0 31 31" version="1.1" xmlns="http://www.w3.org/2000/svg" xmlns:xlink="http://www.w3.org/1999/xlink">
    <title>Icon - Alert</title>
    <g id="Symbols" stroke="none" strokeWidth="1" fill="none" fillRule="evenodd" strokeLinecap="round" strokeLinejoin="round">
        <g id="Notification---Error" transform="translate(-40.000000, -31.000000)" stroke="#E2017B">
            <g id="Notification">
                <g id="Content">
                    <g id="Icon---Alert-(big)" transform="translate(40.000000, 31.000000)">
                        <g id="Icon---Alert" transform="translate(1.000000, 1.000000)">
                            <path d="M14.0631934,22.5005286 C13.8044434,22.5005286 13.5944434,22.7105286 13.5944434,22.9692786 C13.5944434,23.2280286 13.8044434,23.4380286 14.0631934,23.4380286 C14.3219434,23.4380286 14.5319434,23.2280286 14.5319434,22.9692786 C14.5319434,22.7105286 14.3219434,22.5005286 14.0631934,22.5005286 L14.0631934,22.5005286" id="Path" strokeWidth="1.875"></path>
                            <line x1="14.0631934" y1="18.7505286" x2="14.0631934" y2="9.37552864" id="Path" strokeWidth="1.875"></line>
                            <path d="M16.0894434,1.26302864 C15.5394434,0.14427864 14.1869434,-0.31822136 13.0681934,0.23177864 C12.6194434,0.45177864 12.2569434,0.81427864 12.0369434,1.26302864 L0.195693388,25.3855286 C-0.268056612,26.3280286 0.120693388,27.4667786 1.06319339,27.9305286 C1.32444339,28.0592786 1.61194339,28.12553 1.90319339,28.12553 L26.2231934,28.12553 C27.2731934,28.1267786 28.1244434,27.2755286 28.1256934,26.2255286 C28.1256934,25.9342786 28.0594434,25.6467786 27.9306934,25.3855286 L16.0894434,1.26302864 Z" id="Path" strokeWidth="1.875"></path>
                        </g>
                    </g>
                </g>
            </g>
        </g>
    </g>
</svg>
