<svg width="18" height="6" viewBox="0 0 18 6" fill="none" xmlns="http://www.w3.org/2000/svg">
    <path fill-rule="evenodd" clip-rule="evenodd" d="M2.5 1.375C1.603 1.375 0.875 2.103 0.875 3C0.875 3.897 1.603 4.625 2.5 4.625C3.397 4.625 4.125 3.897 4.125 3C4.125 2.103 3.397 1.375 2.5 1.375Z" stroke="#0B2541" stroke-width="1.625" stroke-linecap="round" stroke-linejoin="round"/>
    <path fill-rule="evenodd" clip-rule="evenodd" d="M15.5 1.375C14.603 1.375 13.875 2.103 13.875 3C13.875 3.897 14.603 4.625 15.5 4.625C16.397 4.625 17.125 3.897 17.125 3C17.125 2.103 16.397 1.375 15.5 1.375Z" stroke="#0B2541" stroke-width="1.625" stroke-linecap="round" stroke-linejoin="round"/>
    <path fill-rule="evenodd" clip-rule="evenodd" d="M9 1.375C8.103 1.375 7.375 2.103 7.375 3C7.375 3.897 8.103 4.625 9 4.625C9.897 4.625 10.625 3.897 10.625 3C10.625 2.103 9.897 1.375 9 1.375Z" stroke="#0B2541" stroke-width="1.625" stroke-linecap="round" stroke-linejoin="round"/>
</svg>
