<?xml version="1.0" encoding="utf-8"?>
<svg width="21px" height="21px" viewBox="0 0 21 21" version="1.1" xmlns="http://www.w3.org/2000/svg">
  <title>9D6B9251-2B6C-491B-BBF5-A7775788BF7D@1x</title>
  <defs>
    <filter x="-1.7%" y="-1.3%" width="103.4%" height="102.5%" filterUnits="objectBoundingBox" id="filter-1">
      <feOffset dx="0" dy="2" in="SourceAlpha" result="shadowOffsetOuter1"/>
      <feGaussianBlur stdDeviation="2" in="shadowOffsetOuter1" result="shadowBlurOuter1"/>
      <feColorMatrix values="0 0 0 0 0   0 0 0 0 0   0 0 0 0 0  0 0 0 0.13 0" type="matrix" in="shadowBlurOuter1" result="shadowMatrixOuter1"/>
      <feMerge>
        <feMergeNode in="shadowMatrixOuter1"/>
        <feMergeNode in="SourceGraphic"/>
      </feMerge>
    </filter>
  </defs>
  <g id="Designs" stroke="none" stroke-width="1" fill="none" fill-rule="evenodd" stroke-linecap="round" stroke-linejoin="round" transform="matrix(1, 0, 0, 1, -9.091721, -8.992357)">
    <g id="Teaching-path-preview-(overview)" transform="translate(-1054.000000, -289.000000)" stroke="#0B2541" stroke-width="1.5">
      <g id="Forhåndsvisning" transform="translate(720.000000, 77.000000)" filter="url(#filter-1)">
        <g id="Skillelinjer" transform="translate(0.000000, 221.000000)">
          <g id="Person" transform="translate(344.000000, 1.000000)">
            <path d="M9.5,0 C14.7465333,0 19,4.25346667 19,9.5 C19,14.7465333 14.7465333,19 9.5,19 C4.25346667,19 0,14.7465333 0,9.5 C0,4.25346667 4.25346667,0 9.5,0 Z" id="Path"/>
            <g id="Group" transform="translate(5.220779, 3.000000)">
              <path d="M2.14285714,2.32142857 C2.14285714,3.60351817 3.18219612,4.64285714 4.46428571,4.64285714 C5.74637531,4.64285714 6.78571429,3.60351817 6.78571429,2.32142857 C6.78571429,1.03933897 5.74637531,0 4.46428571,0 C3.18219612,0 2.14285714,1.03933897 2.14285714,2.32142857 Z" id="Path"/>
              <path d="M0,11 C0,8.63306536 1.91877964,6.71428571 4.28571429,6.71428571 C6.65264893,6.71428571 8.57142857,8.63306536 8.57142857,11" id="Path"/>
            </g>
          </g>
        </g>
      </g>
    </g>
  </g>
</svg>
