<?xml version="1.0" encoding="UTF-8"?>
<svg width="90px" height="60px" viewBox="0 0 90 60" version="1.1" xmlns="http://www.w3.org/2000/svg" xmlns:xlink="http://www.w3.org/1999/xlink">
    <title>Bilde</title>
    <g id="Symbols" stroke="none" strokeWidth="1" fill="none" fillRule="evenodd">
        <g id="Bilde">
            <path d="M5,0 L90,0 L90,0 L90,60 L5,60 C2.23857625,60 3.38176876e-16,57.7614237 0,55 L0,5 C-3.38176876e-16,2.23857625 2.23857625,5.07265313e-16 5,0 Z" fill="#596A75"></path>
            <g id="Group" transform="translate(33.000000, 18.000000)" fill="#FFFFFF" fillRule="nonzero">
                <g id="Group">
                    <path d="M12.5,25 C5.60729167,25 0,19.3927083 0,12.5 C0,5.60729167 5.60729167,0 12.5,0 C19.3927083,0 25,5.60729167 25,12.5 C25,19.3927083 19.3927083,25 12.5,25 Z M12.5,1.5625 C6.46875,1.5625 1.5625,6.46875 1.5625,12.5 C1.5625,18.53125 6.46875,23.4375 12.5,23.4375 C18.53125,23.4375 23.4375,18.53125 23.4375,12.5 C23.4375,6.46875 18.53125,1.5625 12.5,1.5625 Z" id="Shape"></path>
                    <path d="M12.4083333,17.96875 C9.315625,17.96875 6.25208333,15.8791667 4.41666667,13.9239583 C3.740625,13.2041667 3.740625,12.0760417 4.41666667,11.3552083 C6.246875,9.40104167 9.30833333,7.31354167 12.4114583,7.31354167 L12.5947917,7.31354167 C15.69375,7.31354167 18.75625,9.40208333 20.5885417,11.3572917 C21.2645833,12.0770833 21.2635417,13.2052083 20.5885417,13.925 C18.7510417,15.8802083 15.6875,17.9697917 12.6,17.9697917 L12.4083333,17.96875 Z M12.4072917,8.87604167 C9.80625,8.87604167 7.1625,10.709375 5.55625,12.4239583 C5.44270833,12.5447917 5.44270833,12.7333333 5.55625,12.8541667 C7.16875,14.5708333 9.81145833,16.40625 12.3958333,16.40625 L12.5885417,16.40625 C15.1854167,16.40625 17.8354167,14.571875 19.4489583,12.8552083 C19.5614583,12.7354167 19.5614583,12.546875 19.4489583,12.4260417 C17.8395833,10.709375 15.2010417,8.875 12.61875,8.875 L12.4072917,8.87604167 Z" id="Shape"></path>
                    <path d="M12.5,14.984375 C11.2072917,14.984375 10.15625,13.9333333 10.15625,12.640625 C10.15625,11.3479167 11.2072917,10.296875 12.5,10.296875 C13.7927083,10.296875 14.84375,11.3479167 14.84375,12.640625 C14.84375,13.9333333 13.7927083,14.984375 12.5,14.984375 Z M12.5,11.859375 C12.06875,11.859375 11.71875,12.209375 11.71875,12.640625 C11.71875,13.071875 12.06875,13.421875 12.5,13.421875 C12.93125,13.421875 13.28125,13.071875 13.28125,12.640625 C13.28125,12.209375 12.93125,11.859375 12.5,11.859375 Z" id="Shape"></path>
                </g>
            </g>
        </g>
    </g>
</svg>
