<svg width="16" height="16" viewBox="0 0 16 16" fill="none" xmlns="http://www.w3.org/2000/svg">
<path fill-rule="evenodd" clip-rule="evenodd" d="M5.5 6.5H10.5C11.052 6.5 11.5 6.948 11.5 7.5V11.5C11.5 12.052 11.052 12.5 10.5 12.5H5.5C4.948 12.5 4.5 12.052 4.5 11.5V7.5C4.5 6.948 4.948 6.5 5.5 6.5Z" stroke="white" stroke-linecap="round" stroke-linejoin="round"/>
<path d="M5.5 6.5V5C5.5 3.61933 6.61933 2.5 8 2.5C9.38067 2.5 10.5 3.61933 10.5 5V6.5" stroke="white" stroke-linecap="round" stroke-linejoin="round"/>
<path fill-rule="evenodd" clip-rule="evenodd" d="M8 0.5C12.142 0.5 15.5 3.858 15.5 8C15.5 12.142 12.142 15.5 8 15.5C3.858 15.5 0.5 12.142 0.5 8C0.5 3.858 3.858 0.5 8 0.5Z" stroke="white" stroke-linecap="round" stroke-linejoin="round"/>
<path d="M8 8.5V10.5" stroke="white" stroke-linecap="round" stroke-linejoin="round"/>
</svg>
