<svg width="21" height="21" viewBox="0 0 21 21" fill="none" xmlns="http://www.w3.org/2000/svg">
<path d="M8 7.54461C8 6.13867 9.12 4.99915 10.5008 5C11.8817 5 13.0008 6.14036 13 7.5463C13 8.62473 12.3317 9.58606 11.3333 9.94582C10.8333 10.1257 10.5 10.6068 10.5 11.1464V12" stroke="#6E7C85" strokeWidth="1.5" strokeLinecap="round" strokeLinejoin="round"/>
<path d="M10.5 14.125C10.293 14.125 10.125 14.293 10.125 14.5C10.125 14.707 10.293 14.875 10.5 14.875C10.707 14.875 10.875 14.707 10.875 14.5C10.875 14.293 10.707 14.125 10.5 14.125V14.125" stroke="#6E7C85" strokeWidth="1.5" strokeLinecap="round" strokeLinejoin="round"/>
<path fillRule="evenodd" clipRule="evenodd" d="M10.5 1C15.7465 1 20 5.25347 20 10.5C20 15.7465 15.7465 20 10.5 20C5.25347 20 1 15.7465 1 10.5C1 5.25347 5.25347 1 10.5 1Z" stroke="#6E7C85" strokeWidth="1.5" strokeLinecap="round" strokeLinejoin="round"/>
</svg>
