<?xml version="1.0" encoding="UTF-8"?>
<svg width="28px" height="28px" viewBox="0 0 28 28" version="1.1" xmlns="http://www.w3.org/2000/svg" xmlns:xlink="http://www.w3.org/1999/xlink">
    <title>Reading</title>
    <g id="Teaching-Path---V3" stroke="none" strokeWidth="1" fill="none" fillRule="evenodd" strokeLinecap="round" strokeLinejoin="round">
        <g id="New-Teaching-Path---Create-(add-articles)---Filters-opened" transform="translate(-57.000000, -694.000000)" stroke="#0B2541" strokeWidth="1.75">
            <g id="Velg-oppgaver" transform="translate(-1.000000, 77.000000)">
                <g id="Sub-Menu" transform="translate(57.000000, 34.000000)">
                    <g id="Reading" transform="translate(2.000000, 584.000000)">
                        <path d="M13,26 L3.09661544,22.0137237 C2.44268239,21.7896205 1.99981104,21.1451907 2,20.4180197 L2,11.6780492 C2,11.1407831 2.24319689,10.6360045 2.65413608,10.3202947 C3.06507527,10.0045849 3.59406948,9.91612135 4.07702569,10.0823452 L13,13.7320557 L13,26 Z" id="Path"></path>
                        <path d="M22.9033846,22.0137237 L13,26 L13,13.7320557 L21.9229743,10.0823452 C22.4059305,9.91612135 22.9349247,10.0045849 23.3458639,10.3202947 C23.7568031,10.6360045 24,11.1407831 24,11.6780492 L24,20.4180197 C24.000189,21.1451907 23.5573176,21.7896205 22.9033846,22.0137237 L22.9033846,22.0137237 Z" id="Path"></path>
                        <path d="M3,4 C3,5.42906235 3.76239567,6.74957043 5,7.46410161 C6.2376043,8.1786328 7.7623957,8.1786328 9,7.46410161 C10.2376043,6.74957043 11,5.42906235 11,4 C11,2.57093765 10.2376043,1.25042957 9,0.535898387 C7.7623957,-0.178632796 6.2376043,-0.178632796 5,0.535898387 C3.76239567,1.25042957 3,2.57093765 3,4 Z" id="Path"></path>
                        <path d="M15,4 C15,5.42906235 15.7623957,6.74957043 17,7.46410161 C18.2376043,8.1786328 19.7623957,8.1786328 21,7.46410161 C22.2376043,6.74957043 23,5.42906235 23,4 C23,2.57093765 22.2376043,1.25042957 21,0.535898388 C19.7623957,-0.178632796 18.2376043,-0.178632796 17,0.535898388 C15.7623957,1.25042957 15,2.57093765 15,4 L15,4 Z" id="Path"></path>
                        <path d="M11,5 C11,3.8954305 11.8954305,3 13,3 C14.1045695,3 15,3.8954305 15,5" id="Path"></path>
                        <line x1="26" y1="4.5" x2="24" y2="4.5" id="Path"></line>
                        <line x1="2" y1="4.5" x2="0" y2="4.5" id="Path"></line>
                        <line x1="18" y1="17.875" x2="20" y2="17.125" id="Path"></line>
                    </g>
                </g>
            </g>
        </g>
    </g>
</svg>
