<svg width="20" height="20" viewBox="0 0 20 20" fill="none" xmlns="http://www.w3.org/2000/svg">
<path d="M6.875 19.375H2.5C1.46417 19.375 0.625 18.5358 0.625 17.5" stroke="#0B2541" stroke-width="1.25" stroke-linecap="round" stroke-linejoin="round"/>
<path d="M15.625 6.875V1.25C15.625 0.905 15.345 0.625 15 0.625H3.125C1.74417 0.625 0.625 1.74417 0.625 3.125V17.5C0.625 16.4642 1.46417 15.625 2.5 15.625H6.875" stroke="#0B2541" stroke-width="1.25" stroke-linecap="round" stroke-linejoin="round"/>
<path fill-rule="evenodd" clip-rule="evenodd" d="M10.2083 9.375H18.5417C19.0017 9.375 19.375 9.74833 19.375 10.2083V18.5417C19.375 19.0017 19.0017 19.375 18.5417 19.375H10.2083C9.74833 19.375 9.375 19.0017 9.375 18.5417V10.2083C9.375 9.74833 9.74833 9.375 10.2083 9.375Z" stroke="#0B2541" stroke-width="1.25" stroke-linecap="round" stroke-linejoin="round"/>
<path d="M12.8125 11.875C12.64 11.875 12.5 12.015 12.5 12.1875C12.5 12.36 12.64 12.5 12.8125 12.5C12.985 12.5 13.125 12.36 13.125 12.1875C13.125 12.015 12.985 11.875 12.8125 11.875V11.875V11.875" stroke="#0B2541" stroke-width="1.25" stroke-linecap="round" stroke-linejoin="round"/>
<path d="M19.375 17.5L17.3825 14.5108C17.1908 14.2233 16.8025 14.1458 16.5158 14.3375C16.4508 14.3808 16.395 14.4358 16.35 14.5L14.6833 16.8758L13.6533 16.0517C13.3833 15.8358 12.9892 15.88 12.7742 16.1508C12.7633 16.165 12.7525 16.1792 12.7425 16.1933L10.625 19.375" stroke="#0B2541" stroke-width="1.25" stroke-linecap="round" stroke-linejoin="round"/>
</svg>
