<svg width="30" height="30" viewBox="0 0 30 30" fill="none" xmlns="http://www.w3.org/2000/svg">
<path fillRule="evenodd" clipRule="evenodd" d="M5.625 4.6875C7.17875 4.6875 8.4375 5.94625 8.4375 7.5C8.4375 9.05375 7.17875 10.3125 5.625 10.3125C4.07125 10.3125 2.8125 9.05375 2.8125 7.5C2.8125 5.94625 4.07125 4.6875 5.625 4.6875Z" stroke="#0B2541" strokeWidth="1.875" strokeLinecap="round" strokeLinejoin="round"/>
<path d="M5.625 12.1875C3.03625 12.1875 0.9375 14.2863 0.9375 16.875V19.6875H2.8125L3.75 27.1875H7.5" stroke="#0B2541" strokeWidth="1.875" strokeLinecap="round" strokeLinejoin="round"/>
<path fillRule="evenodd" clipRule="evenodd" d="M24.375 4.6875C25.9288 4.6875 27.1875 5.94625 27.1875 7.5C27.1875 9.05375 25.9288 10.3125 24.375 10.3125C22.8212 10.3125 21.5625 9.05375 21.5625 7.5C21.5625 5.94625 22.8212 4.6875 24.375 4.6875Z" stroke="#0B2541" strokeWidth="1.875" strokeLinecap="round" strokeLinejoin="round"/>
<path d="M24.375 12.1875C26.9637 12.1875 29.0625 14.2863 29.0625 16.875V19.6875H27.1875L26.25 27.1875H22.5" stroke="#0B2541" strokeWidth="1.875" strokeLinecap="round" strokeLinejoin="round"/>
<path fillRule="evenodd" clipRule="evenodd" d="M15 0.9375C17.0712 0.9375 18.75 2.61625 18.75 4.6875C18.75 6.75875 17.0712 8.4375 15 8.4375C12.9288 8.4375 11.25 6.75875 11.25 4.6875C11.25 2.61625 12.9288 0.9375 15 0.9375Z" stroke="#0B2541" strokeWidth="1.875" strokeLinecap="round" strokeLinejoin="round"/>
<path fillRule="evenodd" clipRule="evenodd" d="M21.5625 16.875C21.5625 13.2513 18.6237 10.3125 15 10.3125C11.3763 10.3125 8.4375 13.2513 8.4375 16.875V19.6875H11.25L12.1875 29.0625H17.8125L18.75 19.6875H21.5625V16.875Z" stroke="#0B2541" strokeWidth="1.875" strokeLinecap="round" strokeLinejoin="round"/>
</svg>
