<svg width="25" height="25" viewBox="0 0 25 25" fill="none" xmlns="http://www.w3.org/2000/svg">
<path fillRule="evenodd" clipRule="evenodd" d="M12.5 0.78125C18.9719 0.78125 24.2188 6.02812 24.2188 12.5C24.2188 18.9719 18.9719 24.2188 12.5 24.2188C6.02812 24.2188 0.78125 18.9719 0.78125 12.5C0.78125 6.02812 6.02812 0.78125 12.5 0.78125Z" stroke="#0B2541" strokeWidth="1.5625" strokeLinecap="round" strokeLinejoin="round"/>
<path fillRule="evenodd" clipRule="evenodd" d="M9.375 7.03125C11.7479 7.03125 13.6719 8.95521 13.6719 11.3281C13.6719 13.701 11.7479 15.625 9.375 15.625C7.00208 15.625 5.07812 13.701 5.07812 11.3281C5.07812 8.95521 7.00208 7.03125 9.375 7.03125Z" stroke="#0B2541" strokeWidth="1.5625" strokeLinecap="round" strokeLinejoin="round"/>
<path d="M6.25 17.9167C9.73021 16.1927 13.9479 17.6135 15.676 21.0917" stroke="#0B2541" strokeWidth="1.5625" strokeLinecap="round" strokeLinejoin="round"/>
<path fillRule="evenodd" clipRule="evenodd" d="M18.5542 10.1552C20.1729 10.1552 21.4844 11.4667 21.4844 13.0854C21.4844 14.7042 20.1729 16.0156 18.5542 16.0156C16.9354 16.0156 15.624 14.7042 15.624 13.0854C15.624 11.4667 16.9354 10.1552 18.5542 10.1552Z" stroke="#0B2541" strokeWidth="1.5625" strokeLinecap="round" strokeLinejoin="round"/>
</svg>
