<svg width="24" height="24" viewBox="0 0 24 24" fill="none" xmlns="http://www.w3.org/2000/svg">
<path fillRule="evenodd" clipRule="evenodd" d="M17 11C20.314 11 23 13.686 23 17C23 20.314 20.314 23 17 23C13.686 23 11 20.314 11 17C11 13.686 13.686 11 17 11Z" stroke="white" strokeLinecap="round" strokeLinejoin="round"/>
<path d="M19 15L16.3763 18.7126C16.1505 19.0309 15.7251 19.0941 15.4252 18.8554C15.4008 18.8353 15.3764 18.8142 15.3548 18.7903L14 17.3524" stroke="white" strokeLinecap="round" strokeLinejoin="round"/>
<path d="M8.11382 14C5.84208 14 4 11.986 4 9.5C4 7.015 5.84116 5 8.11382 5C9.86539 5 11.425 6.213 12 8.022" stroke="white" strokeLinecap="round" strokeLinejoin="round"/>
<path d="M9 9H8V8" stroke="white" strokeLinecap="round" strokeLinejoin="round"/>
<path d="M7.54545 20H2.45455C1.65164 20 1 19.3452 1 18.5385V2.46154C1 1.65477 1.65164 1 2.45455 1H12.7615C13.1474 1 13.5168 1.15492 13.7893 1.42872L16.5743 4.2261C16.8468 4.4999 17 4.8721 17 5.2599V7.57692" stroke="white" strokeLinecap="round" strokeLinejoin="round"/>
</svg>
