<svg width="29" height="29" viewBox="0 0 29 29" fill="none" xmlns="http://www.w3.org/2000/svg">
<path d="M4.625 0.325195H13.2238C13.7213 0.325195 14.1975 0.522695 14.5487 0.873945L27.125 13.4502" stroke="#0B2541" strokeWidth="1.875" strokeLinecap="round" strokeLinejoin="round"/>
<path fillRule="evenodd" clipRule="evenodd" d="M10.4113 4.0752H2.75C1.715 4.0752 0.875 4.9152 0.875 5.9502V13.6102C0.875 14.1077 1.0725 14.5852 1.42375 14.9364L13.6112 27.1239C14.3437 27.8564 15.53 27.8564 16.2625 27.1252C16.2625 27.1252 16.2625 27.1252 16.2638 27.1239L23.9237 19.4627C24.6562 18.7302 24.6562 17.5439 23.9237 16.8114L11.7362 4.6252C11.385 4.27395 10.9088 4.0752 10.4113 4.0752Z" stroke="#0B2541" strokeWidth="1.875" strokeLinecap="round" strokeLinejoin="round"/>
<path d="M6.5 9.23145C6.24125 9.23145 6.03125 9.44145 6.03125 9.7002C6.03125 9.95895 6.24125 10.1689 6.5 10.1689C6.75875 10.1689 6.96875 9.95895 6.96875 9.7002C6.97 9.44145 6.76125 9.2327 6.5025 9.23145C6.50125 9.23145 6.50125 9.23145 6.5 9.23145V9.23145" stroke="#0B2541" strokeWidth="1.875" strokeLinecap="round" strokeLinejoin="round"/>
</svg>
