<svg width="20" height="20" viewBox="0 0 20 20" fill="none" xmlns="http://www.w3.org/2000/svg">
<path d="M16.8767 7.49986V4.37402C16.8767 3.68402 16.3167 3.12402 15.6267 3.12402H12.2933" stroke="#0B2541" stroke-width="1.25" stroke-linecap="round" stroke-linejoin="round"/>
<path d="M5.21001 3.12402H1.87668C1.18668 3.12402 0.626678 3.68402 0.626678 4.37402V18.124C0.626678 18.814 1.18668 19.374 1.87668 19.374H8.75001" stroke="#0B2541" stroke-width="1.25" stroke-linecap="round" stroke-linejoin="round"/>
<path fill-rule="evenodd" clip-rule="evenodd" d="M12.0192 3.94652C11.9342 4.20152 11.6958 4.37319 11.4267 4.37402H6.07751C5.80834 4.37402 5.56918 4.20152 5.48418 3.94652L4.65084 1.44652C4.54168 1.11986 4.71751 0.76569 5.04418 0.656523C5.10834 0.634857 5.17584 0.624023 5.24418 0.624023H12.26C12.605 0.624023 12.8842 0.90319 12.885 1.24736C12.885 1.31486 12.8742 1.38236 12.8525 1.44652L12.0192 3.94652Z" stroke="#0B2541" stroke-width="1.25" stroke-linecap="round" stroke-linejoin="round"/>
<path d="M6.87667 16.874H3.75C3.405 16.874 3.125 16.594 3.125 16.249V5.62402" stroke="#0B2541" stroke-width="1.25" stroke-linecap="round" stroke-linejoin="round"/>
<path d="M14.3767 5.62402V6.87402" stroke="#0B2541" stroke-width="1.25" stroke-linecap="round" stroke-linejoin="round"/>
<path fill-rule="evenodd" clip-rule="evenodd" d="M14.375 9.37402C17.1367 9.37402 19.375 11.6124 19.375 14.374C19.375 17.1357 17.1367 19.374 14.375 19.374C11.6133 19.374 9.375 17.1357 9.375 14.374C9.375 11.6124 11.6133 9.37402 14.375 9.37402Z" stroke="#0B2541" stroke-width="1.25" stroke-linecap="round" stroke-linejoin="round"/>
<path d="M14.375 11.874V16.874" stroke="#0B2541" stroke-width="1.25" stroke-linecap="round" stroke-linejoin="round"/>
<path d="M11.875 14.3737H16.875" stroke="#0B2541" stroke-width="1.25" stroke-linecap="round" stroke-linejoin="round"/>
<path d="M5.62668 8.1237H9.37668" stroke="#0B2541" stroke-width="1.25" stroke-linecap="round" stroke-linejoin="round"/>
<path d="M5.62668 11.8737H6.87668" stroke="#0B2541" stroke-width="1.25" stroke-linecap="round" stroke-linejoin="round"/>
</svg>
