<svg width="27" height="27" viewBox="0 0 27 27" fill="none" xmlns="http://www.w3.org/2000/svg">
<path fillRule="evenodd" clipRule="evenodd" d="M6 14.9583C7.03583 14.9583 7.875 15.7975 7.875 16.8333C7.875 17.8692 7.03583 18.7083 6 18.7083C4.96417 18.7083 4.125 17.8692 4.125 16.8333C4.125 15.7975 4.96417 14.9583 6 14.9583Z" stroke="#0B2541" strokeWidth="1.56" strokeLinecap="round" strokeLinejoin="round"/>
<path fillRule="evenodd" clipRule="evenodd" d="M13.5 14.9583C14.5358 14.9583 15.375 15.7975 15.375 16.8333C15.375 17.8692 14.5358 18.7083 13.5 18.7083C12.4642 18.7083 11.625 17.8692 11.625 16.8333C11.625 15.7975 12.4642 14.9583 13.5 14.9583Z" stroke="#0B2541" strokeWidth="1.56" strokeLinecap="round" strokeLinejoin="round"/>
<path fillRule="evenodd" clipRule="evenodd" d="M21 14.9583C22.0358 14.9583 22.875 15.7975 22.875 16.8333C22.875 17.8692 22.0358 18.7083 21 18.7083C19.9642 18.7083 19.125 17.8692 19.125 16.8333C19.125 15.7975 19.9642 14.9583 21 14.9583Z" stroke="#0B2541" strokeWidth="1.56" strokeLinecap="round" strokeLinejoin="round"/>
<path d="M13.5 14.9583V5.79167" stroke="#0B2541" strokeWidth="1.56" strokeLinecap="round" strokeLinejoin="round"/>
<path d="M6 14.9583V12.4583H21V14.9583" stroke="#0B2541" strokeWidth="1.56" strokeLinecap="round" strokeLinejoin="round"/>
<path fillRule="evenodd" clipRule="evenodd" d="M13.5 26C20.4036 26 26 20.4036 26 13.5C26 6.59644 20.4036 1 13.5 1C6.59644 1 1 6.59644 1 13.5C1 20.4036 6.59644 26 13.5 26Z" stroke="#0B2541" strokeWidth="1.56"/>
</svg>
