<svg width="20" height="20" viewBox="0 0 20 20" fill="none" xmlns="http://www.w3.org/2000/svg">
<path d="M8.125 19.375H3.125C2.08917 19.375 1.25 18.5358 1.25 17.5" stroke="white" stroke-width="1.25" stroke-linecap="round" stroke-linejoin="round"/>
<path d="M16.25 6.875V1.25C16.25 0.905 15.97 0.625 15.625 0.625H3.75C2.36917 0.625 1.25 1.74417 1.25 3.125V17.5C1.25 16.4642 2.08917 15.625 3.125 15.625H6.25" stroke="white" stroke-width="1.25" stroke-linecap="round" stroke-linejoin="round"/>
<path fill-rule="evenodd" clip-rule="evenodd" d="M13.75 9.375C16.5117 9.375 18.75 11.6133 18.75 14.375C18.75 17.1367 16.5117 19.375 13.75 19.375C10.9883 19.375 8.75 17.1367 8.75 14.375C8.75 11.6133 10.9883 9.375 13.75 9.375Z" stroke="white" stroke-width="1.25" stroke-linecap="round" stroke-linejoin="round"/>
<path d="M13.7502 16.875V11.875" stroke="white" stroke-width="1.25" stroke-linecap="round" stroke-linejoin="round"/>
<path d="M11.25 14.375H16.25" stroke="white" stroke-width="1.25" stroke-linecap="round" stroke-linejoin="round"/>
</svg>
