<svg width="20" height="21" viewBox="0 0 20 21" fill="none" xmlns="http://www.w3.org/2000/svg">
<path d="M19.375 14.1233C19.375 14.8133 18.815 15.3733 18.125 15.3733V15.3733" stroke="#0B2541" strokeWidth="1.25" strokeLinecap="round" strokeLinejoin="round"/>
<path d="M18.125 6.62332C18.815 6.62332 19.375 7.18332 19.375 7.87332" stroke="#0B2541" strokeWidth="1.25" strokeLinecap="round" strokeLinejoin="round"/>
<path d="M0.625 7.87332C0.625 7.18332 1.185 6.62332 1.875 6.62332" stroke="#0B2541" strokeWidth="1.25" strokeLinecap="round" strokeLinejoin="round"/>
<path d="M1.875 15.3733C1.185 15.3733 0.625 14.8133 0.625 14.1233" stroke="#0B2541" strokeWidth="1.25" strokeLinecap="round" strokeLinejoin="round"/>
<path d="M0.625041 10.3733V11.6233" stroke="#0B2541" strokeWidth="1.25" strokeLinecap="round" strokeLinejoin="round"/>
<path d="M19.375 10.3733V11.6233" stroke="#0B2541" strokeWidth="1.25" strokeLinecap="round" strokeLinejoin="round"/>
<path d="M4.375 6.62333H5.625" stroke="#0B2541" strokeWidth="1.25" strokeLinecap="round" strokeLinejoin="round"/>
<path d="M8.125 6.62333H9.375" stroke="#0B2541" strokeWidth="1.25" strokeLinecap="round" strokeLinejoin="round"/>
<path d="M14.375 6.62333H15.625" stroke="#0B2541" strokeWidth="1.25" strokeLinecap="round" strokeLinejoin="round"/>
<path d="M4.375 15.3733H5.625" stroke="#0B2541" strokeWidth="1.25" strokeLinecap="round" strokeLinejoin="round"/>
<path d="M8.125 15.3733H9.375" stroke="#0B2541" strokeWidth="1.25" strokeLinecap="round" strokeLinejoin="round"/>
<path d="M14.375 15.3733H15.625" stroke="#0B2541" strokeWidth="1.25" strokeLinecap="round" strokeLinejoin="round"/>
<path d="M11.875 16.6233V5.37332" stroke="#0B2541" strokeWidth="1.25" strokeLinecap="round" strokeLinejoin="round"/>
<path d="M8.125 20.3733C10.1958 20.3733 11.875 18.6942 11.875 16.6233C11.875 18.6942 13.5542 20.3733 15.625 20.3733" stroke="#0B2541" strokeWidth="1.25" strokeLinecap="round" strokeLinejoin="round"/>
<path d="M8.125 1.62332C10.1958 1.62332 11.875 3.30249 11.875 5.37332V5.37332C11.875 3.30249 13.5542 1.62332 15.625 1.62332" stroke="#0B2541" strokeWidth="1.25" strokeLinecap="round" strokeLinejoin="round"/>
<path d="M9.375 12.8733H14.375" stroke="#0B2541" strokeWidth="1.25" strokeLinecap="round" strokeLinejoin="round"/>
</svg>
