<svg width="78" height="78" viewBox="0 0 78 78" fill="none" xmlns="http://www.w3.org/2000/svg">
<path d="M55.25 77.5937C57.9424 77.5937 60.125 75.4111 60.125 72.7187C60.125 70.0263 57.9424 67.8437 55.25 67.8437H58.5C61.1924 67.8437 63.375 65.6611 63.375 62.9687C63.375 60.2763 61.1924 58.0937 58.5 58.0937H61.75C64.4424 58.0937 66.625 55.9111 66.625 53.2187C66.625 50.5263 64.4424 48.3437 61.75 48.3437H65C67.6924 48.3437 69.875 46.1611 69.875 43.4687C69.875 40.7763 67.6924 38.5937 65 38.5937H41.0865C40.5874 38.5948 40.1154 38.3665 39.8065 37.9745C39.4976 37.5825 39.386 37.0702 39.5037 36.5852C40.9521 31.0923 41.8717 25.4735 42.25 19.8055C42.25 10.0555 32.5 10.7055 32.5 15.8437C32.6104 29.6245 21.8843 41.0657 8.125 41.8437H3.25C2.35254 41.8437 1.625 42.5713 1.625 43.4687V69.4687C1.625 70.3662 2.35254 71.0937 3.25 71.0937C27.3748 71.357 21.4175 77.5937 34.1413 77.5937H55.25Z" fill="#E2017B"/>
<path d="M77.1875 25.5938C77.1875 24.2476 76.0962 23.1562 74.75 23.1562H73.125C72.6763 23.1562 72.3125 22.7925 72.3125 22.3438V20.7188C72.3125 19.3726 71.2212 18.2812 69.875 18.2812C68.5288 18.2812 67.4375 19.3726 67.4375 20.7188V22.3438C67.4375 22.7925 67.0737 23.1562 66.625 23.1562H65C63.6538 23.1562 62.5625 24.2476 62.5625 25.5938C62.5625 26.9399 63.6538 28.0312 65 28.0312H66.625C67.0737 28.0312 67.4375 28.395 67.4375 28.8438V30.4688C67.4375 31.8149 68.5288 32.9062 69.875 32.9062C71.2212 32.9062 72.3125 31.8149 72.3125 30.4688V28.8438C72.3125 28.395 72.6763 28.0312 73.125 28.0312H74.75C76.0962 28.0312 77.1875 26.9399 77.1875 25.5938Z" fill="#E2017B"/>
<path d="M4.875 21.5312C5.32373 21.5312 5.6875 21.895 5.6875 22.3438V23.9688C5.6875 25.3149 6.77881 26.4062 8.125 26.4062C9.47119 26.4062 10.5625 25.3149 10.5625 23.9688V22.3438C10.5625 21.895 10.9263 21.5312 11.375 21.5312H13C14.3462 21.5312 15.4375 20.4399 15.4375 19.0938C15.4375 17.7476 14.3462 16.6562 13 16.6562H11.375C10.9263 16.6562 10.5625 16.2925 10.5625 15.8438V14.2188C10.5625 12.8726 9.47119 11.7812 8.125 11.7812C6.77881 11.7812 5.6875 12.8726 5.6875 14.2188V15.8438C5.6875 16.2925 5.32373 16.6562 4.875 16.6562H3.25C1.90381 16.6562 0.8125 17.7476 0.8125 19.0938C0.8125 20.4399 1.90381 21.5312 3.25 21.5312H4.875Z" fill="#E2017B"/>
<path d="M52 0.40625C50.6538 0.40625 49.5625 1.49756 49.5625 2.84375V4.46875C49.5625 4.91748 49.1987 5.28125 48.75 5.28125H47.125C45.7788 5.28125 44.6875 6.37256 44.6875 7.71875C44.6875 9.06494 45.7788 10.1562 47.125 10.1562H48.75C49.1987 10.1562 49.5625 10.52 49.5625 10.9688V12.5938C49.5625 13.9399 50.6538 15.0312 52 15.0312C53.3462 15.0312 54.4375 13.9399 54.4375 12.5938V10.9688C54.4375 10.52 54.8013 10.1562 55.25 10.1562H56.875C58.2212 10.1562 59.3125 9.06494 59.3125 7.71875C59.3125 6.37256 58.2212 5.28125 56.875 5.28125H55.25C54.8013 5.28125 54.4375 4.91748 54.4375 4.46875V2.84375C54.4375 1.49756 53.3462 0.40625 52 0.40625Z" fill="#E2017B"/>
</svg>
