<svg width="50" height="50" viewBox="0 0 50 50" fill="none" xmlns="http://www.w3.org/2000/svg">
<path fillRule="evenodd" clipRule="evenodd" d="M12.5 1.5625C15.9521 1.5625 18.75 4.36042 18.75 7.8125C18.75 11.2646 15.9521 14.0625 12.5 14.0625C9.04792 14.0625 6.25 11.2646 6.25 7.8125C6.25 4.36042 9.04792 1.5625 12.5 1.5625Z" stroke="#0B2541" strokeWidth="3.125" strokeLinecap="round" strokeLinejoin="round"/>
<path d="M20.1562 20.3125C15.8396 16.0854 8.9125 16.1583 4.68542 20.475C2.68542 22.5188 1.5625 25.2646 1.5625 28.125V32.8125H6.25L7.8125 48.4375H17.1875L17.7833 42.5" stroke="#0B2541" strokeWidth="3.125" strokeLinecap="round" strokeLinejoin="round"/>
<path fillRule="evenodd" clipRule="evenodd" d="M32.8125 21.875C38.8521 21.875 43.75 26.7729 43.75 32.8125C43.75 38.8521 38.8521 43.75 32.8125 43.75C26.7729 43.75 21.875 38.8521 21.875 32.8125C21.875 26.7729 26.7729 21.875 32.8125 21.875Z" stroke="#0B2541" strokeWidth="3.125" strokeLinecap="round" strokeLinejoin="round"/>
<path d="M48.4374 48.4375L40.5479 40.5458" stroke="#0B2541" strokeWidth="3.125" strokeLinecap="round" strokeLinejoin="round"/>
<path fillRule="evenodd" clipRule="evenodd" d="M34.375 1.5625C37.3958 1.5625 39.8438 4.01042 39.8438 7.03125C39.8438 10.0521 37.3958 12.5 34.375 12.5C31.3542 12.5 28.9062 10.0521 28.9062 7.03125C28.9062 4.01042 31.3542 1.5625 34.375 1.5625Z" stroke="#0B2541" strokeWidth="3.125" strokeLinecap="round" strokeLinejoin="round"/>
<path d="M42.4998 18.75C39.9103 14.2667 34.1748 12.7313 29.6915 15.3229C28.7998 15.8375 27.9998 16.4958 27.3228 17.2708" stroke="#0B2541" strokeWidth="3.125" strokeLinecap="round" strokeLinejoin="round"/>
</svg>
