<?xml version="1.0" encoding="UTF-8"?>
<svg width="17px" height="11px" viewBox="0 0 17 11" version="1.1" xmlns="http://www.w3.org/2000/svg" xmlns:xlink="http://www.w3.org/1999/xlink">
    <title>View_icon</title>
    <g id="Teaching-Path---V3" stroke="none" strokeWidth="1" fill="none" fillRule="evenodd" strokeLinecap="round" strokeLinejoin="round">
        <g id="New-Teaching-Path---Publish" transform="translate(-57.000000, -337.000000)" stroke="#0B2541">
            <g id="Left-Column" transform="translate(-0.250000, 77.000000)">
                <g id="Visibility" transform="translate(0.000000, 116.250000)">
                    <g transform="translate(20.250000, 26.750000)" id="Button-Group">
                        <g transform="translate(0.000000, 95.000000)">
                            <g id="Knapp-m/-ikon" transform="translate(1.000000, 1.000000)">
                                <g id="View_icon" transform="translate(37.000000, 22.000000)">
                                    <path d="M7.49899999,0.000804497089 C4.81163381,-0.0445293903 2.03226651,1.83349356 0.284911824,3.7568504 C-0.0949706079,4.17859072 -0.0949706079,4.81912822 0.284911824,5.24086854 C1.99426605,7.12355821 4.76563325,9.04491503 7.49899999,8.99891446 C10.2323667,9.04491503 13.0044006,7.12355821 14.7150882,5.24086854 C15.0949706,4.81912822 15.0949706,4.17859072 14.7150882,3.7568504 C12.9657335,1.83349356 10.1863662,-0.0445293903 7.49899999,0.000804497089 Z" id="Path"></path>
                                    <path d="M9.9990309,4.50019282 C9.99866237,5.88083472 8.87919759,6.99980209 7.49855566,6.9995567 C6.11791372,6.99931123 4.99884684,5.87994593 4.99896953,4.49930398 C4.99909222,3.11866203 6.11835803,1.9994955 7.49899999,1.9994955 C8.16221909,1.99931859 8.79831554,2.2627486 9.26721976,2.73177786 C9.73612398,3.20080712 9.99938438,3.83697379 9.9990309,4.50019282 L9.9990309,4.50019282 Z" id="Path"></path>
                                </g>
                            </g>
                        </g>
                    </g>
                </g>
            </g>
        </g>
    </g>
</svg>
