<svg width="31" height="30" viewBox="0 0 31 30" fill="none" xmlns="http://www.w3.org/2000/svg">
<path d="M28.5327 10.764C29.2452 9.97401 29.2452 8.77151 28.5327 7.98151C25.2502 4.37526 20.0427 0.854008 15.0002 0.939008C9.96523 0.854008 4.75023 4.37526 1.47773 7.98151C0.765234 8.77151 0.765234 9.97401 1.47773 10.764C4.68148 14.294 9.87523 17.8965 15.0002 17.8103" stroke="#0B2541" strokeWidth="1.875" strokeLinecap="round" strokeLinejoin="round"/>
<path d="M15 14.0625C12.4113 14.0625 10.3125 11.9637 10.3125 9.375C10.3125 6.78625 12.4113 4.6875 15 4.6875C17.5887 4.6875 19.6875 6.78625 19.6875 9.375" stroke="#0B2541" strokeWidth="1.875" strokeLinecap="round" strokeLinejoin="round"/>
<path fillRule="evenodd" clipRule="evenodd" d="M22.5039 13.125C24.3164 13.125 25.7852 14.5938 25.7852 16.4062C25.7852 18.2188 24.3164 19.6875 22.5039 19.6875C20.6914 19.6875 19.2227 18.2188 19.2227 16.4062C19.2227 14.5938 20.6914 13.125 22.5039 13.125Z" stroke="#0B2541" strokeWidth="1.875" strokeLinecap="round" strokeLinejoin="round"/>
<path fillRule="evenodd" clipRule="evenodd" d="M22.5 20.625C18.8763 20.625 15.9375 23.5638 15.9375 27.1875V27.1875V29.0625H29.0625V27.1875C29.0613 23.5638 26.1237 20.6262 22.5 20.625Z" stroke="#0B2541" strokeWidth="1.875" strokeLinecap="round" strokeLinejoin="round"/>
</svg>
