<?xml version="1.0" encoding="UTF-8"?>
<svg width="30px" height="23px" viewBox="0 0 30 23" version="1.1" xmlns="http://www.w3.org/2000/svg" xmlns:xlink="http://www.w3.org/1999/xlink">
    <title>Voice</title>
    <g id="Teaching-Path---V3" stroke="none" strokeWidth="1" fill="none" fillRule="evenodd" strokeLinecap="round" strokeLinejoin="round">
        <g id="New-Teaching-Path---Create-(add-articles)---Filters-opened" transform="translate(-55.000000, -979.000000)" stroke="#0B2541" strokeWidth="1.75">
            <g id="Velg-oppgaver" transform="translate(-1.000000, 77.000000)">
                <g id="Sub-Menu" transform="translate(57.000000, 34.000000)">
                    <g id="Group-4" transform="translate(0.000000, 868.651339)">
                        <g id="Voice" transform="translate(0.000000, 0.348661)">
                            <path d="M7,15 L4.375,15 C1.95875422,15 0,12.9852814 0,10.5 C0,8.01471863 1.95875422,6 4.375,6 L7,6 L7,15 Z" id="Path"></path>
                            <path d="M8,14.5454545 C13.216173,14.5459083 18.3155827,16.1249236 22.656,19.0836364 L24,20 L24,0 L22.656,0.916363636 C18.3155827,3.87507645 13.216173,5.45409173 8,5.45454545 L8,14.5454545 Z" id="Path"></path>
                            <line x1="27.5" y1="8" x2="27.5" y2="12" id="Path"></line>
                            <path d="M7,15 C6.99827871,17.2679118 8.08281831,19.4369925 10,21" id="Path"></path>
                        </g>
                    </g>
                </g>
            </g>
        </g>
    </g>
</svg>
