<svg width="50" height="50" viewBox="0 0 50 50" fill="none" xmlns="http://www.w3.org/2000/svg">
<path d="M1.5625 35.9375C1.56667 28.1708 7.86458 21.8771 15.6313 21.8812C18.9 21.8833 22.0646 23.0229 24.5833 25.1041" stroke="#0B2541" strokeWidth="3.125" strokeLinecap="round" strokeLinejoin="round"/>
<path d="M8.21875 5.79376C10.9083 8.58126 14.6167 10.1563 18.4896 10.1563C20.4333 10.1583 22.3542 9.76251 24.1396 8.99376" stroke="#0B2541" strokeWidth="3.125" strokeLinecap="round" strokeLinejoin="round"/>
<path fillRule="evenodd" clipRule="evenodd" d="M15.625 1.5625C20.3708 1.5625 24.2188 5.41042 24.2188 10.1562C24.2188 14.9021 20.3708 18.75 15.625 18.75C10.8792 18.75 7.03125 14.9021 7.03125 10.1562C7.03125 5.41042 10.8792 1.5625 15.625 1.5625Z" stroke="#0B2541" strokeWidth="3.125" strokeLinecap="round" strokeLinejoin="round"/>
<path fillRule="evenodd" clipRule="evenodd" d="M28.125 32.8125C30.7146 32.8125 32.8125 34.9104 32.8125 37.5C32.8125 40.0896 30.7146 42.1875 28.125 42.1875C25.5354 42.1875 23.4375 40.0896 23.4375 37.5C23.4375 34.9104 25.5354 32.8125 28.125 32.8125Z" stroke="#0B2541" strokeWidth="3.125" strokeLinecap="round" strokeLinejoin="round"/>
<path fillRule="evenodd" clipRule="evenodd" d="M43.75 39.0625C46.3396 39.0625 48.4375 41.1604 48.4375 43.75C48.4375 46.3396 46.3396 48.4375 43.75 48.4375C41.1604 48.4375 39.0625 46.3396 39.0625 43.75C39.0625 41.1604 41.1604 39.0625 43.75 39.0625Z" stroke="#0B2541" strokeWidth="3.125" strokeLinecap="round" strokeLinejoin="round"/>
<path fillRule="evenodd" clipRule="evenodd" d="M43.75 23.4375C46.3396 23.4375 48.4375 25.5354 48.4375 28.125C48.4375 30.7146 46.3396 32.8125 43.75 32.8125C41.1604 32.8125 39.0625 30.7146 39.0625 28.125C39.0625 25.5354 41.1604 23.4375 43.75 23.4375Z" stroke="#0B2541" strokeWidth="3.125" strokeLinecap="round" strokeLinejoin="round"/>
<path d="M32.1333 35.0938L39.7375 30.5312" stroke="#0B2541" strokeWidth="3.125" strokeLinecap="round" strokeLinejoin="round"/>
<path d="M32.4751 39.2396L39.4001 42.0104" stroke="#0B2541" strokeWidth="3.125" strokeLinecap="round" strokeLinejoin="round"/>
</svg>
