<svg width="40" height="34" viewBox="0 0 40 34" fill="none" xmlns="http://www.w3.org/2000/svg">
<path fill-rule="evenodd" clip-rule="evenodd" d="M28.3975 0.564908C22.1188 -0.789979 15.2362 0.368066 9.55876 3.23889C1.74198 7.18852 7.38585 8.92431 14.3923 6.44461C15.9758 5.88637 17.733 4.84967 19.5201 3.79529C22.6434 1.95262 25.8582 0.0559712 28.3975 0.564908ZM22.6832 12.2699C21.7642 12.9487 21.0098 13.506 20.5059 13.8351C7.22328 22.5218 -7.44769 18.3548 4.2865 7.13739C2.42327 9.08536 5.48134 11.7108 14.2942 8.58942C16.5228 7.79717 18.6896 6.48646 20.8201 5.19767C26.5816 1.71235 32.0782 -1.61266 37.8168 5.91032C35.3529 2.91067 27.1094 9.00018 22.6832 12.2699ZM21.9562 15.801C15.9304 19.743 6.78198 22.7493 2.60134 19.2393C5.78872 22.1808 9.96489 22.8841 14.0618 23.5741H14.0618C15.8328 23.8723 17.5889 24.1681 19.2439 24.641C22.5136 24.5771 24.8155 23.056 27.853 20.7527C34.8 15.4866 38.142 17.8691 37.1097 19.8938C38.9007 17.1789 40.2917 14.0141 39.6 9.94175C38.4714 3.28462 29.1384 10.3897 24.2333 14.1238L24.2333 14.1239C23.2729 14.855 22.4823 15.4569 21.9562 15.801ZM21.76 25.6329C24.302 25.5818 26.2194 24.2627 28.5807 22.4732C33.9691 18.3778 36.5652 20.2082 35.7755 21.7932C35.5519 22.0932 35.3283 22.3887 35.1076 22.6804C32.2164 26.5012 29.8185 29.6702 34.2013 33.9667C30.3862 34.119 28.9795 32.5134 26.895 30.1344C26.4245 29.5975 25.9195 29.0212 25.3446 28.4168C24.3139 27.2983 23.1025 26.3575 21.76 25.6329Z" fill="url(#paint0_linear)"/>
<defs>
<linearGradient id="paint0_linear" x1="-16.9596" y1="10.5251" x2="8.96936" y2="56.7825" gradientUnits="userSpaceOnUse">
<stop offset="0.1" stop-color="#FDBD48"/>
<stop offset="0.4" stop-color="#E43B43"/>
<stop offset="0.6" stop-color="#E2499A"/>
<stop offset="0.9" stop-color="#6652A2"/>
</linearGradient>
</defs>
</svg>
